<svg width="23" height="25" viewBox="0 0 23 25" fill="none" xmlns="http://www.w3.org/2000/svg">
<path fill-rule="evenodd" clip-rule="evenodd" d="M5 1.14124C3.34314 1.14124 2 2.48439 2 4.14124V20.1412C2 21.7981 3.34315 23.1412 5 23.1412H18C19.6569 23.1412 21 21.7981 21 20.1412V10.1412C21 9.87602 20.8946 9.62167 20.7071 9.43412L12.7071 1.43416C12.6114 1.33846 12.4983 1.26414 12.3753 1.21432C12.2572 1.16651 12.1299 1.14124 12 1.14124H5ZM11 3.14124H5C4.44771 3.14124 4 3.58895 4 4.14124V20.1412C4 20.6935 4.44772 21.1412 5 21.1412H18C18.5523 21.1412 19 20.6935 19 20.1412V11.1412H12C11.4477 11.1412 11 10.6935 11 10.1412V3.14124ZM17.5858 9.14126L13 4.55548V9.14126H17.5858Z" fill="white"/>
</svg>
