<svg width="24" height="25" viewBox="0 0 24 25" fill="none" xmlns="http://www.w3.org/2000/svg">
<g id="Frame">
<g id="SVGRepo_iconCarrier">
<path id="Vector" d="M11.2691 4.91115C11.5006 4.39177 11.6164 4.13208 11.7776 4.05211C11.9176 3.98263 12.082 3.98263 12.222 4.05211C12.3832 4.13208 12.499 4.39177 12.7305 4.91115L14.5745 9.04808C14.643 9.20162 14.6772 9.27839 14.7302 9.33718C14.777 9.3892 14.8343 9.43081 14.8982 9.45929C14.9705 9.49149 15.0541 9.50031 15.2213 9.51795L19.7256 9.99336C20.2911 10.053 20.5738 10.0829 20.6997 10.2115C20.809 10.3232 20.8598 10.4796 20.837 10.6342C20.8108 10.8122 20.5996 11.0025 20.1772 11.3832L16.8125 14.4154C16.6877 14.5279 16.6252 14.5842 16.5857 14.6527C16.5507 14.7134 16.5288 14.7807 16.5215 14.8503C16.5132 14.929 16.5306 15.0112 16.5655 15.1757L17.5053 19.6064C17.6233 20.1627 17.6823 20.4408 17.5989 20.6002C17.5264 20.7388 17.3934 20.8354 17.2393 20.8615C17.0619 20.8915 16.8156 20.7495 16.323 20.4654L12.3995 18.2024C12.2539 18.1184 12.1811 18.0765 12.1037 18.06C12.0352 18.0455 11.9644 18.0455 11.8959 18.06C11.8185 18.0765 11.7457 18.1184 11.6001 18.2024L7.67662 20.4654C7.18404 20.7495 6.93775 20.8915 6.76034 20.8615C6.60623 20.8354 6.47319 20.7388 6.40075 20.6002C6.31736 20.4408 6.37635 20.1627 6.49434 19.6064L7.4341 15.1757C7.46898 15.0112 7.48642 14.929 7.47814 14.8503C7.47081 14.7807 7.44894 14.7134 7.41394 14.6527C7.37439 14.5842 7.31195 14.5279 7.18708 14.4154L3.82246 11.3832C3.40005 11.0025 3.18884 10.8122 3.16258 10.6342C3.13978 10.4796 3.19059 10.3232 3.29993 10.2115C3.42581 10.0829 3.70856 10.053 4.27406 9.99336L8.77835 9.51795C8.94553 9.50031 9.02911 9.49149 9.10139 9.45929C9.16534 9.43081 9.2226 9.3892 9.26946 9.33718C9.32241 9.27839 9.35663 9.20162 9.42508 9.04808L11.2691 4.91115Z" stroke="white" stroke-width="2" stroke-linecap="round" stroke-linejoin="round"/>
</g>
</g>
</svg>
