<svg width="24" height="25" viewBox="0 0 24 25" fill="none" xmlns="http://www.w3.org/2000/svg">
<g id="github-142-svgrepo-com 1" clip-path="url(#clip0_2014_198)">
<g id="Page-1">
<g id="Dribbble-Light-Preview">
<g id="icons">
<path id="github-[#142]" fill-rule="evenodd" clip-rule="evenodd" d="M12 0.5C18.6276 0.5 24 6.00792 24 12.8035C24 18.2383 20.5656 22.8487 15.8004 24.4771C15.192 24.5983 14.976 24.2141 14.976 23.8865C14.976 23.4809 14.9904 22.1562 14.9904 20.5098C14.9904 19.3626 14.6064 18.6138 14.1756 18.2322C16.848 17.9274 19.656 16.8869 19.656 12.1613C19.656 10.8173 19.1904 9.72058 18.42 8.85898C18.5448 8.54818 18.9564 7.29674 18.3024 5.60234C18.3024 5.60234 17.2968 5.27267 15.006 6.86387C14.0472 6.59147 13.02 6.45441 12 6.44961C10.98 6.45441 9.954 6.59147 8.9964 6.86387C6.7032 5.27267 5.6952 5.60234 5.6952 5.60234C5.0436 7.29674 5.4552 8.54818 5.5788 8.85898C4.812 9.72058 4.3428 10.8173 4.3428 12.1613C4.3428 16.8749 7.1448 17.9314 9.81 18.2422C9.4668 18.5494 9.156 19.0913 9.048 19.8869C8.364 20.2013 6.6264 20.7454 5.556 18.865C5.556 18.865 4.9212 17.6829 3.7164 17.5965C3.7164 17.5965 2.5464 17.5809 3.6348 18.3441C3.6348 18.3441 4.4208 18.7221 4.9668 20.1441C4.9668 20.1441 5.6712 22.3401 9.0096 21.5961C9.0156 22.6245 9.0264 23.5937 9.0264 23.8865C9.0264 24.2117 8.8056 24.5923 8.2068 24.4783C3.438 22.8523 0 18.2395 0 12.8035C0 6.00792 5.3736 0.5 12 0.5Z" fill="white"/>
</g>
</g>
</g>
</g>
<defs>
<clipPath id="clip0_2014_198">
<rect width="24" height="24" fill="white" transform="translate(0 0.5)"/>
</clipPath>
</defs>
</svg>
