<svg width="24" height="25" viewBox="0 0 24 25" fill="none" xmlns="http://www.w3.org/2000/svg">
<g id="Frame">
<g id="SVGRepo_iconCarrier">
<path id="Vector" fill-rule="evenodd" clip-rule="evenodd" d="M21.9495 12.5C22.5978 11.8647 23 10.9793 23 10C23 8.067 21.433 6.5 19.5 6.5C18.9632 6.5 18.4546 6.62085 18 6.83682V5C18 3.067 16.433 1.5 14.5 1.5C13.5207 1.5 12.6353 1.90223 12 2.55051C11.3647 1.90223 10.4793 1.5 9.5 1.5C7.567 1.5 6 3.067 6 5C6 5.5368 6.12085 6.04537 6.33682 6.5H4.5C2.567 6.5 1 8.067 1 10C1 10.9793 1.40223 11.8647 2.05051 12.5C1.40223 13.1353 1 14.0207 1 15C1 16.933 2.567 18.5 4.5 18.5C5.0368 18.5 5.54537 18.3792 6 18.1632V20C6 21.933 7.567 23.5 9.5 23.5C10.4793 23.5 11.3647 23.0978 12 22.4495C12.6353 23.0978 13.5207 23.5 14.5 23.5C16.433 23.5 18 21.933 18 20C18 19.4632 17.8792 18.9546 17.6632 18.5H19.5C21.433 18.5 23 16.933 23 15C23 14.0207 22.5978 13.1353 21.9495 12.5ZM9.5 3.5C10.3284 3.5 11 4.17157 11 5V6.5H9.5C8.67157 6.5 8 5.82843 8 5C8 4.17157 8.67157 3.5 9.5 3.5ZM13 5C13 4.17157 13.6716 3.5 14.5 3.5C15.3284 3.5 16 4.17157 16 5V11.5H13V5ZM11 11.5V8.5H4.5C3.67157 8.5 3 9.17157 3 10C3 10.8284 3.67157 11.5 4.5 11.5H11ZM18 11.5H19.5C20.3284 11.5 21 10.8284 21 10C21 9.17157 20.3284 8.5 19.5 8.5C18.6716 8.5 18 9.17157 18 10V11.5ZM19.5 13.5H13V16.5H19.5C20.3284 16.5 21 15.8284 21 15C21 14.1716 20.3284 13.5 19.5 13.5ZM14.5 18.5H13V20C13 20.8284 13.6716 21.5 14.5 21.5C15.3284 21.5 16 20.8284 16 20C16 19.1716 15.3284 18.5 14.5 18.5ZM11 13.5H8V20C8 20.8284 8.67157 21.5 9.5 21.5C10.3284 21.5 11 20.8284 11 20V13.5ZM4.5 13.5H6V15C6 15.8284 5.32843 16.5 4.5 16.5C3.67157 16.5 3 15.8284 3 15C3 14.1716 3.67157 13.5 4.5 13.5Z" fill="#3A4756"/>
</g>
</g>
</svg>
