<svg width="19" height="23" viewBox="0 0 19 23" fill="none" xmlns="http://www.w3.org/2000/svg">
<g id="SVGRepo_iconCarrier">
<path id="Vector" fill-rule="evenodd" clip-rule="evenodd" d="M3 0.141235C1.34314 0.141235 0 1.48439 0 3.14124V19.1412C0 20.7981 1.34315 22.1412 3 22.1412H16C17.6569 22.1412 19 20.7981 19 19.1412V9.14124C19 8.87602 18.8946 8.62167 18.7071 8.43412L10.7071 0.434155C10.6114 0.338455 10.4983 0.264135 10.3753 0.214315C10.2572 0.166505 10.1299 0.141235 10 0.141235H3ZM9 2.14124H3C2.44771 2.14124 2 2.58895 2 3.14124V19.1412C2 19.6935 2.44772 20.1412 3 20.1412H16C16.5523 20.1412 17 19.6935 17 19.1412V10.1412H10C9.4477 10.1412 9 9.69353 9 9.14124V2.14124ZM15.5858 8.14126L11 3.55548V8.14126H15.5858Z" fill="white"/>
</g>
</svg>
