<svg width="61" height="61" viewBox="0 0 61 61" fill="none" xmlns="http://www.w3.org/2000/svg">
<g clip-path="url(#clip0_22_6)">
<path fill-rule="evenodd" clip-rule="evenodd" d="M54.6055 48.9209H6.60547C3.29347 48.9209 0.605469 51.6089 0.605469 54.9209C0.605469 58.2329 3.29347 60.9209 6.60547 60.9209H54.6055C57.9175 60.9209 60.6055 58.2329 60.6055 54.9209C60.6055 51.6089 57.9175 48.9209 54.6055 48.9209ZM54.6055 24.9209H6.60547C3.29347 24.9209 0.605469 27.6089 0.605469 30.9209C0.605469 34.2329 3.29347 36.9209 6.60547 36.9209H54.6055C57.9175 36.9209 60.6055 34.2329 60.6055 30.9209C60.6055 27.6089 57.9175 24.9209 54.6055 24.9209ZM6.60547 12.9209H54.6055C57.9175 12.9209 60.6055 10.2329 60.6055 6.9209C60.6055 3.6089 57.9175 0.920898 54.6055 0.920898H6.60547C3.29347 0.920898 0.605469 3.6089 0.605469 6.9209C0.605469 10.2329 3.29347 12.9209 6.60547 12.9209Z" fill="black"/>
</g>
<defs>
<clipPath id="clip0_22_6">
<rect width="60" height="60" fill="white" transform="translate(0.605469 0.920898)"/>
</clipPath>
</defs>
</svg>
