<svg width="400" height="77" viewBox="0 0 400 77" fill="none" xmlns="http://www.w3.org/2000/svg">
<path d="M99.0801 34.3299C100.58 34.3299 101.98 34.0299 103.38 33.4299C104.68 32.8299 105.88 31.8299 106.78 30.6299L110.88 34.8299C107.68 38.4299 103.98 40.2299 99.5801 40.2299C97.5801 40.3299 95.6801 40.0299 93.7801 39.2299C91.9801 38.5299 90.2801 37.4299 88.7801 36.1299C87.3801 34.8299 86.2801 33.1299 85.5801 31.4299C84.8801 29.6299 84.4801 27.7299 84.5801 25.8299C84.4801 23.9299 84.8801 21.9299 85.5801 20.1299C86.2801 18.3299 87.3801 16.7299 88.7801 15.3299C90.2801 13.9299 92.0801 12.8299 93.9801 12.1299C95.8801 11.4299 97.9801 11.1299 100.08 11.2299C102.18 11.3299 104.18 11.8299 106.08 12.7299C107.98 13.6299 109.58 14.9299 110.98 16.5299L107.08 21.0299C106.18 19.8299 105.08 18.9299 103.78 18.3299C102.48 17.7299 101.08 17.3299 99.5801 17.3299C97.3801 17.3299 95.1801 18.1299 93.4801 19.6299C92.5801 20.4299 91.9801 21.4299 91.4801 22.5299C91.0801 23.6299 90.8801 24.8299 90.8801 25.9299C90.7801 27.1299 90.9801 28.2299 91.3801 29.3299C91.7801 30.4299 92.3801 31.4299 93.2801 32.2299C94.8801 33.5299 96.9801 34.3299 99.0801 34.3299ZM115.68 39.8299V11.6299H121.98V34.2299H134.08V39.8299H115.68ZM161.68 35.9299C158.78 38.6299 155.08 40.1299 151.08 40.1299C147.08 40.1299 143.38 38.6299 140.48 35.9299C139.08 34.6299 137.98 33.0299 137.28 31.2299C136.58 29.4299 136.18 27.5299 136.18 25.6299C136.08 23.7299 136.48 21.7299 137.18 20.0299C137.88 18.2299 138.98 16.6299 140.38 15.3299C143.28 12.6299 146.98 11.1299 150.98 11.1299C154.98 11.1299 158.68 12.6299 161.58 15.3299C162.98 16.6299 164.08 18.2299 164.78 20.0299C165.48 21.8299 165.88 23.7299 165.78 25.6299C165.88 27.5299 165.48 29.5299 164.78 31.2299C164.18 33.0299 163.08 34.6299 161.68 35.9299ZM159.48 25.6299C159.48 23.2299 158.58 20.9299 156.98 19.1299C156.18 18.3299 155.28 17.6299 154.28 17.1299C153.28 16.6299 152.08 16.4299 150.98 16.4299C149.88 16.4299 148.78 16.6299 147.68 17.1299C146.68 17.6299 145.68 18.2299 144.98 19.1299C143.38 20.9299 142.48 23.2299 142.48 25.6299C142.48 28.0299 143.38 30.3299 144.98 32.1299C145.78 32.9299 146.68 33.6299 147.68 34.1299C148.68 34.6299 149.88 34.8299 150.98 34.8299C152.08 34.8299 153.18 34.6299 154.28 34.1299C155.28 33.6299 156.28 33.0299 156.98 32.1299C157.78 31.2299 158.48 30.2299 158.88 29.1299C159.38 27.9299 159.58 26.8299 159.48 25.6299ZM178.78 32.6299C179.28 33.3299 179.98 33.8299 180.68 34.1299C181.38 34.4299 182.28 34.6299 183.08 34.6299C183.88 34.6299 184.68 34.5299 185.38 34.1299C186.08 33.8299 186.78 33.2299 187.18 32.6299C188.28 31.0299 188.78 29.2299 188.68 27.3299V11.7299H194.98V27.5299C194.98 31.6299 193.88 34.7299 191.58 36.9299C190.38 38.0299 189.08 38.9299 187.58 39.4299C186.08 40.0299 184.48 40.2299 182.88 40.2299C181.28 40.2299 179.68 40.0299 178.18 39.4299C176.68 38.8299 175.28 38.0299 174.18 36.9299C171.88 34.7299 170.78 31.6299 170.78 27.5299V11.7299H177.08V27.3299C177.08 29.2299 177.68 31.1299 178.78 32.6299ZM223.28 15.3299C225.98 17.8299 227.38 21.2299 227.38 25.6299C227.38 30.0299 226.08 33.5299 223.48 36.1299C220.88 38.7299 216.78 39.9299 211.48 39.9299H201.68V11.6299H211.68C216.68 11.6299 220.58 12.8299 223.28 15.3299ZM218.68 32.1299C220.18 30.7299 220.98 28.5299 220.98 25.7299C220.98 22.9299 220.18 20.8299 218.68 19.3299C217.18 17.8299 214.78 17.0299 211.58 17.0299H208.08V34.2299H212.08C214.48 34.4299 216.88 33.7299 218.68 32.1299ZM263.28 11.6299H269.58V39.9299H263.28L249.78 22.2299V39.9299H243.48V11.6299H249.38L263.28 29.8299V11.6299ZM296.68 39.8299L293.98 33.7299H282.08L279.38 39.8299H272.58L284.78 11.5299H290.88L303.18 39.8299H296.68ZM288.18 20.0299L284.68 28.2299H291.68L288.18 20.0299ZM316.68 17.1299V39.9299H310.38V17.1299H302.38V11.7299H324.78V17.1299H316.68ZM329.18 11.6299H335.48V39.9299H329.18V11.6299ZM352.98 29.6299L360.18 11.6299H367.08L355.78 39.9299H350.48L339.18 11.6299H346.08L352.98 29.6299ZM390.68 11.6299V17.2299H376.58V23.0299H389.28V28.4299H376.58V34.3299H391.18V39.9299H370.38V11.7299L390.68 11.6299ZM91.7801 63.9299C92.5801 63.9299 93.3801 63.7299 94.1801 63.4299C94.8801 63.0299 95.5801 62.5299 96.0801 61.8299L98.3801 64.2299C97.5801 65.1299 96.6801 65.9299 95.4801 66.4299C94.3801 66.9299 93.1801 67.2299 91.9801 67.2299C90.8801 67.2299 89.7801 67.1299 88.7801 66.7299C87.7801 66.3299 86.7801 65.7299 85.9801 64.9299C85.1801 64.2299 84.5801 63.3299 84.1801 62.3299C83.7801 61.3299 83.5801 60.2299 83.5801 59.1299C83.5801 58.0299 83.7801 56.9299 84.1801 55.9299C84.5801 54.9299 85.1801 54.0299 85.9801 53.2299C86.7801 52.4299 87.6801 51.8299 88.6801 51.4299C89.6801 51.0299 90.7801 50.8299 91.8801 50.8299C93.0801 50.8299 94.3801 51.0299 95.4801 51.5299C96.5801 52.0299 97.5801 52.8299 98.4801 53.7299L96.2801 56.2299C95.7801 55.5299 95.1801 55.0299 94.4801 54.6299C93.7801 54.2299 92.9801 54.1299 92.0801 54.1299C90.7801 54.1299 89.5801 54.6299 88.6801 55.4299C88.1801 55.8299 87.7801 56.4299 87.5801 57.0299C87.3801 57.6299 87.1801 58.3299 87.2801 58.9299C87.2801 59.5299 87.3801 60.2299 87.5801 60.8299C87.7801 61.4299 88.1801 62.0299 88.5801 62.4299C88.9801 62.8299 89.4801 63.2299 90.0801 63.4299C90.6801 63.6299 91.1801 63.9299 91.7801 63.9299ZM114.08 64.8299C112.48 66.3299 110.38 67.2299 108.18 67.2299C107.08 67.2299 105.98 67.0299 104.98 66.6299C103.98 66.2299 103.08 65.6299 102.28 64.8299C100.78 63.3299 99.8801 61.2299 99.8801 59.0299C99.8801 56.8299 100.78 54.7299 102.28 53.2299C103.88 51.7299 105.98 50.8299 108.18 50.8299C109.28 50.8299 110.38 51.0299 111.38 51.4299C112.38 51.8299 113.28 52.4299 114.08 53.2299C115.58 54.7299 116.48 56.8299 116.48 59.0299C116.48 61.2299 115.58 63.3299 114.08 64.8299ZM112.98 59.0299C112.98 57.7299 112.58 56.4299 111.68 55.4299C111.28 54.9299 110.78 54.6299 110.18 54.3299C109.58 54.0299 108.98 53.9299 108.38 53.9299C107.78 53.9299 107.08 54.0299 106.58 54.3299C105.98 54.6299 105.48 55.0299 105.08 55.5299C104.58 56.0299 104.28 56.5299 104.08 57.2299C103.88 57.8299 103.78 58.5299 103.78 59.1299C103.78 60.4299 104.28 61.7299 105.08 62.7299C105.48 63.2299 105.98 63.5299 106.58 63.8299C107.18 64.1299 107.78 64.2299 108.38 64.2299C108.98 64.2299 109.68 64.1299 110.18 63.8299C110.78 63.5299 111.28 63.1299 111.68 62.6299C112.48 61.7299 112.98 60.4299 112.98 59.0299ZM133.68 57.0299L129.38 65.7299H127.28L122.98 57.0299V67.0299H119.48V51.2299H124.28L128.38 59.9299L132.48 51.2299H137.28V67.1299H133.78L133.68 57.0299ZM152.08 52.7299C152.68 53.2299 153.18 53.9299 153.48 54.7299C153.78 55.5299 153.88 56.3299 153.78 57.1299C153.78 59.1299 153.18 60.5299 152.08 61.4299C150.98 62.4299 149.18 62.7299 146.88 62.7299H144.78V67.1299H141.18V51.2299H146.78C149.18 51.2299 150.88 51.7299 152.08 52.7299ZM149.48 58.9299C149.98 58.3299 150.18 57.6299 150.18 56.8299C150.18 56.4299 150.18 56.1299 149.98 55.7299C149.78 55.4299 149.58 55.1299 149.28 54.9299C148.48 54.5299 147.58 54.3299 146.68 54.3299H144.68V59.6299H147.08C147.48 59.6299 147.98 59.6299 148.38 59.5299C148.78 59.3299 149.18 59.1299 149.48 58.9299ZM160.78 62.9299C161.08 63.3299 161.38 63.5299 161.88 63.7299C162.28 63.9299 162.78 64.0299 163.18 64.0299C163.68 64.0299 164.08 63.9299 164.48 63.7299C164.88 63.5299 165.28 63.2299 165.58 62.9299C166.18 62.0299 166.48 60.9299 166.48 59.9299V51.1299H169.98V59.9299C170.08 60.9299 169.88 61.8299 169.58 62.8299C169.28 63.7299 168.78 64.6299 168.08 65.3299C166.78 66.5299 164.98 67.1299 163.18 67.1299C161.38 67.1299 159.68 66.4299 158.38 65.2299C157.68 64.5299 157.18 63.6299 156.88 62.7299C156.58 61.8299 156.38 60.8299 156.48 59.8299V51.0299H159.98V59.8299C159.78 60.9299 160.08 62.0299 160.78 62.9299ZM180.28 54.3299V67.0299H176.78V54.3299H172.28V51.3299H184.88V54.3299H180.28ZM187.38 51.2299H190.88V67.1299H187.38V51.2299ZM205.88 51.2299H209.38V67.1299H205.88L198.38 57.2299V67.1299H194.88V51.2299H198.18L205.98 61.4299L205.88 51.2299ZM223.68 59.0299H227.18V64.6299C226.38 65.5299 225.28 66.2299 224.18 66.6299C223.08 67.1299 221.78 67.3299 220.58 67.2299C218.38 67.2299 216.28 66.4299 214.68 64.9299C213.88 64.2299 213.28 63.3299 212.88 62.3299C212.48 61.3299 212.28 60.2299 212.28 59.1299C212.28 58.0299 212.48 56.9299 212.88 55.9299C213.28 54.9299 213.88 54.0299 214.68 53.2299C215.48 52.4299 216.38 51.8299 217.38 51.4299C218.38 51.0299 219.48 50.8299 220.58 50.8299C222.78 50.8299 224.88 51.6299 226.48 53.1299L224.68 55.8299C224.18 55.2299 223.48 54.8299 222.68 54.6299C222.08 54.4299 221.38 54.2299 220.78 54.2299C219.48 54.2299 218.28 54.7299 217.38 55.5299C216.88 56.0299 216.48 56.5299 216.28 57.2299C216.08 57.9299 215.88 58.5299 215.98 59.2299C215.98 60.5299 216.38 61.8299 217.28 62.8299C217.68 63.2299 218.18 63.6299 218.68 63.8299C219.18 64.0299 219.78 64.1299 220.38 64.1299C221.48 64.2299 222.48 63.9299 223.38 63.4299V58.9299H223.68V59.0299ZM247.18 51.2299V54.3299H239.88V57.7299H246.78V60.9299H239.88V67.1299H236.38V51.2299H247.18ZM263.58 64.8299C261.98 66.3299 259.88 67.2299 257.68 67.2299C256.58 67.2299 255.48 67.0299 254.48 66.6299C253.48 66.2299 252.58 65.6299 251.78 64.8299C250.28 63.3299 249.38 61.2299 249.38 59.0299C249.38 56.8299 250.28 54.7299 251.78 53.2299C253.38 51.7299 255.48 50.8299 257.68 50.8299C258.78 50.8299 259.88 51.0299 260.88 51.4299C261.88 51.8299 262.78 52.4299 263.58 53.2299C265.08 54.7299 265.98 56.8299 265.98 59.0299C265.98 61.2299 265.08 63.3299 263.58 64.8299ZM262.28 59.0299C262.28 57.7299 261.88 56.4299 260.98 55.4299C260.58 54.9299 260.08 54.6299 259.48 54.3299C258.88 54.0299 258.28 53.9299 257.68 53.9299C257.08 53.9299 256.38 54.0299 255.88 54.3299C255.28 54.6299 254.78 55.0299 254.38 55.5299C253.88 56.0299 253.58 56.5299 253.38 57.2299C253.18 57.9299 253.08 58.5299 253.08 59.1299C253.08 60.4299 253.58 61.7299 254.38 62.7299C254.78 63.2299 255.28 63.5299 255.88 63.8299C256.48 64.1299 257.08 64.2299 257.68 64.2299C258.28 64.2299 258.98 64.1299 259.48 63.8299C260.08 63.5299 260.58 63.1299 260.98 62.6299C261.48 62.1299 261.78 61.6299 261.98 60.9299C262.18 60.2299 262.38 59.7299 262.28 59.0299ZM273.18 62.9299C273.48 63.3299 273.78 63.5299 274.28 63.7299C274.68 63.9299 275.18 64.0299 275.58 64.0299C275.98 64.0299 276.48 63.9299 276.88 63.7299C277.28 63.5299 277.68 63.2299 277.98 62.9299C278.58 62.0299 278.88 60.9299 278.88 59.9299V51.1299H282.38V59.9299C282.48 60.9299 282.28 61.8299 281.98 62.8299C281.68 63.7299 281.18 64.6299 280.48 65.3299C279.18 66.5299 277.38 67.1299 275.58 67.1299C273.78 67.1299 272.08 66.4299 270.78 65.2299C270.08 64.5299 269.58 63.6299 269.28 62.7299C268.98 61.8299 268.78 60.8299 268.88 59.8299V51.0299H272.38V59.8299C272.18 60.9299 272.48 62.1299 273.18 62.9299ZM297.08 51.2299H300.58V67.1299H297.08L289.58 57.2299V67.1299H286.08V51.2299H289.38L297.18 61.4299L297.08 51.2299ZM316.58 53.3299C317.38 54.0299 317.98 55.0299 318.38 56.0299C318.78 57.0299 318.98 58.1299 318.88 59.1299C318.98 60.2299 318.78 61.2299 318.38 62.2299C317.98 63.2299 317.38 64.1299 316.68 64.9299C315.28 66.3299 312.98 67.1299 309.88 67.1299H304.48V51.2299H310.08C312.98 51.2299 315.18 51.9299 316.58 53.3299ZM313.98 62.8299C314.38 62.3299 314.78 61.8299 314.98 61.2299C315.18 60.6299 315.28 59.9299 315.28 59.3299C315.28 58.6299 315.18 58.0299 314.98 57.4299C314.78 56.8299 314.38 56.2299 313.98 55.7299C313.38 55.2299 312.78 54.9299 312.08 54.7299C311.38 54.5299 310.68 54.4299 309.98 54.5299H307.98V64.1299H310.28C311.58 64.0299 312.98 63.6299 313.98 62.8299ZM332.78 67.0299L331.38 63.6299H324.68L323.28 67.0299H319.48L326.38 51.1299H329.78L336.68 67.0299H332.78ZM327.98 55.9299L325.98 60.5299H329.98L327.98 55.9299ZM343.98 54.3299V67.0299H340.48V54.3299H335.88V51.3299H348.48V54.3299H343.98ZM350.98 51.2299H354.48V67.1299H350.98V51.2299ZM371.78 64.8299C370.18 66.3299 368.08 67.2299 365.88 67.2299C364.78 67.2299 363.68 67.0299 362.68 66.6299C361.68 66.2299 360.78 65.6299 359.98 64.8299C358.48 63.3299 357.58 61.2299 357.58 59.0299C357.58 56.8299 358.48 54.7299 359.98 53.2299C361.58 51.7299 363.68 50.8299 365.88 50.8299C366.98 50.8299 368.08 51.0299 369.08 51.4299C370.08 51.8299 370.98 52.4299 371.78 53.2299C373.28 54.7299 374.18 56.8299 374.18 59.0299C374.18 61.2299 373.28 63.3299 371.78 64.8299ZM370.68 59.0299C370.68 57.7299 370.18 56.4299 369.38 55.4299C368.98 54.9299 368.48 54.6299 367.88 54.3299C367.28 54.0299 366.68 53.9299 366.08 53.9299C365.48 53.9299 364.78 54.0299 364.28 54.3299C363.68 54.6299 363.18 55.0299 362.78 55.5299C362.28 56.0299 361.98 56.5299 361.78 57.2299C361.58 57.9299 361.48 58.5299 361.48 59.1299C361.48 60.4299 361.98 61.7299 362.78 62.7299C363.18 63.2299 363.68 63.5299 364.28 63.8299C364.88 64.1299 365.48 64.2299 366.08 64.2299C366.68 64.2299 367.38 64.1299 367.88 63.8299C368.48 63.5299 368.98 63.1299 369.38 62.6299C370.18 61.7299 370.68 60.4299 370.68 59.0299ZM388.28 51.2299H391.78V67.1299H388.28L380.78 57.2299V67.1299H377.18V51.2299H380.48L388.28 61.4299C388.38 61.4299 388.28 51.2299 388.28 51.2299Z" fill="white"/>
<path d="M16.3802 48.23H7.68018V68.53H27.9802V59.83H16.3802V48.23ZM59.9802 48.33V59.83H48.3802V68.53H68.6802V48.23L59.9802 48.33ZM7.68018 28.03H16.4802L16.3802 27.93V16.43H27.9802V7.72998H7.68018V28.03ZM48.3802 7.72998V16.43H59.9802V28.03H68.6802V7.72998H48.3802Z" fill="#0086FF"/>
<path d="M47.1802 28.03L35.5802 16.43H48.2802V7.72998H27.9802V16.43L39.5802 28.03H47.1802ZM36.7802 48.23H29.1802L38.7802 57.83L40.6802 59.83H27.9802V68.53H48.3802V59.73L42.5802 54.03L36.7802 48.23ZM59.9802 28.03V40.63L57.9802 38.63L48.3802 29.03V36.73L54.0802 42.43L59.8802 48.23H68.6802V28.03H59.9802ZM27.9802 39.53L16.4802 28.03H7.68018V48.23H16.3802V35.63L27.9802 47.23V39.53Z" fill="#93EAFF"/>
</svg>
