<svg width="61" height="61" viewBox="0 0 61 61" fill="none" xmlns="http://www.w3.org/2000/svg">
<path d="M10.4053 47.7158V15.7158C10.4053 12.9156 10.4053 11.5154 10.9502 10.4459C11.4296 9.50505 12.1945 8.74015 13.1353 8.2608C14.2049 7.71582 15.605 7.71582 18.4053 7.71582H42.4053C45.2055 7.71582 46.6058 7.71582 47.6753 8.2608C48.616 8.74015 49.381 9.50505 49.8603 10.4459C50.4053 11.5154 50.4053 12.9156 50.4053 15.7158V42.7158H15.4053C12.6438 42.7158 10.4053 44.9543 10.4053 47.7158ZM10.4053 47.7158C10.4053 50.4773 12.6438 52.7158 15.4053 52.7158H50.4053M22.9053 17.7158H37.9053M22.9053 27.7158H37.9053M47.9053 42.7158V52.7158" stroke="black" stroke-width="5" stroke-linecap="round" stroke-linejoin="round"/>
</svg>
