<svg width="61" height="61" viewBox="0 0 61 61" fill="none" xmlns="http://www.w3.org/2000/svg">
<path d="M8.22266 30.0161H43.2227" stroke="black" stroke-width="5" stroke-linecap="round" stroke-linejoin="round"/>
<path d="M33.2227 40.0161L43.2227 30.0161L33.2227 20.0161" stroke="black" stroke-width="5" stroke-linecap="round" stroke-linejoin="round"/>
<path d="M23.2227 20.0161V10.0161C23.2227 9.35307 23.486 8.71719 23.9549 8.24835C24.4237 7.77951 25.0596 7.51611 25.7227 7.51611H50.7227C51.3857 7.51611 52.0216 7.77951 52.4904 8.24835C52.9593 8.71719 53.2227 9.35307 53.2227 10.0161V50.0161C53.2227 50.6792 52.9593 51.315 52.4904 51.7839C52.0216 52.2527 51.3857 52.5161 50.7227 52.5161H25.7227C25.0596 52.5161 24.4237 52.2527 23.9549 51.7839C23.486 51.315 23.2227 50.6792 23.2227 50.0161V40.0161" stroke="black" stroke-width="5" stroke-linecap="round" stroke-linejoin="round"/>
</svg>
