<svg width="61" height="61" viewBox="0 0 61 61" fill="none" xmlns="http://www.w3.org/2000/svg">
<path d="M38.071 43.7278C34.8085 43.7278 32.1629 41.0822 32.1629 37.8197C32.1629 34.5572 34.8085 31.9115 38.071 31.9115H52.8629C56.1254 31.9115 58.771 34.5572 58.771 37.8197C58.771 41.0822 56.1254 43.7278 52.8629 43.7278H38.071ZM38.071 46.6997C41.3317 46.6997 43.9754 49.3434 43.9754 52.604C43.9754 55.8647 41.3317 58.5084 38.071 58.5084C34.8123 58.5084 32.1685 55.8684 32.1667 52.6097V46.6997H38.071ZM43.9829 22.9828C43.9829 26.2453 41.3373 28.8909 38.0748 28.8909C34.8123 28.8909 32.1667 26.2453 32.1667 22.9828V8.19279C32.1667 4.93029 34.8123 2.28467 38.0748 2.28467C41.3373 2.28467 43.9829 4.93029 43.9829 8.19279V22.9828ZM46.9548 22.9828C46.9567 19.724 49.5985 17.0822 52.8573 17.0822C56.116 17.0822 58.7598 19.7259 58.7598 22.9865C58.7598 26.2453 56.1198 28.8872 52.8629 28.8909H46.9529L46.9548 22.9828ZM23.2379 17.0747C26.4929 17.084 29.1292 19.724 29.1292 22.9809C29.1292 26.2378 26.4929 28.8797 23.2379 28.8872H8.4479C5.1929 28.8778 2.55665 26.2378 2.55665 22.9809C2.55665 19.724 5.1929 17.0822 8.4479 17.0747H23.2379ZM23.2379 14.0972C19.9829 14.0934 17.3448 11.4534 17.3448 8.19654C17.3448 4.93779 19.9867 2.29592 23.2454 2.29592C26.5042 2.29592 29.1423 4.93592 29.146 8.19092V14.0953L23.2379 14.0972ZM17.3298 37.8159C17.3391 34.5609 19.9792 31.9247 23.236 31.9247C26.4929 31.9247 29.1348 34.5609 29.1423 37.8159V52.6078C29.1329 55.8628 26.4929 58.499 23.236 58.499C19.9792 58.499 17.3373 55.8628 17.3298 52.6078V37.8159ZM14.3523 37.8159C14.3504 41.0728 11.7085 43.7128 8.45165 43.7128C5.19478 43.7128 2.55103 41.0709 2.55103 37.8122C2.55103 34.5534 5.19103 31.9134 8.4479 31.9115H14.3523V37.8159Z" fill="black"/>
</svg>
