<?xml version="1.0" encoding="UTF-8"?>
<!DOCTYPE svg PUBLIC "-//W3C//DTD SVG 1.1//EN" "http://www.w3.org/Graphics/SVG/1.1/DTD/svg11.dtd">
<svg xmlns="http://www.w3.org/2000/svg" version="1.1" width="180px" height="180px" style="shape-rendering:geometricPrecision; text-rendering:geometricPrecision; image-rendering:optimizeQuality; fill-rule:evenodd; clip-rule:evenodd" xmlns:xlink="http://www.w3.org/1999/xlink">
<g><path style="opacity:1" fill="#b3f3ba" d="M 66.5,2.5 C 63.4954,4.2766 60.1621,5.2766 56.5,5.5C 59.5046,3.7234 62.8379,2.7234 66.5,2.5 Z"/></g>
<g><path style="opacity:1" fill="#82f797" d="M 76.5,0.5 C 81.1667,0.5 85.8333,0.5 90.5,0.5C 90.5,4.16667 90.5,7.83333 90.5,11.5C 89.596,10.791 89.2627,9.79105 89.5,8.5C 86.5772,10.0674 83.7438,11.0674 81,11.5C 79.6739,11.2451 78.6739,10.5784 78,9.5C 75.3468,9.68195 72.6801,10.0153 70,10.5C 65.1965,8.98375 60.3632,7.98375 55.5,7.5C 55.8333,6.83333 56.1667,6.16667 56.5,5.5C 60.1621,5.2766 63.4954,4.2766 66.5,2.5C 69.5443,0.988643 72.8776,0.321976 76.5,0.5 Z"/></g>
<g><path style="opacity:1" fill="#9ef3bc" d="M 76.5,0.5 C 76.5,0.166667 76.5,-0.166667 76.5,-0.5C 81.5,-0.5 86.5,-0.5 91.5,-0.5C 91.824,6.3543 91.4907,13.021 90.5,19.5C 90.5,19.1667 90.5,18.8333 90.5,18.5C 90.5,16.1667 90.5,13.8333 90.5,11.5C 90.5,7.83333 90.5,4.16667 90.5,0.5C 85.8333,0.5 81.1667,0.5 76.5,0.5 Z"/></g>
<g><path style="opacity:1" fill="#7af49a" d="M 55.5,7.5 C 60.3632,7.98375 65.1965,8.98375 70,10.5C 72.6801,10.0153 75.3468,9.68195 78,9.5C 78.6739,10.5784 79.6739,11.2451 81,11.5C 83.7438,11.0674 86.5772,10.0674 89.5,8.5C 89.2627,9.79105 89.596,10.791 90.5,11.5C 90.5,13.8333 90.5,16.1667 90.5,18.5C 89.596,17.791 89.2627,16.791 89.5,15.5C 83.0342,14.1697 76.2009,13.503 69,13.5C 61.9232,13.5086 54.9232,13.8419 48,14.5C 47.51,13.2068 47.3433,11.8734 47.5,10.5C 50.3539,9.97442 53.0206,8.97442 55.5,7.5 Z"/></g>
<g><path style="opacity:1" fill="#95eea6" d="M 56.5,5.5 C 56.1667,6.16667 55.8333,6.83333 55.5,7.5C 53.0206,8.97442 50.3539,9.97442 47.5,10.5C 47.5,10.1667 47.5,9.83333 47.5,9.5C 50.0884,7.40821 53.0884,6.07488 56.5,5.5 Z"/></g>
<g><path style="opacity:1" fill="#bdf4d4" d="M 104.5,0.5 C 113.058,1.79695 121.058,4.46362 128.5,8.5C 130.485,10.9961 132.819,13.1628 135.5,15C 134.844,17.3304 135.844,18.9971 138.5,20C 136.416,20.6972 134.749,21.8639 133.5,23.5C 133.158,24.3382 132.492,24.6716 131.5,24.5C 131.611,23.8826 131.944,23.3826 132.5,23C 128.854,16.4809 124.188,10.9809 118.5,6.5C 115.397,4.61572 112.063,3.28239 108.5,2.5C 106.62,2.77089 105.287,2.10422 104.5,0.5 Z"/></g>
<g><path style="opacity:1" fill="#78f1a2" d="M 47.5,10.5 C 47.3433,11.8734 47.51,13.2068 48,14.5C 54.9232,13.8419 61.9232,13.5086 69,13.5C 76.2009,13.503 83.0342,14.1697 89.5,15.5C 87.8877,14.5477 86.3877,14.2144 85,14.5C 83.8289,15.8932 82.3289,16.7265 80.5,17C 69.424,17.189 58.424,17.689 47.5,18.5C 46.1667,15.8333 46.1667,13.1667 47.5,10.5 Z"/></g>
<g><path style="opacity:1" fill="#8cf4a9" d="M 101.5,0.5 C 101.833,0.5 102.167,0.5 102.5,0.5C 103.333,2.82894 105,4.32894 107.5,5C 107.167,5.33333 106.833,5.66667 106.5,6C 107.128,8.8003 108.128,11.467 109.5,14C 107.088,18.1486 103.921,18.6486 100,15.5C 99.7216,16.4158 99.2216,17.0825 98.5,17.5C 98.5,11.8333 98.5,6.16667 98.5,0.5C 99.5,0.5 100.5,0.5 101.5,0.5 Z"/></g>
<g><path style="opacity:1" fill="#8ff2b2" d="M 102.5,0.5 C 103.167,0.5 103.833,0.5 104.5,0.5C 105.287,2.10422 106.62,2.77089 108.5,2.5C 111.451,5.46726 114.117,8.80059 116.5,12.5C 116.333,12.8333 116.167,13.1667 116,13.5C 115.163,11.9926 113.996,11.4926 112.5,12C 114.143,15.64 113.476,18.8066 110.5,21.5C 109.167,20.5 107.833,19.5 106.5,18.5C 105.378,19.6302 104.044,20.2969 102.5,20.5C 100.77,19.9744 99.4363,18.9744 98.5,17.5C 99.2216,17.0825 99.7216,16.4158 100,15.5C 103.921,18.6486 107.088,18.1486 109.5,14C 108.128,11.467 107.128,8.8003 106.5,6C 106.833,5.66667 107.167,5.33333 107.5,5C 105,4.32894 103.333,2.82894 102.5,0.5 Z"/></g>
<g><path style="opacity:1" fill="#c9f1e2" d="M 128.5,8.5 C 133.343,10.4176 137.677,13.0843 141.5,16.5C 140.644,20.6352 137.977,22.9685 133.5,23.5C 134.749,21.8639 136.416,20.6972 138.5,20C 135.844,18.9971 134.844,17.3304 135.5,15C 132.819,13.1628 130.485,10.9961 128.5,8.5 Z"/></g>
<g><path style="opacity:1" fill="#76eea6" d="M 89.5,15.5 C 89.2627,16.791 89.596,17.791 90.5,18.5C 90.5,18.8333 90.5,19.1667 90.5,19.5C 88.9505,20.4408 87.2838,21.1075 85.5,21.5C 84.8485,20.9094 84.1818,20.2427 83.5,19.5C 71.8335,20.8125 60.1668,20.8125 48.5,19.5C 47.8333,19.5 47.5,19.1667 47.5,18.5C 58.424,17.689 69.424,17.189 80.5,17C 82.3289,16.7265 83.8289,15.8932 85,14.5C 86.3877,14.2144 87.8877,14.5477 89.5,15.5 Z"/></g>
<g><path style="opacity:1" fill="#abf3cb" d="M 118.5,6.5 C 124.188,10.9809 128.854,16.4809 132.5,23C 131.944,23.3826 131.611,23.8826 131.5,24.5C 131.167,24.5 130.833,24.5 130.5,24.5C 129.167,22.5 127.5,20.8333 125.5,19.5C 124.619,17.0335 122.786,14.7002 120,12.5C 119.187,10.5643 118.687,8.56429 118.5,6.5 Z"/></g>
<g><path style="opacity:1" fill="#76ebae" d="M 48.5,19.5 C 60.1668,20.8125 71.8335,20.8125 83.5,19.5C 84.1818,20.2427 84.8485,20.9094 85.5,21.5C 84.3406,23.2503 82.674,24.2503 80.5,24.5C 72.1301,23.6071 63.7967,23.2738 55.5,23.5C 52.6689,22.9213 50.3356,21.588 48.5,19.5 Z"/></g>
<g><path style="opacity:1" fill="#e6f6fb" d="M 47.5,9.5 C 47.5,9.83333 47.5,10.1667 47.5,10.5C 46.1667,13.1667 46.1667,15.8333 47.5,18.5C 47.5,19.1667 47.8333,19.5 48.5,19.5C 50.3356,21.588 52.6689,22.9213 55.5,23.5C 58.961,26.0692 62.6277,28.4026 66.5,30.5C 65.1667,32.5 63.5,34.1667 61.5,35.5C 60.1667,35.1667 58.8333,34.8333 57.5,34.5C 56.3406,32.7497 54.674,31.7497 52.5,31.5C 49.0286,28.9268 45.362,26.5935 41.5,24.5C 37.1463,26.3394 33.1463,28.6728 29.5,31.5C 27.9731,31.427 26.9731,32.0937 26.5,33.5C 24.1475,34.3403 22.1475,35.6736 20.5,37.5C 20.1667,37.5 19.8333,37.5 19.5,37.5C 18.6618,37.8417 18.3284,38.5084 18.5,39.5C 17.1667,39.8333 17.1667,40.1667 18.5,40.5C 18.6662,46.8421 18.4995,53.1754 18,59.5C 16.8549,60.6364 15.6883,61.6364 14.5,62.5C 14.1667,62.5 13.8333,62.5 13.5,62.5C 13.5,62.1667 13.5,61.8333 13.5,61.5C 13.5,60.8333 13.1667,60.5 12.5,60.5C 13.6285,44.5406 11.9619,43.8739 7.5,58.5C 6.83333,58.1667 6.16667,57.8333 5.5,57.5C 13.4482,36.2176 27.4482,20.2176 47.5,9.5 Z M 38.5,17.5 C 39.7733,18.0768 39.7733,18.7435 38.5,19.5C 37.3801,20.8334 36.0468,21.3334 34.5,21C 35.7305,19.5952 37.0639,18.4286 38.5,17.5 Z"/></g>
<g><path style="opacity:1" fill="#95f0be" d="M 108.5,2.5 C 112.063,3.28239 115.397,4.61572 118.5,6.5C 118.687,8.56429 119.187,10.5643 120,12.5C 122.786,14.7002 124.619,17.0335 125.5,19.5C 125.5,21.5 125.5,23.5 125.5,25.5C 124.178,25.67 123.011,25.3366 122,24.5C 121.692,25.3081 121.192,25.9747 120.5,26.5C 118.803,25.6364 117.637,24.3031 117,22.5C 115.221,24.9302 113.054,25.5969 110.5,24.5C 107.515,23.6743 104.849,22.341 102.5,20.5C 104.044,20.2969 105.378,19.6302 106.5,18.5C 107.833,19.5 109.167,20.5 110.5,21.5C 113.476,18.8066 114.143,15.64 112.5,12C 113.996,11.4926 115.163,11.9926 116,13.5C 116.167,13.1667 116.333,12.8333 116.5,12.5C 114.117,8.80059 111.451,5.46726 108.5,2.5 Z"/></g>
<g><path style="opacity:1" fill="#75e6b5" d="M 55.5,23.5 C 63.7967,23.2738 72.1301,23.6071 80.5,24.5C 77.4022,26.8916 74.0689,29.0583 70.5,31C 69.0715,31.5791 67.7382,31.4124 66.5,30.5C 62.6277,28.4026 58.961,26.0692 55.5,23.5 Z"/></g>
<g><path style="opacity:1" fill="#76e3bd" d="M 52.5,31.5 C 44.9181,31.5613 37.2515,31.5613 29.5,31.5C 33.1463,28.6728 37.1463,26.3394 41.5,24.5C 45.362,26.5935 49.0286,28.9268 52.5,31.5 Z"/></g>
<g><path style="opacity:1" fill="#e3f7fb" d="M 91.5,-0.5 C 94.8333,-0.5 98.1667,-0.5 101.5,-0.5C 101.5,-0.166667 101.5,0.166667 101.5,0.5C 100.5,0.5 99.5,0.5 98.5,0.5C 98.5,6.16667 98.5,11.8333 98.5,17.5C 99.4363,18.9744 100.77,19.9744 102.5,20.5C 104.849,22.341 107.515,23.6743 110.5,24.5C 113.476,26.9925 116.809,28.9925 120.5,30.5C 124.487,29.5099 127.82,27.5099 130.5,24.5C 130.833,24.5 131.167,24.5 131.5,24.5C 132.492,24.6716 133.158,24.3382 133.5,23.5C 137.977,22.9685 140.644,20.6352 141.5,16.5C 145.291,19.1181 148.957,21.9514 152.5,25C 153.823,25.8159 154.489,26.9826 154.5,28.5C 153.167,28.1667 151.833,27.8333 150.5,27.5C 148.145,26.9056 145.978,25.9056 144,24.5C 142.699,24.6387 141.866,25.3054 141.5,26.5C 139.181,26.9925 137.181,27.9925 135.5,29.5C 131.827,31.0002 128.494,33.0002 125.5,35.5C 123.973,35.427 122.973,36.0937 122.5,37.5C 121.527,39.9479 121.194,42.6146 121.5,45.5C 121.5,49.8333 121.5,54.1667 121.5,58.5C 120.71,59.6085 120.21,60.9419 120,62.5C 118.385,61.6138 116.885,60.6138 115.5,59.5C 115.5,58.5 115.5,57.5 115.5,56.5C 115.5,54.8333 115.5,53.1667 115.5,51.5C 115.5,49.5 115.5,47.5 115.5,45.5C 115.5,43.8333 115.5,42.1667 115.5,40.5C 115.768,38.901 115.434,37.5676 114.5,36.5C 112.167,35.1667 109.833,33.8333 107.5,32.5C 106.167,31.8333 104.833,31.1667 103.5,30.5C 100.291,28.7349 97.2911,26.7349 94.5,24.5C 90.2245,25.9711 86.2245,27.9711 82.5,30.5C 80.1184,31.3507 78.1184,32.684 76.5,34.5C 74.7162,34.8925 73.0495,35.5592 71.5,36.5C 70.8333,36.5 70.5,36.8333 70.5,37.5C 69.8334,45.6763 69.1667,54.0096 68.5,62.5C 67.8333,62.1667 67.1667,61.8333 66.5,61.5C 65.8328,58.0227 65.1661,54.6893 64.5,51.5C 64.8195,46.6367 64.4861,41.97 63.5,37.5C 62.8333,36.8333 62.1667,36.1667 61.5,35.5C 63.5,34.1667 65.1667,32.5 66.5,30.5C 67.7382,31.4124 69.0715,31.5791 70.5,31C 74.0689,29.0583 77.4022,26.8916 80.5,24.5C 82.674,24.2503 84.3406,23.2503 85.5,21.5C 87.2838,21.1075 88.9505,20.4408 90.5,19.5C 91.4907,13.021 91.824,6.3543 91.5,-0.5 Z"/></g>
<g><path style="opacity:1" fill="#71e2bb" d="M 94.5,24.5 C 97.2911,26.7349 100.291,28.7349 103.5,30.5C 103.539,31.7562 103.039,32.7562 102,33.5C 95.7401,31.4283 89.4067,31.095 83,32.5C 82.5357,31.9056 82.369,31.2389 82.5,30.5C 86.2245,27.9711 90.2245,25.9711 94.5,24.5 Z"/></g>
<g><path style="opacity:1" fill="#8eeac6" d="M 125.5,19.5 C 127.5,20.8333 129.167,22.5 130.5,24.5C 127.82,27.5099 124.487,29.5099 120.5,30.5C 116.809,28.9925 113.476,26.9925 110.5,24.5C 113.054,25.5969 115.221,24.9302 117,22.5C 117.637,24.3031 118.803,25.6364 120.5,26.5C 121.192,25.9747 121.692,25.3081 122,24.5C 123.011,25.3366 124.178,25.67 125.5,25.5C 125.5,23.5 125.5,21.5 125.5,19.5 Z"/></g>
<g><path style="opacity:1" fill="#6edebf" d="M 29.5,31.5 C 37.2515,31.5613 44.9181,31.5613 52.5,31.5C 54.674,31.7497 56.3406,32.7497 57.5,34.5C 47.5771,35.64 37.5771,35.8066 27.5,35C 26.944,34.6174 26.6107,34.1174 26.5,33.5C 26.9731,32.0937 27.9731,31.427 29.5,31.5 Z"/></g>
<g><path style="opacity:1" fill="#6edebf" d="M 82.5,30.5 C 82.369,31.2389 82.5357,31.9056 83,32.5C 89.4067,31.095 95.7401,31.4283 102,33.5C 103.039,32.7562 103.539,31.7562 103.5,30.5C 104.833,31.1667 106.167,31.8333 107.5,32.5C 105.695,34.1969 103.361,35.0302 100.5,35C 92.3225,35.8228 84.3225,35.6561 76.5,34.5C 78.1184,32.684 80.1184,31.3507 82.5,30.5 Z"/></g>
<g><path style="opacity:1" fill="#95e6d3" d="M 135.5,29.5 C 136.847,30.1712 138.014,30.1712 139,29.5C 141,31.5 141,33.5 139,35.5C 138.586,35.0426 138.086,34.7093 137.5,34.5C 136.818,35.2427 136.151,35.9094 135.5,36.5C 134.312,37.6843 133.145,37.6843 132,36.5C 129.801,38.4548 127.301,38.6215 124.5,37C 125.056,36.6174 125.389,36.1174 125.5,35.5C 128.494,33.0002 131.827,31.0002 135.5,29.5 Z"/></g>
<g><path style="opacity:1" fill="#bff0e7" d="M 150.5,27.5 C 152.094,31.1658 154.094,34.6658 156.5,38C 156.011,39.1385 155.678,40.3052 155.5,41.5C 153.708,41.634 152.042,41.3007 150.5,40.5C 149.298,38.6075 147.965,36.7742 146.5,35C 147.167,34.6667 147.833,34.3333 148.5,34C 145.741,31.7607 143.408,29.2607 141.5,26.5C 141.866,25.3054 142.699,24.6387 144,24.5C 145.978,25.9056 148.145,26.9056 150.5,27.5 Z"/></g>
<g><path style="opacity:1" fill="#6bdac4" d="M 26.5,33.5 C 26.6107,34.1174 26.944,34.6174 27.5,35C 37.5771,35.8066 47.5771,35.64 57.5,34.5C 58.8333,34.8333 60.1667,35.1667 61.5,35.5C 62.1667,36.1667 62.8333,36.8333 63.5,37.5C 63.5,38.5 63.5,39.5 63.5,40.5C 49.7448,38.5446 35.7448,37.878 21.5,38.5C 21.5,39.5 21.5,40.5 21.5,41.5C 20.5655,40.4324 20.2322,39.099 20.5,37.5C 22.1475,35.6736 24.1475,34.3403 26.5,33.5 Z"/></g>
<g><path style="opacity:1" fill="#6ddac5" d="M 107.5,32.5 C 109.833,33.8333 112.167,35.1667 114.5,36.5C 114.719,37.675 114.386,38.675 113.5,39.5C 111.34,39.3158 109.007,38.6491 106.5,37.5C 95.1986,38.4573 83.8653,38.7906 72.5,38.5C 72.5,39.5 72.5,40.5 72.5,41.5C 71.5489,40.0813 71.2155,38.4147 71.5,36.5C 73.0495,35.5592 74.7162,34.8925 76.5,34.5C 84.3225,35.6561 92.3225,35.8228 100.5,35C 103.361,35.0302 105.695,34.1969 107.5,32.5 Z"/></g>
<g><path style="opacity:1" fill="#9ee6dc" d="M 141.5,26.5 C 143.408,29.2607 145.741,31.7607 148.5,34C 147.833,34.3333 147.167,34.6667 146.5,35C 147.965,36.7742 149.298,38.6075 150.5,40.5C 148.801,40.3398 147.134,40.5065 145.5,41C 146.171,41.9862 146.171,43.1529 145.5,44.5C 143.914,43.3247 142.414,41.9914 141,40.5C 137.766,41.4644 135.933,40.1311 135.5,36.5C 136.151,35.9094 136.818,35.2427 137.5,34.5C 138.086,34.7093 138.586,35.0426 139,35.5C 141,33.5 141,31.5 139,29.5C 138.014,30.1712 136.847,30.1712 135.5,29.5C 137.181,27.9925 139.181,26.9925 141.5,26.5 Z"/></g>
<g><path style="opacity:1" fill="#69d6ca" d="M 114.5,36.5 C 115.434,37.5676 115.768,38.901 115.5,40.5C 114.732,41.2625 114.232,42.2625 114,43.5C 113,42.8333 112,42.1667 111,41.5C 98.0688,42.8297 85.2354,42.8297 72.5,41.5C 72.5,40.5 72.5,39.5 72.5,38.5C 83.8653,38.7906 95.1986,38.4573 106.5,37.5C 109.007,38.6491 111.34,39.3158 113.5,39.5C 114.386,38.675 114.719,37.675 114.5,36.5 Z"/></g>
<g><path style="opacity:1" fill="#a6e4e4" d="M 150.5,40.5 C 152.042,41.3007 153.708,41.634 155.5,41.5C 156.434,42.5676 156.768,43.901 156.5,45.5C 155.778,46.5511 154.778,47.2178 153.5,47.5C 150.385,47.6061 147.719,46.6061 145.5,44.5C 146.171,43.1529 146.171,41.9862 145.5,41C 147.134,40.5065 148.801,40.3398 150.5,40.5 Z"/></g>
<g><path style="opacity:1" fill="#cdecee" d="M 150.5,27.5 C 151.833,27.8333 153.167,28.1667 154.5,28.5C 159.647,32.9795 163.647,38.3128 166.5,44.5C 166.821,49.6946 166.487,54.6946 165.5,59.5C 165.657,58.1266 165.49,56.7932 165,55.5C 162.302,51.9753 159.469,48.6419 156.5,45.5C 156.768,43.901 156.434,42.5676 155.5,41.5C 155.678,40.3052 156.011,39.1385 156.5,38C 154.094,34.6658 152.094,31.1658 150.5,27.5 Z"/></g>
<g><path style="opacity:1" fill="#83dad6" d="M 125.5,35.5 C 125.389,36.1174 125.056,36.6174 124.5,37C 127.301,38.6215 129.801,38.4548 132,36.5C 133.145,37.6843 134.312,37.6843 135.5,36.5C 135.933,40.1311 137.766,41.4644 141,40.5C 142.414,41.9914 143.914,43.3247 145.5,44.5C 142.849,48.3246 140.349,47.9912 138,43.5C 137.667,44.5 137.333,45.5 137,46.5C 136.086,45.3463 135.253,45.513 134.5,47C 132.833,47.6667 131.167,47.6667 129.5,47C 127.447,45.9197 125.28,45.0864 123,44.5C 122.503,42.1902 122.337,39.8568 122.5,37.5C 122.973,36.0937 123.973,35.427 125.5,35.5 Z"/></g>
<g><path style="opacity:1" fill="#67cfd1" d="M 71.5,36.5 C 71.2155,38.4147 71.5489,40.0813 72.5,41.5C 85.2354,42.8297 98.0688,42.8297 111,41.5C 112,42.1667 113,42.8333 114,43.5C 114.232,42.2625 114.732,41.2625 115.5,40.5C 115.5,42.1667 115.5,43.8333 115.5,45.5C 114.206,46.2899 113.039,47.2899 112,48.5C 97.8857,47.2466 84.0523,47.2466 70.5,48.5C 70.5,44.8333 70.5,41.1667 70.5,37.5C 70.5,36.8333 70.8333,36.5 71.5,36.5 Z"/></g>
<g><path style="opacity:1" fill="#82d5de" d="M 122.5,37.5 C 122.337,39.8568 122.503,42.1902 123,44.5C 125.28,45.0864 127.447,45.9197 129.5,47C 131.167,47.6667 132.833,47.6667 134.5,47C 135.253,45.513 136.086,45.3463 137,46.5C 137.333,45.5 137.667,44.5 138,43.5C 140.349,47.9912 142.849,48.3246 145.5,44.5C 147.719,46.6061 150.385,47.6061 153.5,47.5C 152.766,48.7079 152.433,50.0413 152.5,51.5C 151.549,53.145 149.549,54.145 146.5,54.5C 144.236,53.4187 142.069,52.0854 140,50.5C 138.038,50.0306 136.205,50.6973 134.5,52.5C 130.452,51.4008 126.452,50.4008 122.5,49.5C 122.768,47.901 122.434,46.5676 121.5,45.5C 121.194,42.6146 121.527,39.9479 122.5,37.5 Z"/></g>
<g><path style="opacity:1" fill="#7ab1fc" d="M 5.5,57.5 C 6.16667,57.8333 6.83333,58.1667 7.5,58.5C 9.04953,59.4408 10.7162,60.1075 12.5,60.5C 13.1667,60.5 13.5,60.8333 13.5,61.5C 13.5,61.8333 13.5,62.1667 13.5,62.5C 10.3816,61.7699 7.38162,60.7699 4.5,59.5C 4.32842,58.5084 4.66175,57.8417 5.5,57.5 Z"/></g>
<g><path style="opacity:1" fill="#e1f5fc" d="M 19.5,37.5 C 19.5,40.5 19.5,43.5 19.5,46.5C 19.1818,51.0323 19.5151,55.3656 20.5,59.5C 21.2623,61.2624 22.5956,62.2624 24.5,62.5C 25.8993,63.8897 27.5659,64.8897 29.5,65.5C 33.5098,67.986 37.6765,70.3193 42,72.5C 46.429,69.7026 50.929,67.036 55.5,64.5C 57.0009,63.2485 58.6675,62.2485 60.5,61.5C 61.7095,61.0679 62.7095,60.4013 63.5,59.5C 64.4731,57.0521 64.8064,54.3854 64.5,51.5C 65.1661,54.6893 65.8328,58.0227 66.5,61.5C 67.1667,61.8333 67.8333,62.1667 68.5,62.5C 69.1667,54.0096 69.8334,45.6763 70.5,37.5C 70.5,41.1667 70.5,44.8333 70.5,48.5C 70.5,50.1667 70.5,51.8333 70.5,53.5C 70.2053,55.7354 70.5386,57.7354 71.5,59.5C 72.5137,60.6737 73.847,61.3404 75.5,61.5C 76.9501,63.6099 78.9501,64.9432 81.5,65.5C 84.6606,68.2504 88.3273,70.2504 92.5,71.5C 97.0176,69.4095 101.351,67.0762 105.5,64.5C 107.368,63.7368 109.035,62.7368 110.5,61.5C 112.167,60.8333 113.833,60.1667 115.5,59.5C 116.885,60.6138 118.385,61.6138 120,62.5C 120.21,60.9419 120.71,59.6085 121.5,58.5C 121.5,59.1667 121.833,59.5 122.5,59.5C 126.123,62.415 130.123,64.7484 134.5,66.5C 137.438,68.977 140.771,70.977 144.5,72.5C 146.518,71.1408 148.518,69.8075 150.5,68.5C 153.661,67.0869 156.661,65.4203 159.5,63.5C 161.882,62.6493 163.882,61.316 165.5,59.5C 166.487,54.6946 166.821,49.6946 166.5,44.5C 171.455,51.7535 174.789,59.7535 176.5,68.5C 174.304,67.2366 171.97,66.2366 169.5,65.5C 167.962,65.4534 166.962,66.1201 166.5,67.5C 162.827,69.0002 159.494,71.0002 156.5,73.5C 152.827,75.0002 149.494,77.0002 146.5,79.5C 145.818,83.2001 144.651,86.8668 143,90.5C 142.667,87.8333 142.333,85.1667 142,82.5C 141.828,88.6807 141.328,94.6807 140.5,100.5C 140.5,96.5 140.5,92.5 140.5,88.5C 140.824,84.4454 140.491,80.4454 139.5,76.5C 136.777,74.8116 134.111,73.1449 131.5,71.5C 127.377,68.5687 122.877,66.2353 118,64.5C 112.409,67.3781 106.909,70.3781 101.5,73.5C 101.5,73.8333 101.5,74.1667 101.5,74.5C 99.7162,74.8925 98.0495,75.5592 96.5,76.5C 95.188,84.2653 95.188,91.9319 96.5,99.5C 96.8333,100.167 97.1667,100.833 97.5,101.5C 97.8333,101.5 98.1667,101.5 98.5,101.5C 99.5137,102.674 100.847,103.34 102.5,103.5C 104.336,105.588 106.669,106.921 109.5,107.5C 112.247,110.207 115.58,111.873 119.5,112.5C 118.167,114.167 116.833,115.833 115.5,117.5C 115.167,117.5 114.833,117.5 114.5,117.5C 112.365,115.929 110.032,114.596 107.5,113.5C 106.167,112.833 104.833,112.167 103.5,111.5C 102.71,110.599 101.71,109.932 100.5,109.5C 97.5251,108.345 94.8584,106.678 92.5,104.5C 88.5995,106.608 84.9328,108.941 81.5,111.5C 77.38,112.726 73.7133,114.726 70.5,117.5C 70.1667,117.5 69.8333,117.5 69.5,117.5C 68.1516,116.399 66.6516,115.399 65,114.5C 64.2828,115.044 63.7828,115.711 63.5,116.5C 62.391,116.443 61.391,116.11 60.5,115.5C 54.4274,111.712 48.2607,108.045 42,104.5C 35.8758,107.474 30.0424,110.808 24.5,114.5C 22.5956,114.738 21.2623,115.738 20.5,117.5C 19.3448,124.655 19.1782,131.988 20,139.5C 20.3826,140.056 20.8826,140.389 21.5,140.5C 21.5,140.833 21.5,141.167 21.5,141.5C 20.1667,141.833 20.1667,142.167 21.5,142.5C 21.7512,144.17 22.4178,145.67 23.5,147C 22.9056,147.464 22.2389,147.631 21.5,147.5C 14.5972,139.38 8.93049,130.38 4.5,120.5C 5.5,120.5 6.5,120.5 7.5,120.5C 13.1945,135.092 15.0279,134.092 13,117.5C 12.6174,118.056 12.1174,118.389 11.5,118.5C 10.5833,114.258 7.91661,112.258 3.5,112.5C 3.5,113.5 3.5,114.5 3.5,115.5C 2.00848,111.736 1.00848,107.736 0.5,103.5C 1.87165,104.512 3.20498,105.512 4.5,106.5C 4.5,107.167 4.83333,107.5 5.5,107.5C 6.49162,107.328 7.15829,107.662 7.5,108.5C 7.83333,109.833 8.16667,109.833 8.5,108.5C 9.16667,108.5 9.5,108.833 9.5,109.5C 9.83333,110.833 10.1667,110.833 10.5,109.5C 11.1667,109.5 11.5,109.833 11.5,110.5C 11.8333,111.833 12.1667,111.833 12.5,110.5C 13.4163,110.982 14.4163,111.315 15.5,111.5C 17.7033,110.233 20.0367,109.233 22.5,108.5C 24.3356,106.412 26.6689,105.079 29.5,104.5C 32.7601,102.385 35.7601,100.052 38.5,97.5C 39.8333,97.1667 39.8333,96.8333 38.5,96.5C 38.5,96.1667 38.5,95.8333 38.5,95.5C 39.8333,90.1667 39.8333,84.8333 38.5,79.5C 38.4729,77.8007 37.8062,76.4674 36.5,75.5C 35.5084,75.6716 34.8417,75.3382 34.5,74.5C 32.326,74.2503 30.6594,73.2503 29.5,71.5C 28.5084,71.6716 27.8417,71.3382 27.5,70.5C 25.326,70.2503 23.6594,69.2503 22.5,67.5C 19.4968,66.3338 16.8302,64.6672 14.5,62.5C 15.6883,61.6364 16.8549,60.6364 18,59.5C 18.4995,53.1754 18.6662,46.8421 18.5,40.5C 18.5,40.1667 18.5,39.8333 18.5,39.5C 18.3284,38.5084 18.6618,37.8417 19.5,37.5 Z"/></g>
<g><path style="opacity:1" fill="#97d3ee" d="M 152.5,51.5 C 153.37,53.6361 154.703,55.4695 156.5,57C 155.978,57.5613 155.645,58.228 155.5,59C 156.704,60.6993 158.038,62.1993 159.5,63.5C 156.661,65.4203 153.661,67.0869 150.5,68.5C 149.032,67.2209 148.365,65.5542 148.5,63.5C 147.213,60.5468 145.213,58.2135 142.5,56.5C 143.189,55.2264 144.023,55.2264 145,56.5C 145.717,55.9558 146.217,55.2891 146.5,54.5C 149.549,54.145 151.549,53.145 152.5,51.5 Z"/></g>
<g><path style="opacity:1" fill="#78c6e9" d="M 142.5,56.5 C 145.213,58.2135 147.213,60.5468 148.5,63.5C 146.906,63.0805 145.406,62.4138 144,61.5C 142.53,63.5724 140.53,64.9058 138,65.5C 136.909,63.6542 135.576,62.9875 134,63.5C 133.53,64.5768 133.697,65.5768 134.5,66.5C 130.123,64.7484 126.123,62.415 122.5,59.5C 122.34,57.8008 122.506,56.1341 123,54.5C 124.194,55.4303 125.527,56.0969 127,56.5C 129.073,56.2393 131.073,56.2393 133,56.5C 136.069,59.7907 139.235,59.7907 142.5,56.5 Z"/></g>
<g><path style="opacity:1" fill="#63bce6" d="M 110.5,61.5 C 109.035,62.7368 107.368,63.7368 105.5,64.5C 97.3437,63.3434 89.0104,63.1768 80.5,64C 81.056,64.3826 81.3893,64.8826 81.5,65.5C 78.9501,64.9432 76.9501,63.6099 75.5,61.5C 87.1667,60.1667 98.8333,60.1667 110.5,61.5 Z"/></g>
<g><path style="opacity:1" fill="#63bbe6" d="M 60.5,61.5 C 58.6675,62.2485 57.0009,63.2485 55.5,64.5C 46.6762,63.3427 37.6762,63.176 28.5,64C 29.056,64.3826 29.3893,64.8826 29.5,65.5C 27.5659,64.8897 25.8993,63.8897 24.5,62.5C 24.3893,61.8826 24.056,61.3826 23.5,61C 36.0069,60.1735 48.3403,60.3401 60.5,61.5 Z"/></g>
<g><path style="opacity:1" fill="#62bfe2" d="M 115.5,56.5 C 115.5,57.5 115.5,58.5 115.5,59.5C 113.833,60.1667 112.167,60.8333 110.5,61.5C 98.8333,60.1667 87.1667,60.1667 75.5,61.5C 73.847,61.3404 72.5137,60.6737 71.5,59.5C 71.5,58.5 71.5,57.5 71.5,56.5C 86.3755,56.4583 101.042,56.4583 115.5,56.5 Z"/></g>
<g><path style="opacity:1" fill="#62bfe3" d="M 63.5,57.5 C 63.5,58.1667 63.5,58.8333 63.5,59.5C 62.7095,60.4013 61.7095,61.0679 60.5,61.5C 48.3403,60.3401 36.0069,60.1735 23.5,61C 24.056,61.3826 24.3893,61.8826 24.5,62.5C 22.5956,62.2624 21.2623,61.2624 20.5,59.5C 20.4142,58.5041 20.7476,57.6708 21.5,57C 35.5748,56.1855 49.5748,56.3522 63.5,57.5 Z"/></g>
<g><path style="opacity:1" fill="#addfef" d="M 156.5,45.5 C 159.469,48.6419 162.302,51.9753 165,55.5C 165.49,56.7932 165.657,58.1266 165.5,59.5C 163.882,61.316 161.882,62.6493 159.5,63.5C 158.038,62.1993 156.704,60.6993 155.5,59C 155.645,58.228 155.978,57.5613 156.5,57C 154.703,55.4695 153.37,53.6361 152.5,51.5C 152.433,50.0413 152.766,48.7079 153.5,47.5C 154.778,47.2178 155.778,46.5511 156.5,45.5 Z"/></g>
<g><path style="opacity:1" fill="#79cce3" d="M 121.5,45.5 C 122.434,46.5676 122.768,47.901 122.5,49.5C 126.452,50.4008 130.452,51.4008 134.5,52.5C 136.205,50.6973 138.038,50.0306 140,50.5C 142.069,52.0854 144.236,53.4187 146.5,54.5C 146.217,55.2891 145.717,55.9558 145,56.5C 144.023,55.2264 143.189,55.2264 142.5,56.5C 139.235,59.7907 136.069,59.7907 133,56.5C 131.073,56.2393 129.073,56.2393 127,56.5C 125.527,56.0969 124.194,55.4303 123,54.5C 122.506,56.1341 122.34,57.8008 122.5,59.5C 121.833,59.5 121.5,59.1667 121.5,58.5C 121.5,54.1667 121.5,49.8333 121.5,45.5 Z"/></g>
<g><path style="opacity:1" fill="#63c4dd" d="M 115.5,51.5 C 115.5,53.1667 115.5,54.8333 115.5,56.5C 101.042,56.4583 86.3755,56.4583 71.5,56.5C 71.5,57.5 71.5,58.5 71.5,59.5C 70.5386,57.7354 70.2053,55.7354 70.5,53.5C 71.2891,53.2172 71.9558,52.7172 72.5,52C 86.075,51.8239 99.575,51.3239 113,50.5C 113.671,51.2524 114.504,51.5858 115.5,51.5 Z"/></g>
<g><path style="opacity:1" fill="#63c4dd" d="M 19.5,46.5 C 20.1667,47.5 20.8333,48.5 21.5,49.5C 27.9658,50.8303 34.7991,51.497 42,51.5C 49.0768,51.4914 56.0768,51.1581 63,50.5C 63.4966,52.8098 63.6633,55.1432 63.5,57.5C 49.5748,56.3522 35.5748,56.1855 21.5,57C 20.7476,57.6708 20.4142,58.5041 20.5,59.5C 19.5151,55.3656 19.1818,51.0323 19.5,46.5 Z"/></g>
<g><path style="opacity:1" fill="#6bccd8" d="M 63.5,37.5 C 64.4861,41.97 64.8195,46.6367 64.5,51.5C 64.8064,54.3854 64.4731,57.0521 63.5,59.5C 63.5,58.8333 63.5,58.1667 63.5,57.5C 63.6633,55.1432 63.4966,52.8098 63,50.5C 56.0768,51.1581 49.0768,51.4914 42,51.5C 34.7991,51.497 27.9658,50.8303 21.5,49.5C 27.9658,48.1697 34.7991,47.503 42,47.5C 49.2376,47.5197 56.2376,48.1863 63,49.5C 63.4974,46.854 63.6641,44.1873 63.5,41.5C 63.5,41.1667 63.5,40.8333 63.5,40.5C 63.5,39.5 63.5,38.5 63.5,37.5 Z"/></g>
<g><path style="opacity:1" fill="#66cad6" d="M 115.5,45.5 C 115.5,47.5 115.5,49.5 115.5,51.5C 114.504,51.5858 113.671,51.2524 113,50.5C 99.575,51.3239 86.075,51.8239 72.5,52C 71.9558,52.7172 71.2891,53.2172 70.5,53.5C 70.5,51.8333 70.5,50.1667 70.5,48.5C 84.0523,47.2466 97.8857,47.2466 112,48.5C 113.039,47.2899 114.206,46.2899 115.5,45.5 Z"/></g>
<g><path style="opacity:1" fill="#66cfd1" d="M 19.5,37.5 C 19.8333,37.5 20.1667,37.5 20.5,37.5C 20.2322,39.099 20.5655,40.4324 21.5,41.5C 35.4021,42.8219 49.4021,42.8219 63.5,41.5C 63.6641,44.1873 63.4974,46.854 63,49.5C 56.2376,48.1863 49.2376,47.5197 42,47.5C 34.7991,47.503 27.9658,48.1697 21.5,49.5C 20.8333,48.5 20.1667,47.5 19.5,46.5C 19.5,43.5 19.5,40.5 19.5,37.5 Z"/></g>
<g><path style="opacity:1" fill="#68d6c9" d="M 63.5,40.5 C 63.5,40.8333 63.5,41.1667 63.5,41.5C 49.4021,42.8219 35.4021,42.8219 21.5,41.5C 21.5,40.5 21.5,39.5 21.5,38.5C 35.7448,37.878 49.7448,38.5446 63.5,40.5 Z"/></g>
<g><path style="opacity:1" fill="#a3c5f7" d="M 4.5,59.5 C 4.59047,62.1522 3.92381,64.4855 2.5,66.5C 2.40953,63.8478 3.07619,61.5145 4.5,59.5 Z"/></g>
<g><path style="opacity:1" fill="#8acaf1" d="M 148.5,63.5 C 148.365,65.5542 149.032,67.2209 150.5,68.5C 148.518,69.8075 146.518,71.1408 144.5,72.5C 140.771,70.977 137.438,68.977 134.5,66.5C 133.697,65.5768 133.53,64.5768 134,63.5C 135.576,62.9875 136.909,63.6542 138,65.5C 140.53,64.9058 142.53,63.5724 144,61.5C 145.406,62.4138 146.906,63.0805 148.5,63.5 Z"/></g>
<g><path style="opacity:1" fill="#5b9ffb" d="M 4.5,59.5 C 7.38162,60.7699 10.3816,61.7699 13.5,62.5C 13.8333,62.5 14.1667,62.5 14.5,62.5C 11.412,65.9837 7.57863,68.6503 3,70.5C 2.50999,69.2068 2.34332,67.8734 2.5,66.5C 3.92381,64.4855 4.59047,62.1522 4.5,59.5 Z"/></g>
<g><path style="opacity:1" fill="#43d3f6" d="M 14.5,62.5 C 16.8302,64.6672 19.4968,66.3338 22.5,67.5C 23.6594,69.2503 25.326,70.2503 27.5,70.5C 27.8417,71.3382 28.5084,71.6716 29.5,71.5C 30.6594,73.2503 32.326,74.2503 34.5,74.5C 34.8417,75.3382 35.5084,75.6716 36.5,75.5C 37.8062,76.4674 38.4729,77.8007 38.5,79.5C 38.5,84.8333 38.5,90.1667 38.5,95.5C 38.5,95.8333 38.5,96.1667 38.5,96.5C 38.5,96.8333 38.5,97.1667 38.5,97.5C 35.7601,100.052 32.7601,102.385 29.5,104.5C 26.6689,105.079 24.3356,106.412 22.5,108.5C 20.0367,109.233 17.7033,110.233 15.5,111.5C 14.4163,111.315 13.4163,110.982 12.5,110.5C 12.1667,110.5 11.8333,110.5 11.5,110.5C 11.5,109.833 11.1667,109.5 10.5,109.5C 10.1667,109.5 9.83333,109.5 9.5,109.5C 9.5,108.833 9.16667,108.5 8.5,108.5C 8.16667,108.5 7.83333,108.5 7.5,108.5C 7.15829,107.662 6.49162,107.328 5.5,107.5C 4.83333,107.5 4.5,107.167 4.5,106.5C 3.20498,105.512 1.87165,104.512 0.5,103.5C 0.5,102.833 0.5,102.167 0.5,101.5C 0.399404,91.1482 0.732737,80.8149 1.5,70.5C 1.23219,68.901 1.56552,67.5676 2.5,66.5C 2.34332,67.8734 2.50999,69.2068 3,70.5C 7.57863,68.6503 11.412,65.9837 14.5,62.5 Z"/></g>
<g><path style="opacity:1" fill="#66b9ed" d="M 55.5,64.5 C 50.929,67.036 46.429,69.7026 42,72.5C 37.6765,70.3193 33.5098,67.986 29.5,65.5C 29.3893,64.8826 29.056,64.3826 28.5,64C 37.6762,63.176 46.6762,63.3427 55.5,64.5 Z"/></g>
<g><path style="opacity:1" fill="#76c0ef" d="M 75.5,67.5 C 75.8333,68.1667 76.1667,68.8333 76.5,69.5C 70.5,68.1667 64.5,68.1667 58.5,69.5C 58.5,69.1667 58.5,68.8333 58.5,68.5C 59.1667,68.5 59.5,68.1667 59.5,67.5C 60.4916,67.6716 61.1583,67.3382 61.5,66.5C 62.4916,66.6716 63.1583,66.3382 63.5,65.5C 64.8175,65.179 66.1508,64.8457 67.5,64.5C 69.9902,65.9951 72.6568,66.9951 75.5,67.5 Z"/></g>
<g><path style="opacity:1" fill="#65b8ec" d="M 105.5,64.5 C 101.351,67.0762 97.0176,69.4095 92.5,71.5C 88.3273,70.2504 84.6606,68.2504 81.5,65.5C 81.3893,64.8826 81.056,64.3826 80.5,64C 89.0104,63.1768 97.3437,63.3434 105.5,64.5 Z"/></g>
<g><path style="opacity:1" fill="#67b4f1" d="M 76.5,69.5 C 78.2546,70.9044 80.2546,71.9044 82.5,72.5C 82.5,72.8333 82.5,73.1667 82.5,73.5C 72.8276,73.3335 63.1609,73.5002 53.5,74C 51.8455,74.6077 50.1789,75.1077 48.5,75.5C 48.8333,74.8333 49.1667,74.1667 49.5,73.5C 50.4916,73.6716 51.1583,73.3382 51.5,72.5C 53.674,72.2503 55.3406,71.2503 56.5,69.5C 57.1667,69.5 57.8333,69.5 58.5,69.5C 64.5,68.1667 70.5,68.1667 76.5,69.5 Z"/></g>
<g><path style="opacity:1" fill="#6db7f1" d="M 131.5,71.5 C 131.944,73.1132 132.944,74.2798 134.5,75C 132.859,76.129 131.859,77.629 131.5,79.5C 130.036,80.4054 128.702,80.4054 127.5,79.5C 127.5,77.8333 127.5,76.1667 127.5,74.5C 118.664,72.7118 109.998,72.7118 101.5,74.5C 101.5,74.1667 101.5,73.8333 101.5,73.5C 106.909,70.3781 112.409,67.3781 118,64.5C 122.877,66.2353 127.377,68.5687 131.5,71.5 Z"/></g>
<g><path style="opacity:1" fill="#d5e9f9" d="M 176.5,68.5 C 178.45,79.4021 178.95,90.4021 178,101.5C 177.689,105.09 176.856,108.423 175.5,111.5C 173.527,112.487 171.527,113.487 169.5,114.5C 167.604,113.725 165.937,112.725 164.5,111.5C 166.144,111.286 167.644,111.62 169,112.5C 170.899,107.358 171.733,102.025 171.5,96.5C 170.69,89.7854 170.69,83.1187 171.5,76.5C 170.365,73.1459 168.699,70.1459 166.5,67.5C 166.962,66.1201 167.962,65.4534 169.5,65.5C 171.97,66.2366 174.304,67.2366 176.5,68.5 Z"/></g>
<g><path style="opacity:1" fill="#c9e3fc" d="M 166.5,67.5 C 168.699,70.1459 170.365,73.1459 171.5,76.5C 170.69,83.1187 170.69,89.7854 171.5,96.5C 171.733,102.025 170.899,107.358 169,112.5C 167.644,111.62 166.144,111.286 164.5,111.5C 162.973,111.573 161.973,110.906 161.5,109.5C 162.583,109.539 163.583,109.873 164.5,110.5C 164.833,109.833 165.167,109.167 165.5,108.5C 166.07,104.274 166.737,100.108 167.5,96C 165.713,93.631 165.379,91.131 166.5,88.5C 165.757,82.8631 165.257,77.1964 165,71.5C 163.738,73.3028 162.071,74.6361 160,75.5C 159.29,74.0267 158.124,73.3601 156.5,73.5C 159.494,71.0002 162.827,69.0002 166.5,67.5 Z"/></g>
<g><path style="opacity:1" fill="#60acf6" d="M 82.5,73.5 C 84.0495,74.4408 85.7162,75.1075 87.5,75.5C 87.8417,76.3382 88.5084,76.6716 89.5,76.5C 89.5,78.1667 89.5,79.8333 89.5,81.5C 89.1667,81.5 88.8333,81.5 88.5,81.5C 74.5,81.5 60.5,81.5 46.5,81.5C 46.7373,80.209 46.404,79.209 45.5,78.5C 45.5,76.5 46.5,75.5 48.5,75.5C 50.1789,75.1077 51.8455,74.6077 53.5,74C 63.1609,73.5002 72.8276,73.3335 82.5,73.5 Z"/></g>
<g><path style="opacity:1" fill="#abd9f8" d="M 82.5,73.5 C 82.5,73.1667 82.5,72.8333 82.5,72.5C 83.1667,72.5 83.8333,72.5 84.5,72.5C 84.8417,73.3382 85.5084,73.6716 86.5,73.5C 86.5,74.1667 86.8333,74.5 87.5,74.5C 87.5,74.8333 87.5,75.1667 87.5,75.5C 85.7162,75.1075 84.0495,74.4408 82.5,73.5 Z"/></g>
<g><path style="opacity:1" fill="#66b0f6" d="M 127.5,79.5 C 126.833,79.8333 126.167,80.1667 125.5,80.5C 125.565,80.0618 125.399,79.7284 125,79.5C 121.919,80.8147 118.753,81.8147 115.5,82.5C 109.69,81.5104 103.69,81.1771 97.5,81.5C 96.4631,85.4365 96.1298,91.4365 96.5,99.5C 95.188,91.9319 95.188,84.2653 96.5,76.5C 98.0495,75.5592 99.7162,74.8925 101.5,74.5C 109.998,72.7118 118.664,72.7118 127.5,74.5C 127.5,76.1667 127.5,77.8333 127.5,79.5 Z"/></g>
<g><path style="opacity:1" fill="#b8dafd" d="M 161.5,109.5 C 156.61,107.289 151.944,104.622 147.5,101.5C 146.503,94.1968 146.169,86.8635 146.5,79.5C 149.494,77.0002 152.827,75.0002 156.5,73.5C 158.124,73.3601 159.29,74.0267 160,75.5C 162.071,74.6361 163.738,73.3028 165,71.5C 165.257,77.1964 165.757,82.8631 166.5,88.5C 165.379,91.131 165.713,93.631 167.5,96C 166.737,100.108 166.07,104.274 165.5,108.5C 165.167,109.167 164.833,109.833 164.5,110.5C 163.583,109.873 162.583,109.539 161.5,109.5 Z"/></g>
<g><path style="opacity:1" fill="#73b2fd" d="M 125.5,80.5 C 122.727,84.2843 120.06,88.1176 117.5,92C 114.319,94.0917 111.319,96.425 108.5,99C 105.054,99.6613 101.721,100.495 98.5,101.5C 98.1667,101.5 97.8333,101.5 97.5,101.5C 97.1667,100.833 96.8333,100.167 96.5,99.5C 100.293,96.2758 104.126,93.2758 108,90.5C 108.333,90.8333 108.667,91.1667 109,91.5C 111.407,88.638 113.573,85.638 115.5,82.5C 118.753,81.8147 121.919,80.8147 125,79.5C 125.399,79.7284 125.565,80.0618 125.5,80.5 Z"/></g>
<g><path style="opacity:1" fill="#afdafc" d="M 89.5,76.5 C 90.1656,80.3188 90.4989,84.3188 90.5,88.5C 90.4907,92.893 89.824,96.893 88.5,100.5C 89.4578,94.2564 89.7912,87.923 89.5,81.5C 89.5,79.8333 89.5,78.1667 89.5,76.5 Z"/></g>
<g><path style="opacity:1" fill="#90c4fd" d="M 131.5,71.5 C 134.111,73.1449 136.777,74.8116 139.5,76.5C 140.491,80.4454 140.824,84.4454 140.5,88.5C 139.883,88.3893 139.383,88.056 139,87.5C 137.247,91.3201 134.58,93.3201 131,93.5C 130.535,94.9308 129.701,96.0975 128.5,97C 124.89,98.944 121.557,101.277 118.5,104C 115.745,105.953 112.745,107.12 109.5,107.5C 106.669,106.921 104.336,105.588 102.5,103.5C 103.93,103.579 105.264,103.246 106.5,102.5C 107.167,103.5 107.833,104.5 108.5,105.5C 114.347,102.275 120.013,98.7754 125.5,95C 130.813,91.5164 134.147,86.6831 135.5,80.5C 134.214,80.5236 132.88,80.1903 131.5,79.5C 131.859,77.629 132.859,76.129 134.5,75C 132.944,74.2798 131.944,73.1132 131.5,71.5 Z"/></g>
<g><path style="opacity:1" fill="#64aafd" d="M 115.5,82.5 C 113.573,85.638 111.407,88.638 109,91.5C 108.667,91.1667 108.333,90.8333 108,90.5C 104.126,93.2758 100.293,96.2758 96.5,99.5C 96.1298,91.4365 96.4631,85.4365 97.5,81.5C 103.69,81.1771 109.69,81.5104 115.5,82.5 Z"/></g>
<g><path style="opacity:1" fill="#5fa7fd" d="M 45.5,78.5 C 46.404,79.209 46.7373,80.209 46.5,81.5C 60.5,81.5 74.5,81.5 88.5,81.5C 88.6661,87.1764 88.4994,92.8431 88,98.5C 87.6667,97.8333 87.3333,97.1667 87,96.5C 85.4345,95.9394 84.1011,96.6061 83,98.5C 70.5001,97.1759 58.0001,97.1759 45.5,98.5C 45.5,91.8333 45.5,85.1667 45.5,78.5 Z"/></g>
<g><path style="opacity:1" fill="#86bdfd" d="M 127.5,79.5 C 128.702,80.4054 130.036,80.4054 131.5,79.5C 132.88,80.1903 134.214,80.5236 135.5,80.5C 134.147,86.6831 130.813,91.5164 125.5,95C 120.013,98.7754 114.347,102.275 108.5,105.5C 107.833,104.5 107.167,103.5 106.5,102.5C 105.264,103.246 103.93,103.579 102.5,103.5C 100.847,103.34 99.5137,102.674 98.5,101.5C 101.721,100.495 105.054,99.6613 108.5,99C 111.319,96.425 114.319,94.0917 117.5,92C 120.06,88.1176 122.727,84.2843 125.5,80.5C 126.167,80.1667 126.833,79.8333 127.5,79.5 Z"/></g>
<g><path style="opacity:1" fill="#94ddf1" d="M 1.5,70.5 C 0.732737,80.8149 0.399404,91.1482 0.5,101.5C 0.166667,101.5 -0.166667,101.5 -0.5,101.5C -0.5,93.1667 -0.5,84.8333 -0.5,76.5C 0.166667,74.5 0.833333,72.5 1.5,70.5 Z"/></g>
<g><path style="opacity:1" fill="#9fcdfe" d="M 140.5,88.5 C 140.5,92.5 140.5,96.5 140.5,100.5C 133.004,103.745 126.004,107.745 119.5,112.5C 115.58,111.873 112.247,110.207 109.5,107.5C 112.745,107.12 115.745,105.953 118.5,104C 121.557,101.277 124.89,98.944 128.5,97C 129.701,96.0975 130.535,94.9308 131,93.5C 134.58,93.3201 137.247,91.3201 139,87.5C 139.383,88.056 139.883,88.3893 140.5,88.5 Z"/></g>
<g><path style="opacity:1" fill="#61acfe" d="M 88.5,81.5 C 88.8333,81.5 89.1667,81.5 89.5,81.5C 89.7912,87.923 89.4578,94.2564 88.5,100.5C 81.725,104.057 75.0583,107.89 68.5,112C 66.4815,111.848 64.4815,111.348 62.5,110.5C 62.1583,109.662 61.4916,109.328 60.5,109.5C 59.9653,107.554 58.632,106.554 56.5,106.5C 53.9961,103.357 50.6628,101.691 46.5,101.5C 45.8902,100.609 45.5569,99.609 45.5,98.5C 58.0001,97.1759 70.5001,97.1759 83,98.5C 84.1011,96.6061 85.4345,95.9394 87,96.5C 87.3333,97.1667 87.6667,97.8333 88,98.5C 88.4994,92.8431 88.6661,87.1764 88.5,81.5 Z"/></g>
<g><path style="opacity:1" fill="#e5f6fc" d="M 146.5,79.5 C 146.169,86.8635 146.503,94.1968 147.5,101.5C 151.944,104.622 156.61,107.289 161.5,109.5C 161.973,110.906 162.973,111.573 164.5,111.5C 165.937,112.725 167.604,113.725 169.5,114.5C 171.527,113.487 173.527,112.487 175.5,111.5C 174.13,119.564 171.13,126.897 166.5,133.5C 159.935,145.064 151.269,154.73 140.5,162.5C 140.5,161.833 140.5,161.167 140.5,160.5C 140.67,159.178 140.337,158.011 139.5,157C 137.114,155.807 134.78,154.64 132.5,153.5C 130.819,151.992 128.819,150.992 126.5,150.5C 124.196,148.343 121.529,146.676 118.5,145.5C 111.312,149.258 104.312,153.258 97.5,157.5C 95.5437,163.412 94.8771,169.745 95.5,176.5C 97.2646,177.461 99.2646,177.795 101.5,177.5C 98.0381,178.482 94.3714,178.815 90.5,178.5C 90.5,177.833 90.5,177.167 90.5,176.5C 91.8333,176.5 93.1667,176.5 94.5,176.5C 94.5,170.167 94.5,163.833 94.5,157.5C 92.3944,157.321 90.7277,156.321 89.5,154.5C 90.2427,153.818 90.9094,153.151 91.5,152.5C 98.8171,149.845 105.484,146.178 111.5,141.5C 112.583,141.461 113.583,141.127 114.5,140.5C 115.492,136.217 115.826,131.884 115.5,127.5C 115.5,124.167 115.5,120.833 115.5,117.5C 116.833,115.833 118.167,114.167 119.5,112.5C 126.004,107.745 133.004,103.745 140.5,100.5C 141.328,94.6807 141.828,88.6807 142,82.5C 142.333,85.1667 142.667,87.8333 143,90.5C 144.651,86.8668 145.818,83.2001 146.5,79.5 Z"/></g>
<g><path style="opacity:1" fill="#abdbfe" d="M 161.5,116.5 C 157.793,119.871 154.459,123.704 151.5,128C 149.22,128.233 147.22,129.066 145.5,130.5C 144.548,128.955 144.215,127.288 144.5,125.5C 142.533,125.739 140.699,125.406 139,124.5C 136.581,126.213 134.081,126.879 131.5,126.5C 130.808,125.975 130.308,125.308 130,124.5C 127.903,125.991 125.57,126.991 123,127.5C 122.768,126.263 122.268,125.263 121.5,124.5C 121.244,122.208 121.577,120.041 122.5,118C 129.601,113.7 136.768,109.534 144,105.5C 149.742,109.429 155.576,113.095 161.5,116.5 Z"/></g>
<g><path style="opacity:1" fill="#5eb3fe" d="M 60.5,115.5 C 59.828,116.267 58.9947,116.934 58,117.5C 46.576,116.678 35.076,116.178 23.5,116C 24.056,115.617 24.3893,115.117 24.5,114.5C 30.0424,110.808 35.8758,107.474 42,104.5C 48.2607,108.045 54.4274,111.712 60.5,115.5 Z"/></g>
<g><path style="opacity:1" fill="#77bdfe" d="M 100.5,109.5 C 97.6864,111.143 94.6864,112.643 91.5,114C 87.9729,114.145 84.6396,114.978 81.5,116.5C 82.7119,114.799 82.7119,113.133 81.5,111.5C 84.9328,108.941 88.5995,106.608 92.5,104.5C 94.8584,106.678 97.5251,108.345 100.5,109.5 Z"/></g>
<g><path style="opacity:1" fill="#67d6f3" d="M 11.5,118.5 C 10.1667,119.167 8.83333,119.833 7.5,120.5C 6.5,120.5 5.5,120.5 4.5,120.5C 3.962,118.883 3.62867,117.216 3.5,115.5C 3.5,114.5 3.5,113.5 3.5,112.5C 7.91661,112.258 10.5833,114.258 11.5,118.5 Z"/></g>
<g><path style="opacity:1" fill="#59b9fe" d="M 24.5,114.5 C 24.3893,115.117 24.056,115.617 23.5,116C 35.076,116.178 46.576,116.678 58,117.5C 58.9947,116.934 59.828,116.267 60.5,115.5C 61.391,116.11 62.391,116.443 63.5,116.5C 63.5,117.833 63.5,119.167 63.5,120.5C 60.8998,119.641 58.3998,119.308 56,119.5C 55.3333,120.167 54.6667,120.833 54,121.5C 43.2919,121.411 32.4586,121.411 21.5,121.5C 21.7678,123.099 21.4345,124.432 20.5,125.5C 20.5,122.833 20.5,120.167 20.5,117.5C 21.2623,115.738 22.5956,114.738 24.5,114.5 Z"/></g>
<g><path style="opacity:1" fill="#76c3fe" d="M 100.5,109.5 C 101.71,109.932 102.71,110.599 103.5,111.5C 93.177,115.559 82.677,119.559 72,123.5C 71.7216,122.584 71.2216,121.918 70.5,121.5C 70.5,120.167 70.5,118.833 70.5,117.5C 73.7133,114.726 77.38,112.726 81.5,111.5C 82.7119,113.133 82.7119,114.799 81.5,116.5C 84.6396,114.978 87.9729,114.145 91.5,114C 94.6864,112.643 97.6864,111.143 100.5,109.5 Z"/></g>
<g><path style="opacity:1" fill="#58beff" d="M 63.5,120.5 C 63.5,121.5 63.5,122.5 63.5,123.5C 62.5837,123.018 61.5837,122.685 60.5,122.5C 54.685,124.327 48.8517,125.994 43,127.5C 35.9213,126.52 28.7546,126.187 21.5,126.5C 21.7373,127.791 21.404,128.791 20.5,129.5C 20.5,128.167 20.5,126.833 20.5,125.5C 21.4345,124.432 21.7678,123.099 21.5,121.5C 32.4586,121.411 43.2919,121.411 54,121.5C 54.6667,120.833 55.3333,120.167 56,119.5C 58.3998,119.308 60.8998,119.641 63.5,120.5 Z"/></g>
<g><path style="opacity:1" fill="#99d5fe" d="M 107.5,113.5 C 110.032,114.596 112.365,115.929 114.5,117.5C 114.5,119.167 114.5,120.833 114.5,122.5C 107.756,123.915 101.09,125.581 94.5,127.5C 95.023,125.292 96.3563,123.792 98.5,123C 97.2068,122.51 95.8734,122.343 94.5,122.5C 95.1098,121.609 95.4431,120.609 95.5,119.5C 98.7794,118.204 101.946,116.537 105,114.5C 106.159,115.566 106.992,115.233 107.5,113.5 Z"/></g>
<g><path style="opacity:1" fill="#7fcbfe" d="M 103.5,111.5 C 104.833,112.167 106.167,112.833 107.5,113.5C 106.992,115.233 106.159,115.566 105,114.5C 101.946,116.537 98.7794,118.204 95.5,119.5C 87.5201,121.326 79.8534,123.993 72.5,127.5C 71.8182,126.757 71.1515,126.091 70.5,125.5C 70.5,124.167 70.5,122.833 70.5,121.5C 71.2216,121.918 71.7216,122.584 72,123.5C 82.677,119.559 93.177,115.559 103.5,111.5 Z"/></g>
<g><path style="opacity:1" fill="#86d1fe" d="M 95.5,119.5 C 95.4431,120.609 95.1098,121.609 94.5,122.5C 87.0498,125.574 79.5498,128.574 72,131.5C 71.7216,130.584 71.2216,129.918 70.5,129.5C 70.5,128.167 70.5,126.833 70.5,125.5C 71.1515,126.091 71.8182,126.757 72.5,127.5C 79.8534,123.993 87.5201,121.326 95.5,119.5 Z"/></g>
<g><path style="opacity:1" fill="#9eddfe" d="M 114.5,117.5 C 114.833,117.5 115.167,117.5 115.5,117.5C 115.5,120.833 115.5,124.167 115.5,127.5C 114.698,128.952 114.198,130.618 114,132.5C 111.667,131.833 109.333,131.167 107,130.5C 106.667,131.167 106.333,131.833 106,132.5C 104.439,132.347 102.605,132.014 100.5,131.5C 95.743,133.198 91.0764,134.198 86.5,134.5C 87.2047,130.125 89.8713,127.792 94.5,127.5C 101.09,125.581 107.756,123.915 114.5,122.5C 114.5,120.833 114.5,119.167 114.5,117.5 Z"/></g>
<g><path style="opacity:1" fill="#8dd8fe" d="M 94.5,122.5 C 95.8734,122.343 97.2068,122.51 98.5,123C 96.3563,123.792 95.023,125.292 94.5,127.5C 89.8713,127.792 87.2047,130.125 86.5,134.5C 83.6377,135.132 80.8044,136.132 78,137.5C 76,136.167 74,136.167 72,137.5C 70.6253,135.063 70.1253,132.397 70.5,129.5C 71.2216,129.918 71.7216,130.584 72,131.5C 79.5498,128.574 87.0498,125.574 94.5,122.5 Z"/></g>
<g><path style="opacity:1" fill="#57c4fe" d="M 63.5,123.5 C 63.5,124.833 63.5,126.167 63.5,127.5C 62.4226,126.982 61.2559,126.648 60,126.5C 47.2605,130.216 34.4272,131.549 21.5,130.5C 21.7373,131.791 21.404,132.791 20.5,133.5C 20.5,132.167 20.5,130.833 20.5,129.5C 21.404,128.791 21.7373,127.791 21.5,126.5C 28.7546,126.187 35.9213,126.52 43,127.5C 48.8517,125.994 54.685,124.327 60.5,122.5C 61.5837,122.685 62.5837,123.018 63.5,123.5 Z"/></g>
<g><path style="opacity:1" fill="#cef0fc" d="M 164.5,117.5 C 166.446,122.396 167.113,127.729 166.5,133.5C 165.603,134.598 164.77,134.598 164,133.5C 159.753,140.709 154.586,147.042 148.5,152.5C 149.953,151.175 149.619,150.342 147.5,150C 149.5,148 151.5,146 153.5,144C 153.167,143.667 152.833,143.333 152.5,143C 156.694,137.746 160.528,132.246 164,126.5C 164.333,126.833 164.667,127.167 165,127.5C 165.497,124.854 165.664,122.187 165.5,119.5C 165.167,118.833 164.833,118.167 164.5,117.5 Z"/></g>
<g><path style="opacity:1" fill="#57caff" d="M 63.5,127.5 C 63.5,128.5 63.5,129.5 63.5,130.5C 62.5041,130.586 61.6708,130.252 61,129.5C 56.1847,132.063 51.1847,133.063 46,132.5C 45.6667,133.167 45.3333,133.833 45,134.5C 43.8831,134.335 42.7164,134.002 41.5,133.5C 34.4991,134.629 27.6658,135.962 21,137.5C 20.51,136.207 20.3433,134.873 20.5,133.5C 21.404,132.791 21.7373,131.791 21.5,130.5C 34.4272,131.549 47.2605,130.216 60,126.5C 61.2559,126.648 62.4226,126.982 63.5,127.5 Z"/></g>
<g><path style="opacity:1" fill="#9ce3fe" d="M 69.5,117.5 C 69.8333,117.5 70.1667,117.5 70.5,117.5C 70.5,118.833 70.5,120.167 70.5,121.5C 70.5,122.833 70.5,124.167 70.5,125.5C 70.5,126.833 70.5,128.167 70.5,129.5C 70.1253,132.397 70.6253,135.063 72,137.5C 74,136.167 76,136.167 78,137.5C 80.8044,136.132 83.6377,135.132 86.5,134.5C 91.0764,134.198 95.743,133.198 100.5,131.5C 102.605,132.014 104.439,132.347 106,132.5C 106.333,131.833 106.667,131.167 107,130.5C 109.333,131.167 111.667,131.833 114,132.5C 114.198,130.618 114.698,128.952 115.5,127.5C 115.826,131.884 115.492,136.217 114.5,140.5C 113.583,141.127 112.583,141.461 111.5,141.5C 108.329,140.209 104.996,139.542 101.5,139.5C 97.1545,140.673 92.8212,140.673 88.5,139.5C 87.1667,139.667 85.8333,139.833 84.5,140C 85.6956,140.654 85.6956,141.154 84.5,141.5C 83.8333,141.167 83.1667,140.833 82.5,140.5C 80.3821,141.946 78.0488,142.613 75.5,142.5C 73.5742,141.758 71.7409,140.758 70,139.5C 69.5005,133.175 69.3338,126.842 69.5,120.5C 69.5,119.833 69.5,119.167 69.5,118.5C 69.5,118.167 69.5,117.833 69.5,117.5 Z"/></g>
<g><path style="opacity:1" fill="#a1e2fe" d="M 161.5,116.5 C 162.609,116.557 163.609,116.89 164.5,117.5C 164.833,118.167 165.167,118.833 165.5,119.5C 163.127,121.579 161.794,124.246 161.5,127.5C 157.373,127.635 154.706,129.635 153.5,133.5C 149.88,135.422 146.213,137.422 142.5,139.5C 140.223,139.015 138.056,139.681 136,141.5C 135.667,140.833 135.333,140.167 135,139.5C 132.453,141.508 129.953,141.842 127.5,140.5C 126.482,141.193 125.482,141.859 124.5,142.5C 123.504,142.586 122.671,142.252 122,141.5C 121.501,135.843 121.334,130.176 121.5,124.5C 122.268,125.263 122.768,126.263 123,127.5C 125.57,126.991 127.903,125.991 130,124.5C 130.308,125.308 130.808,125.975 131.5,126.5C 134.081,126.879 136.581,126.213 139,124.5C 140.699,125.406 142.533,125.739 144.5,125.5C 144.215,127.288 144.548,128.955 145.5,130.5C 147.22,129.066 149.22,128.233 151.5,128C 154.459,123.704 157.793,119.871 161.5,116.5 Z"/></g>
<g><path style="opacity:1" fill="#5ed3fe" d="M 20.5,117.5 C 20.5,120.167 20.5,122.833 20.5,125.5C 20.5,126.833 20.5,128.167 20.5,129.5C 20.5,130.833 20.5,132.167 20.5,133.5C 20.3433,134.873 20.51,136.207 21,137.5C 27.6658,135.962 34.4991,134.629 41.5,133.5C 42.7164,134.002 43.8831,134.335 45,134.5C 45.3333,133.833 45.6667,133.167 46,132.5C 51.1847,133.063 56.1847,132.063 61,129.5C 61.6708,130.252 62.5041,130.586 63.5,130.5C 63.5,132.833 63.5,135.167 63.5,137.5C 61.5801,136.721 59.7468,136.387 58,136.5C 57.6827,138.301 57.016,138.634 56,137.5C 47.8532,140.131 39.5199,142.131 31,143.5C 28.997,142.017 26.8303,140.683 24.5,139.5C 23.5832,140.127 22.5832,140.461 21.5,140.5C 20.8826,140.389 20.3826,140.056 20,139.5C 19.1782,131.988 19.3448,124.655 20.5,117.5 Z"/></g>
<g><path style="opacity:1" fill="#9beafe" d="M 111.5,141.5 C 105.484,146.178 98.8171,149.845 91.5,152.5C 86.1305,149.153 80.7972,145.819 75.5,142.5C 78.0488,142.613 80.3821,141.946 82.5,140.5C 83.1667,140.833 83.8333,141.167 84.5,141.5C 85.6956,141.154 85.6956,140.654 84.5,140C 85.8333,139.833 87.1667,139.667 88.5,139.5C 92.8212,140.673 97.1545,140.673 101.5,139.5C 104.996,139.542 108.329,140.209 111.5,141.5 Z"/></g>
<g><path style="opacity:1" fill="#69ddfe" d="M 63.5,137.5 C 63.5323,139.619 62.5323,140.952 60.5,141.5C 51.8343,142.176 43.5009,144.509 35.5,148.5C 30.8333,146.167 26.1667,143.833 21.5,141.5C 21.5,141.167 21.5,140.833 21.5,140.5C 22.5832,140.461 23.5832,140.127 24.5,139.5C 26.8303,140.683 28.997,142.017 31,143.5C 39.5199,142.131 47.8532,140.131 56,137.5C 57.016,138.634 57.6827,138.301 58,136.5C 59.7468,136.387 61.5801,136.721 63.5,137.5 Z"/></g>
<g><path style="opacity:1" fill="#e6f7fc" d="M 69.5,117.5 C 69.5,117.833 69.5,118.167 69.5,118.5C 68.1667,119.167 68.1667,119.833 69.5,120.5C 69.3338,126.842 69.5005,133.175 70,139.5C 71.7409,140.758 73.5742,141.758 75.5,142.5C 80.7972,145.819 86.1305,149.153 91.5,152.5C 90.9094,153.151 90.2427,153.818 89.5,154.5C 90.7277,156.321 92.3944,157.321 94.5,157.5C 94.5,163.833 94.5,170.167 94.5,176.5C 93.1667,176.5 91.8333,176.5 90.5,176.5C 91.1255,169.416 90.4589,162.75 88.5,156.5C 88.1667,156.5 87.8333,156.5 87.5,156.5C 81.0857,151.949 74.2523,147.949 67,144.5C 59.7477,147.949 52.9143,151.949 46.5,156.5C 44.5977,159.337 43.931,162.671 44.5,166.5C 35.3717,162.048 27.705,155.714 21.5,147.5C 22.2389,147.631 22.9056,147.464 23.5,147C 22.4178,145.67 21.7512,144.17 21.5,142.5C 21.5,142.167 21.5,141.833 21.5,141.5C 26.1667,143.833 30.8333,146.167 35.5,148.5C 37.1995,150.441 39.3661,151.774 42,152.5C 48.2964,148.94 54.463,145.273 60.5,141.5C 62.5323,140.952 63.5323,139.619 63.5,137.5C 63.5,135.167 63.5,132.833 63.5,130.5C 63.5,129.5 63.5,128.5 63.5,127.5C 63.5,126.167 63.5,124.833 63.5,123.5C 63.5,122.5 63.5,121.5 63.5,120.5C 63.5,119.167 63.5,117.833 63.5,116.5C 63.7828,115.711 64.2828,115.044 65,114.5C 66.6516,115.399 68.1516,116.399 69.5,117.5 Z M 29.5,151.5 C 32.1386,153.156 34.8053,154.822 37.5,156.5C 38.8333,157.5 38.8333,158.5 37.5,159.5C 35.6414,157.808 33.6414,156.308 31.5,155C 30.1772,154.184 29.5106,153.017 29.5,151.5 Z"/></g>
<g><path style="opacity:1" fill="#c0effd" d="M 165.5,119.5 C 165.664,122.187 165.497,124.854 165,127.5C 164.667,127.167 164.333,126.833 164,126.5C 160.528,132.246 156.694,137.746 152.5,143C 152.833,143.333 153.167,143.667 153.5,144C 151.5,146 149.5,148 147.5,150C 149.619,150.342 149.953,151.175 148.5,152.5C 144.764,155.391 141.43,155.058 138.5,151.5C 144.887,146.769 149.887,140.769 153.5,133.5C 154.706,129.635 157.373,127.635 161.5,127.5C 161.794,124.246 163.127,121.579 165.5,119.5 Z"/></g>
<g><path style="opacity:1" fill="#78e5fe" d="M 60.5,141.5 C 54.463,145.273 48.2964,148.94 42,152.5C 39.3661,151.774 37.1995,150.441 35.5,148.5C 43.5009,144.509 51.8343,142.176 60.5,141.5 Z"/></g>
<g><path style="opacity:1" fill="#a8ecfe" d="M 153.5,133.5 C 149.887,140.769 144.887,146.769 138.5,151.5C 133.833,148.5 129.167,145.5 124.5,142.5C 125.482,141.859 126.482,141.193 127.5,140.5C 129.953,141.842 132.453,141.508 135,139.5C 135.333,140.167 135.667,140.833 136,141.5C 138.056,139.681 140.223,139.015 142.5,139.5C 146.213,137.422 149.88,135.422 153.5,133.5 Z"/></g>
<g><path style="opacity:1" fill="#99f0fe" d="M 126.5,150.5 C 124.075,153.063 121.742,155.063 119.5,156.5C 117.857,156.48 116.524,157.147 115.5,158.5C 114.575,157.359 113.741,157.359 113,158.5C 112.667,157.833 112.333,157.167 112,156.5C 111.261,157.574 110.261,158.241 109,158.5C 107.85,157.576 106.85,157.576 106,158.5C 104.914,156.153 103.581,156.153 102,158.5C 100.56,157.852 99.0603,157.519 97.5,157.5C 104.312,153.258 111.312,149.258 118.5,145.5C 121.529,146.676 124.196,148.343 126.5,150.5 Z"/></g>
<g><path style="opacity:1" fill="#92f0fe" d="M 87.5,156.5 C 85.6096,156.297 84.1096,156.963 83,158.5C 80.0793,156.813 76.9126,155.813 73.5,155.5C 66.7661,156.9 60.2661,158.233 54,159.5C 53.5518,157.776 52.7185,157.109 51.5,157.5C 52.8114,156.742 53.3114,155.742 53,154.5C 51.103,156.016 48.9363,156.683 46.5,156.5C 52.9143,151.949 59.7477,147.949 67,144.5C 74.2523,147.949 81.0857,151.949 87.5,156.5 Z"/></g>
<g><path style="opacity:1" fill="#97f7fe" d="M 87.5,156.5 C 87.8333,156.5 88.1667,156.5 88.5,156.5C 89.4601,163.078 89.7934,169.745 89.5,176.5C 84.8215,176.666 80.1548,176.499 75.5,176C 67.5613,173.862 59.5613,172.028 51.5,170.5C 48.6689,169.921 46.3356,168.588 44.5,166.5C 43.931,162.671 44.5977,159.337 46.5,156.5C 48.9363,156.683 51.103,156.016 53,154.5C 53.3114,155.742 52.8114,156.742 51.5,157.5C 52.7185,157.109 53.5518,157.776 54,159.5C 60.2661,158.233 66.7661,156.9 73.5,155.5C 76.9126,155.813 80.0793,156.813 83,158.5C 84.1096,156.963 85.6096,156.297 87.5,156.5 Z"/></g>
<g><path style="opacity:1" fill="#9bf5fe" d="M 119.5,156.5 C 119.918,157.222 120.584,157.722 121.5,158C 114.587,163.956 106.587,167.456 97.5,168.5C 97.6495,167.448 97.4828,166.448 97,165.5C 96.8227,169.356 96.3227,173.023 95.5,176.5C 94.8771,169.745 95.5437,163.412 97.5,157.5C 99.0603,157.519 100.56,157.852 102,158.5C 103.581,156.153 104.914,156.153 106,158.5C 106.85,157.576 107.85,157.576 109,158.5C 110.261,158.241 111.261,157.574 112,156.5C 112.333,157.167 112.667,157.833 113,158.5C 113.741,157.359 114.575,157.359 115.5,158.5C 116.524,157.147 117.857,156.48 119.5,156.5 Z"/></g>
<g><path style="opacity:1" fill="#abf7fd" d="M 126.5,150.5 C 128.819,150.992 130.819,151.992 132.5,153.5C 132.611,154.117 132.944,154.617 133.5,155C 131.329,157.094 129.329,159.428 127.5,162C 121.719,165.832 116.052,169.665 110.5,173.5C 108.254,174.21 105.92,174.71 103.5,175C 102.244,175.417 101.577,176.25 101.5,177.5C 99.2646,177.795 97.2646,177.461 95.5,176.5C 96.3227,173.023 96.8227,169.356 97,165.5C 97.4828,166.448 97.6495,167.448 97.5,168.5C 106.587,167.456 114.587,163.956 121.5,158C 120.584,157.722 119.918,157.222 119.5,156.5C 121.742,155.063 124.075,153.063 126.5,150.5 Z"/></g>
<g><path style="opacity:1" fill="#d0eff2" d="M 140.5,160.5 C 140.5,161.167 140.5,161.833 140.5,162.5C 128.923,171.119 115.923,176.119 101.5,177.5C 101.577,176.25 102.244,175.417 103.5,175C 105.92,174.71 108.254,174.21 110.5,173.5C 113.947,173.186 117.28,172.352 120.5,171C 127.35,167.601 134.017,164.101 140.5,160.5 Z"/></g>
<g><path style="opacity:1" fill="#c3f7fc" d="M 132.5,153.5 C 134.78,154.64 137.114,155.807 139.5,157C 140.337,158.011 140.67,159.178 140.5,160.5C 134.017,164.101 127.35,167.601 120.5,171C 117.28,172.352 113.947,173.186 110.5,173.5C 116.052,169.665 121.719,165.832 127.5,162C 129.329,159.428 131.329,157.094 133.5,155C 132.944,154.617 132.611,154.117 132.5,153.5 Z"/></g>
<g><path style="opacity:1" fill="#b0f1f4" d="M 88.5,156.5 C 90.4589,162.75 91.1255,169.416 90.5,176.5C 90.5,177.167 90.5,177.833 90.5,178.5C 76.7052,179.13 63.7052,176.463 51.5,170.5C 59.5613,172.028 67.5613,173.862 75.5,176C 80.1548,176.499 84.8215,176.666 89.5,176.5C 89.7934,169.745 89.4601,163.078 88.5,156.5 Z"/></g>
</svg>
