<svg version="1.1" id="Layer_1" xmlns="http://www.w3.org/2000/svg" xmlns:xlink="http://www.w3.org/1999/xlink" x="0px" y="0px"
	 width="100%" viewBox="0 0 180 180" enable-background="new 0 0 180 180" xml:space="preserve">
<path fill="#E3F6FD" opacity="1.000000" stroke="none" 
	d="
M93.000000,1.000000 
	C96.030594,1.000000 99.061188,1.000000 102.544868,1.221653 
	C102.997955,1.443306 103.004845,1.886563 102.587250,1.933479 
	C97.473816,3.547759 100.884079,7.375068 99.908630,10.438828 
	C99.810310,20.948889 99.864372,21.030453 108.929413,24.450523 
	C112.408180,26.499357 115.655838,28.291702 119.137505,30.345505 
	C123.638779,33.640301 126.197266,30.301228 129.253845,27.923538 
	C129.754028,27.675215 129.962738,27.448549 130.439896,27.114685 
	C132.250580,26.070547 133.717133,25.063925 135.505096,24.059299 
	C136.567001,23.720882 137.307480,23.380468 138.380737,22.993584 
	C140.183212,21.946859 141.652878,20.946604 143.495911,19.960709 
	C147.574295,22.984529 151.279312,25.993988 154.583694,29.003883 
	C152.370514,28.482916 150.580444,27.852049 148.738525,27.473808 
	C147.189346,27.155684 145.579773,27.131554 143.695465,27.112803 
	C141.922318,28.141603 140.450653,29.034876 138.669617,29.973188 
	C137.545822,30.615391 136.731400,31.212551 135.588913,31.891737 
	C133.764175,32.920929 132.267502,33.868095 130.455170,34.885509 
	C128.716537,35.869762 127.293571,36.783768 125.493866,37.813210 
	C124.499702,41.287666 123.882286,44.646690 123.201218,48.440811 
	C123.179138,50.924507 123.220703,52.973110 123.194969,55.426308 
	C124.056923,58.007324 124.433762,60.824696 126.043251,62.211845 
	C128.537201,64.361290 131.871979,65.535133 135.084930,67.368713 
	C137.178909,68.530266 139.038177,69.445724 141.098526,70.632835 
	C143.230453,73.151436 145.427750,73.720589 148.340729,71.958435 
	C150.812119,70.669571 152.936584,69.389793 155.394257,68.051834 
	C157.178070,67.011894 158.628693,66.030151 160.419769,65.007530 
	C161.887314,63.996941 163.014404,63.027233 164.540009,62.035683 
	C169.082718,60.230762 166.150055,56.624546 167.011902,53.658821 
	C167.347977,52.550003 167.676773,51.776363 168.278320,51.215759 
	C170.699493,56.952225 172.847916,62.475655 174.663727,68.000381 
	C173.887604,68.002037 173.444107,68.002396 172.718933,67.880081 
	C171.617737,68.158035 170.798218,68.558647 169.735825,68.963974 
	C169.492950,68.968681 169.007324,68.982956 168.688507,69.011505 
	C167.576447,69.672188 166.783218,70.304321 165.658798,70.977081 
	C164.196991,71.658806 163.066391,72.299904 161.625214,72.981812 
	C160.536438,73.657692 159.758224,74.292770 158.623764,74.982994 
	C147.986252,79.567276 147.994003,79.566643 148.890717,90.545563 
	C148.985107,91.701103 148.920837,92.869606 148.921814,94.432983 
	C148.518707,98.433960 146.741898,102.378624 151.471832,104.664932 
	C153.668488,105.726723 155.823318,106.875076 158.292480,108.144974 
	C160.718842,109.545601 162.849808,110.785431 165.181992,112.282852 
	C166.586670,113.039871 167.790131,113.539314 169.114716,114.287231 
	C170.161285,114.363533 171.086700,114.191360 172.342789,114.015419 
	C173.114441,114.010414 173.555435,114.009178 173.996994,114.408524 
	C171.998169,119.541229 169.998779,124.273361 167.997971,128.626022 
	C167.979919,127.488022 167.963287,126.729492 167.955994,125.560715 
	C168.452393,121.296143 167.438828,118.475029 162.824127,117.723412 
	C157.922440,114.721191 153.320068,111.808884 148.486465,109.351326 
	C146.989441,108.590179 144.512939,108.376457 143.091156,109.101318 
	C138.568756,111.406929 134.332001,114.272789 129.663116,117.069199 
	C124.319252,118.900688 122.053612,122.244972 122.980995,127.602043 
	C123.172951,128.710892 123.061974,129.872192 123.062485,131.467194 
	C122.938148,144.125748 122.938148,144.125748 131.179642,147.381241 
	C133.587219,148.779648 135.784348,149.925125 138.044037,151.414276 
	C139.736938,152.517776 141.367294,153.277588 143.144531,154.321655 
	C144.198364,155.073044 145.105286,155.540192 145.974258,156.351624 
	C145.625214,157.800171 145.314117,158.904419 145.001221,160.004333 
	C144.999390,160.000000 145.007751,160.003220 144.631500,160.002075 
	C143.503082,160.004288 142.750885,160.007629 141.843384,159.714050 
	C140.133194,158.604721 138.578323,157.792343 136.810593,156.731750 
	C135.761093,156.291290 134.924454,156.099030 133.909286,155.681808 
	C133.198166,155.282181 132.665604,155.107529 131.953903,154.700806 
	C131.233871,154.285004 130.692947,154.101242 129.928131,153.662354 
	C121.443687,146.381500 121.437386,146.369827 111.920029,151.511871 
	C109.017471,153.080093 106.258438,154.951462 103.259392,156.294968 
	C98.512489,158.421509 95.862892,161.541504 96.991714,167.436310 
	C96.978760,169.917145 96.983452,171.960419 96.977615,174.376984 
	C96.973991,175.497177 96.980911,176.244080 96.976433,177.250854 
	C96.961449,177.684067 96.957863,177.857376 96.953232,178.353729 
	C96.979340,179.106201 97.006477,179.535645 96.597519,179.977631 
	C94.415771,179.976517 92.670135,179.962860 90.968872,179.487274 
	C91.019516,172.684494 91.025772,166.343628 90.898026,159.685715 
	C86.548843,156.891373 82.333664,154.414078 77.909454,151.646423 
	C76.240479,150.670486 74.365662,150.347519 73.393692,149.235443 
	C69.546112,144.833252 66.293419,146.494019 62.644150,149.849991 
	C59.544804,151.392487 56.936764,153.206665 54.059361,154.332306 
	C47.673908,156.830276 44.584167,161.019958 45.667664,167.961273 
	C43.548542,166.623260 41.770157,165.321793 39.994568,163.632904 
	C39.546417,161.895096 39.510071,159.974548 38.572773,159.292953 
	C34.511971,156.339996 30.188025,153.748932 25.750925,150.912354 
	C25.281776,150.600128 25.097075,150.346695 24.987530,149.665192 
	C23.671919,146.503281 22.356749,143.714355 21.258282,140.955032 
	C21.474987,140.984650 21.907364,141.050964 22.083487,141.349823 
	C26.824690,144.170074 31.389771,146.691437 36.108486,149.423767 
	C36.743881,149.818375 37.225639,150.002014 37.932888,150.474625 
	C41.451836,153.679398 44.851357,153.715073 48.439377,151.263885 
	C50.586685,149.796936 52.838028,148.482269 55.389080,147.034607 
	C59.492527,143.873764 66.552132,143.578751 65.063469,135.632416 
	C65.065666,134.505463 65.037987,133.753937 65.050995,132.575256 
	C65.071220,130.433731 65.050751,128.719330 65.072784,126.589310 
	C65.086517,124.783234 65.057747,123.392776 65.074341,121.626434 
	C63.049721,114.997108 57.252438,113.817047 51.970661,111.427444 
	C45.560909,105.305595 44.009819,105.159470 37.049362,109.750877 
	C35.963791,110.466972 34.875721,111.179291 33.448639,111.963264 
	C30.390299,113.537880 27.706707,115.109955 24.944059,116.528023 
	C22.266035,117.902664 21.115417,119.950661 21.484884,123.269768 
	C21.342928,125.744987 21.373089,127.875000 21.290730,130.450043 
	C21.142870,134.251053 21.107531,137.607025 20.721634,140.936615 
	C18.584536,139.605377 16.797995,138.300537 15.008486,136.580170 
	C15.004645,134.780731 15.003773,133.396805 15.003944,131.550217 
	C14.603950,127.007034 14.202909,122.926506 13.747933,118.527206 
	C10.465181,116.474518 7.236365,114.740608 3.834630,112.644104 
	C3.460486,110.122719 3.259260,107.963928 3.301702,105.780556 
	C3.545371,105.755974 4.029241,105.674721 4.297560,105.915741 
	C7.889964,108.041275 11.158872,110.035446 14.568034,111.750877 
	C15.762758,112.352051 17.672276,112.926476 18.624962,112.391151 
	C25.371063,108.600517 33.508415,105.763222 38.046036,100.095238 
	C41.118149,96.257828 39.056103,88.308998 39.285141,82.198845 
	C39.303799,81.701012 39.449627,81.116798 39.248024,80.718773 
	C38.617950,79.474777 38.142399,77.813370 37.086967,77.179337 
	C30.544367,73.249008 23.859470,69.555557 17.088470,65.496445 
	C15.553175,64.209206 14.151220,63.209000 13.072246,61.912895 
	C13.594695,57.414742 13.794165,53.212482 13.996497,48.674217 
	C14.003782,47.890247 14.008204,47.442295 14.310361,46.838890 
	C16.664980,44.465389 18.721865,42.247330 20.835892,40.440098 
	C20.967121,42.231068 21.041212,43.611210 21.052299,45.417595 
	C21.024254,47.562012 21.059212,49.280186 21.034027,51.396187 
	C21.012934,52.862751 21.051983,53.931488 21.031094,55.397728 
	C21.006891,56.864025 21.042627,57.932819 21.049179,59.354584 
	C23.560329,61.516403 26.100664,63.325241 28.869373,65.406830 
	C33.245056,68.124977 37.357624,70.633133 41.567936,72.964767 
	C42.448097,73.452187 43.963360,73.772934 44.718655,73.345245 
	C49.322891,70.738075 53.792175,67.892570 58.636658,65.054062 
	C61.032993,62.986469 63.099140,60.991371 65.202530,58.597015 
	C65.215271,57.129173 65.190765,56.060593 65.202896,54.593178 
	C65.221939,53.126335 65.204346,52.058323 65.326904,50.639748 
	C65.495049,48.522377 65.523026,46.755573 65.650307,44.596466 
	C65.633209,41.803299 67.046509,38.791332 62.998177,37.612198 
	C60.214111,35.882988 57.652042,34.414169 54.846924,32.696297 
	C53.705807,32.040829 52.596455,31.846424 51.942661,31.194880 
	C46.022358,25.294947 40.154190,26.572044 34.241623,31.151583 
	C33.457527,31.758898 32.635197,32.316849 31.491665,32.963486 
	C28.478418,34.474056 25.804077,35.918800 23.112623,36.983883 
	C25.394955,33.410309 27.694399,30.216389 30.295696,26.863968 
	C32.906647,25.213526 35.431927,23.962730 37.453709,22.150290 
	C38.962543,20.797684 39.820904,18.719467 41.033752,16.629751 
	C43.402096,14.862536 45.705620,13.429946 48.004555,12.423254 
	C48.253258,15.263225 48.506554,17.677298 48.964180,20.336817 
	C49.759460,20.768343 50.350403,20.954422 50.961090,21.105068 
	C50.980831,21.069637 50.899712,21.069098 50.996380,21.324226 
	C51.408649,21.746143 51.724247,21.912931 52.161209,22.149433 
	C52.282570,22.219145 52.562248,22.207666 52.743324,22.502079 
	C53.922009,23.302128 54.919617,23.807760 56.074211,24.494680 
	C56.678234,24.823807 57.125263,24.971647 57.745941,25.430222 
	C61.449394,27.869520 64.921707,30.104818 68.546440,32.057144 
	C69.544586,32.594757 71.234245,32.761753 72.198334,32.280663 
	C75.277962,30.743902 78.165787,28.822784 81.466858,26.987774 
	C84.321388,25.330151 86.836739,23.734831 89.689911,22.055153 
	C92.544868,20.254227 93.535271,17.979582 92.682304,14.628081 
	C92.723640,13.513684 92.660995,12.764319 92.708679,11.575500 
	C92.843109,8.441448 92.867210,5.746852 92.955978,2.714176 
	C93.013763,1.917397 93.006882,1.458699 93.000000,1.000000 
M71.899170,130.860031 
	C71.915718,132.576660 71.932266,134.293274 71.900711,136.747345 
	C71.889679,137.485306 71.878647,138.223267 71.462875,139.428391 
	C74.308228,141.606522 77.153580,143.784668 80.607727,146.290222 
	C84.181526,148.398605 87.698433,150.614517 91.362137,152.552979 
	C92.534477,153.173264 94.434494,153.699387 95.423065,153.175949 
	C101.406975,150.007721 107.223320,146.523026 113.818977,142.980347 
	C117.228386,142.208557 117.189323,139.680283 116.942673,136.118729 
	C116.918335,133.747711 116.893997,131.376709 116.946800,128.107574 
	C116.337410,124.163757 119.233429,118.968552 112.414520,116.731827 
	C111.384254,116.437874 110.353981,116.143921 108.879372,115.338860 
	C107.244812,114.255577 105.610260,113.172295 103.347237,111.953331 
	C102.395103,111.539696 101.442978,111.126053 99.994591,110.193024 
	C97.515213,108.393867 95.347046,105.547798 91.684761,107.667778 
	C85.937996,110.994400 80.077232,114.149345 74.540115,117.795204 
	C73.144646,118.714050 72.794235,121.220055 71.894974,123.870880 
	C71.918121,125.915436 71.941261,127.959991 71.899170,130.860031 
M129.613098,71.317139 
	C129.002823,71.092796 128.277161,71.010620 127.799477,70.622917 
	C119.753357,64.092476 120.821716,65.448311 113.155609,69.922798 
	C112.326202,70.406898 111.613426,71.090828 110.159035,71.880608 
	C106.687737,73.831169 103.018944,75.513626 99.837265,77.857346 
	C98.464088,78.868866 98.098198,81.247818 97.098618,83.920525 
	C97.132545,88.274818 97.166466,92.629120 97.040092,97.701866 
	C97.290504,98.839836 97.540916,99.977798 98.141449,101.698395 
	C100.093727,102.773338 102.045998,103.848274 104.355331,105.083946 
	C104.355331,105.083946 104.741623,105.148033 105.141487,105.698036 
	C106.329536,106.197716 107.517578,106.697388 109.115013,107.758217 
	C110.719093,108.580124 112.323166,109.402023 114.355774,110.717804 
	C115.889679,111.528381 117.423592,112.338966 119.430649,113.622253 
	C120.615845,113.296722 121.923630,113.190002 122.964546,112.606911 
	C126.993172,110.350143 130.756958,107.532059 134.955551,105.688690 
	C140.772812,103.134644 143.342255,99.279495 142.014648,92.137688 
	C141.993393,90.422279 141.972153,88.706879 142.006271,86.107063 
	C141.380585,83.314003 140.754913,80.520950 139.736679,77.311272 
	C138.993607,77.152718 138.250549,76.994171 137.199799,76.187416 
	C134.834335,74.719368 132.468887,73.251320 129.613098,71.317139 
M112.076462,36.165188 
	C109.482208,34.717548 106.887955,33.269913 103.846886,31.287889 
	C101.747314,29.988607 99.748749,28.461226 97.512375,27.470860 
	C96.040688,26.819132 93.926544,26.272520 92.626884,26.854753 
	C89.816788,28.113644 87.345528,30.128887 84.071587,31.969648 
	C82.017456,33.219505 79.963326,34.469360 77.201065,35.901043 
	C74.087646,37.250191 71.040985,38.646824 72.026833,43.850506 
	C72.062225,45.566803 72.097618,47.283104 72.008812,49.868233 
	C72.042145,51.913147 72.075478,53.958061 71.986664,56.803104 
	C71.103111,62.095066 75.360283,62.709732 79.135857,64.710136 
	C83.375267,67.231995 87.557640,69.859322 91.893089,72.203560 
	C93.015091,72.810234 94.923470,73.104424 95.946098,72.558891 
	C100.836479,69.950073 105.546494,67.003151 111.007149,64.050850 
	C114.358673,62.394779 118.181679,61.075405 116.889648,55.138035 
	C116.844414,53.093494 116.799171,51.048958 116.891266,48.157551 
	C116.852890,46.447193 116.814514,44.736835 116.917488,42.231213 
	C117.586800,38.712360 115.760300,37.150673 112.076462,36.165188 
M60.140503,71.171227 
	C56.555740,73.197037 52.818096,75.004944 49.463348,77.358604 
	C48.166954,78.268143 47.738934,80.415405 46.819511,82.931892 
	C46.808712,84.094635 46.971737,85.290085 46.760101,86.415047 
	C44.744133,97.131104 48.387848,104.579536 59.029182,108.176598 
	C60.414871,108.645012 61.706524,109.531395 62.893707,110.421585 
	C66.763008,113.322937 70.283295,113.301125 74.708420,110.865349 
	C91.770180,101.473824 91.861374,101.639496 91.158821,81.218079 
	C90.335518,79.762733 89.870445,77.689766 88.622765,76.966095 
	C84.640900,74.656555 80.368378,72.848122 75.772583,70.311691 
	C69.202911,64.537064 68.674507,64.556076 60.140503,71.171227 
z"/>
<path fill="#FEFFFF" opacity="1.000000" stroke="none" 
	d="
M90.924492,179.949219 
	C92.670135,179.962860 94.415771,179.976517 97.021713,179.993500 
	C100.492027,179.643372 103.219269,179.656128 105.689339,178.865479 
	C112.226089,176.773178 118.651527,174.333115 125.342377,172.044891 
	C125.563477,172.058319 126.006332,172.046143 126.260155,172.034515 
	C126.682350,172.004257 126.850731,171.985611 127.303886,171.937286 
	C128.042099,171.600998 128.495514,171.294418 129.249817,170.967606 
	C130.036942,170.635345 130.523178,170.323318 131.336105,169.871521 
	C136.111115,166.488907 140.559433,163.246078 145.007751,160.003235 
	C145.007751,160.003220 144.999390,160.000000 145.342590,159.965164 
	C146.796387,158.626007 147.906998,157.321686 149.336899,155.989075 
	C150.438339,155.303833 151.220490,154.646896 152.213867,153.881332 
	C152.689438,153.581329 152.880051,153.333298 153.341492,152.985565 
	C157.145737,149.241714 161.325821,145.986023 163.936371,141.760620 
	C173.586624,126.140846 180.254303,109.449852 180.044632,90.631790 
	C180.012619,87.758430 180.664444,84.877457 181.000000,82.000000 
	C181.000000,114.959633 181.000000,147.919266 181.000000,180.939453 
	C121.113815,180.939453 61.227554,180.939453 1.000000,180.939453 
	C1.000000,154.980103 1.000000,128.958710 1.296825,102.609245 
	C2.081777,103.455826 2.569905,104.630486 3.058033,105.805138 
	C3.259260,107.963928 3.460486,110.122719 3.897020,113.017456 
	C5.082309,116.523827 6.032290,119.294243 6.991956,122.435730 
	C9.664871,127.874802 12.328103,132.942810 15.036793,138.355728 
	C18.384155,142.479813 21.686062,146.258987 24.987968,150.038162 
	C25.097075,150.346695 25.281776,150.600128 25.801537,151.252853 
	C30.704590,155.811600 35.348183,159.915970 39.991776,164.020325 
	C41.770157,165.321793 43.548542,166.623260 45.976662,168.117645 
	C49.419895,169.546127 52.213394,170.781693 55.375076,172.083252 
	C66.919029,177.235870 78.525513,180.379791 90.924492,179.949219 
z"/>
<path fill="#FEFFFF" opacity="1.000000" stroke="none" 
	d="
M103.004845,1.886562 
	C103.004845,1.886563 102.997955,1.443306 102.998978,1.221653 
	C128.927353,1.000000 154.854691,1.000000 181.000000,1.000000 
	C181.000000,27.020489 181.000000,53.041584 180.622162,79.455650 
	C179.164642,76.231667 178.084946,72.614716 177.002716,68.594788 
	C174.342972,61.787361 171.685760,55.382912 168.874878,48.657951 
	C164.142242,41.892780 159.563293,35.448112 154.984344,29.003448 
	C151.279312,25.993988 147.574295,22.984529 143.330109,19.659016 
	C140.218124,17.525513 137.645309,15.708061 134.856796,13.636612 
	C132.090698,11.937207 129.540298,10.491801 126.609344,9.007351 
	C124.956093,8.919814 123.683395,8.871322 122.270981,8.487118 
	C119.754372,7.100647 117.377487,6.049889 114.628624,4.975961 
	C112.166542,4.329325 110.076424,3.705860 107.652679,2.929397 
	C105.880981,2.479787 104.442909,2.183174 103.004845,1.886562 
z"/>
<path fill="#FEFFFF" opacity="1.000000" stroke="none" 
	d="
M48.009144,11.997356 
	C45.705620,13.429946 43.402096,14.862536 40.670963,16.646429 
	C36.159901,20.329782 32.076447,23.661833 27.696899,27.146526 
	C21.957302,32.829617 16.112303,38.071217 13.624786,46.043922 
	C10.603591,50.187336 7.016608,53.881973 7.427722,59.571671 
	C6.112423,62.845242 5.116625,65.925896 3.869469,69.265106 
	C3.441032,70.684067 3.263954,71.844467 3.004359,73.366615 
	C2.921328,74.468315 2.920813,75.208275 2.631321,76.138000 
	C1.894897,77.551857 1.447448,78.775925 0.999999,80.000000 
	C1.000000,53.740719 1.000000,27.481440 1.000000,1.000000 
	C26.353796,1.000000 51.708241,1.000000 77.338989,1.333707 
	C68.692444,4.684073 59.769592,7.700733 50.569984,10.779026 
	C49.843086,11.158544 49.392952,11.476427 48.706669,11.832510 
	C48.470520,11.870708 48.009144,11.997356 48.009144,11.997356 
z"/>
<path fill="#81F695" opacity="1.000000" stroke="none" 
	d="
M50.846748,10.717392 
	C59.769592,7.700733 68.692444,4.684073 77.807648,1.333707 
	C78.750000,1.000000 79.500000,1.000000 80.901581,1.300700 
	C85.032127,2.068471 88.511101,2.535543 91.591187,3.002360 
	C85.427307,2.562841 83.809357,6.891082 81.530838,10.998924 
	C71.361107,11.216314 61.660126,11.443784 51.958092,11.610010 
	C51.592846,11.616267 51.217426,11.028399 50.846748,10.717392 
z"/>
<path fill="#D8EAF2" opacity="1.000000" stroke="none" 
	d="
M177.005249,68.997757 
	C178.084946,72.614716 179.164642,76.231667 180.622162,79.924309 
	C181.000000,80.444443 181.000000,80.888893 181.000000,81.666672 
	C180.664444,84.877457 180.012619,87.758430 180.044632,90.631790 
	C180.254303,109.449852 173.586624,126.140846 163.936371,141.760620 
	C161.325821,145.986023 157.145737,149.241714 153.379120,152.636871 
	C153.943146,151.159729 154.897385,150.040482 155.671158,148.807953 
	C159.805420,142.222717 163.894623,135.609222 167.999390,129.005493 
	C169.998779,124.273361 171.998169,119.541229 174.252411,114.194687 
	C174.673218,112.720428 174.839188,111.860596 175.280136,110.728867 
	C179.164124,96.583885 178.438049,82.767746 175.342743,68.990219 
	C176.118500,68.994820 176.561874,68.996292 177.005249,68.997757 
z"/>
<path fill="#46CAEB" opacity="1.000000" stroke="none" 
	d="
M0.999999,80.333328 
	C1.447448,78.775925 1.894897,77.551857 2.898007,76.351006 
	C3.636133,77.251114 3.818598,78.127998 3.988430,79.427078 
	C3.649827,82.758469 3.006634,85.674057 3.065192,88.575485 
	C3.180310,94.279396 3.685457,99.975426 4.029241,105.674721 
	C4.029241,105.674721 3.545371,105.755974 3.301702,105.780556 
	C2.569905,104.630486 2.081777,103.455826 1.296825,102.140587 
	C1.000000,99.958336 1.000000,97.916664 1.289005,95.153397 
	C1.681236,91.596222 1.784461,88.760651 1.917273,85.565079 
	C1.631240,84.136726 1.315620,83.068367 1.000000,82.000000 
	C1.000000,81.555557 1.000000,81.111107 0.999999,80.333328 
z"/>
<path fill="#9FF3B8" opacity="1.000000" stroke="none" 
	d="
M91.990074,3.002614 
	C88.511101,2.535543 85.032127,2.068471 81.276581,1.300700 
	C84.692909,1.000000 88.385818,1.000000 92.539368,1.000000 
	C93.006882,1.458699 93.013763,1.917397 92.731041,2.701968 
	C92.441437,3.027840 91.990074,3.002614 91.990074,3.002614 
z"/>
<path fill="#75D6F0" opacity="1.000000" stroke="none" 
	d="
M1.887687,85.925072 
	C1.784461,88.760651 1.681236,91.596222 1.289005,94.715897 
	C1.000000,92.299988 1.000000,89.599968 1.222155,86.434013 
	C1.444310,85.968071 1.887686,85.925072 1.887687,85.925072 
z"/>
<path fill="#9CDFF2" opacity="1.000000" stroke="none" 
	d="
M1.917273,85.565079 
	C1.887686,85.925072 1.444310,85.968071 1.222155,85.984039 
	C1.000000,84.933327 1.000000,83.866661 1.000000,82.399994 
	C1.315620,83.068367 1.631240,84.136726 1.917273,85.565079 
z"/>
<path fill="#3FD3F7" opacity="1.000000" stroke="none" 
	d="
M4.297560,105.915741 
	C3.685457,99.975426 3.180310,94.279396 3.065192,88.575485 
	C3.006634,85.674057 3.649827,82.758469 4.339143,79.384598 
	C6.471800,75.938042 8.241110,72.956161 10.307894,69.802414 
	C12.810849,68.348190 15.016331,67.065834 17.221809,65.783478 
	C23.859470,69.555557 30.544367,73.249008 37.086967,77.179337 
	C38.142399,77.813370 38.617950,79.474777 39.248024,80.718773 
	C39.449627,81.116798 39.303799,81.701012 39.285141,82.198845 
	C39.056103,88.308998 41.118149,96.257828 38.046036,100.095238 
	C33.508415,105.763222 25.371063,108.600517 18.624962,112.391151 
	C17.672276,112.926476 15.762758,112.352051 14.568034,111.750877 
	C11.158872,110.035446 7.889964,108.041275 4.297560,105.915741 
z"/>
<path fill="#60AAFE" opacity="1.000000" stroke="none" 
	d="
M91.062523,81.998192 
	C91.861374,101.639496 91.770180,101.473824 74.708420,110.865349 
	C70.283295,113.301125 66.763008,113.322937 62.893707,110.421585 
	C61.706524,109.531395 60.414871,108.645012 59.029182,108.176598 
	C48.387848,104.579536 44.744133,97.131104 46.760101,86.415047 
	C46.971737,85.290085 46.808712,84.094635 47.343929,82.465302 
	C62.266407,81.998535 76.664467,81.998360 91.062523,81.998192 
z"/>
<path fill="#9AF8FD" opacity="1.000000" stroke="none" 
	d="
M90.968872,179.487289 
	C78.525513,180.379791 66.919029,177.235870 55.372826,171.747055 
	C55.000706,170.896927 54.999023,170.448975 55.148132,169.702545 
	C58.866455,166.269577 62.433990,163.135086 66.470078,160.000366 
	C74.969765,160.000992 83.000900,160.001877 91.032036,160.002762 
	C91.025772,166.343628 91.019516,172.684494 90.968872,179.487289 
z"/>
<path fill="#5BB7FF" opacity="1.000000" stroke="none" 
	d="
M21.657003,122.924568 
	C21.115417,119.950661 22.266035,117.902664 24.944059,116.528023 
	C27.706707,115.109955 30.390299,113.537880 33.879562,112.039825 
	C40.478874,111.934708 46.307102,111.822937 52.135330,111.711174 
	C57.252438,113.817047 63.049721,114.997108 64.640213,121.625664 
	C60.774384,122.334679 57.388054,122.668564 53.598618,123.002808 
	C42.682671,122.976967 32.169838,122.950768 21.657003,122.924568 
z"/>
<path fill="#61AFF5" opacity="1.000000" stroke="none" 
	d="
M91.110672,81.608139 
	C76.664467,81.998360 62.266407,81.998535 47.391819,81.998749 
	C47.738934,80.415405 48.166954,78.268143 49.463348,77.358604 
	C52.818096,75.004944 56.555740,73.197037 60.872688,71.103310 
	C66.472618,70.972321 71.340363,70.909241 76.208107,70.846169 
	C80.368378,72.848122 84.640900,74.656555 88.622765,76.966095 
	C89.870445,77.689766 90.335518,79.762733 91.110672,81.608139 
z"/>
<path fill="#A5DDFE" opacity="1.000000" stroke="none" 
	d="
M123.090607,131.009323 
	C123.061974,129.872192 123.172951,128.710892 122.980995,127.602043 
	C122.053612,122.244972 124.319252,118.900688 129.720276,117.460190 
	C130.573914,118.340584 130.992981,119.473404 131.532257,119.533829 
	C135.378510,119.964859 139.260345,120.502190 143.109283,120.371307 
	C147.307999,120.228516 151.309235,119.937859 153.993698,124.382248 
	C152.324097,128.175491 150.662628,131.586823 148.625885,134.998764 
	C147.499985,134.999969 146.749390,135.000595 145.949387,134.630890 
	C143.718018,133.174042 141.599548,131.342300 139.341370,131.149841 
	C133.959564,130.691116 128.511749,131.006561 123.090607,131.009323 
z"/>
<path fill="#66C8D9" opacity="1.000000" stroke="none" 
	d="
M116.753929,49.004417 
	C116.799171,51.048958 116.844414,53.093494 116.373276,55.570404 
	C101.274208,56.002838 86.691513,56.002907 72.108810,56.002975 
	C72.075478,53.958061 72.042145,51.913147 72.527161,49.434273 
	C87.614990,49.001682 102.184456,49.003052 116.753929,49.004417 
z"/>
<path fill="#63C0E2" opacity="1.000000" stroke="none" 
	d="
M72.047737,56.403038 
	C86.691513,56.002907 101.274208,56.002838 116.304825,56.004089 
	C118.181679,61.075405 114.358673,62.394779 110.252899,63.926300 
	C102.453949,63.534447 95.410187,63.111816 88.364136,63.069443 
	C85.141357,63.050064 81.914062,63.779495 78.688820,64.169319 
	C75.360283,62.709732 71.103111,62.095066 72.047737,56.403038 
z"/>
<path fill="#9AF2FE" opacity="1.000000" stroke="none" 
	d="
M97.009377,166.998749 
	C95.862892,161.541504 98.512489,158.421509 103.259392,156.294968 
	C106.258438,154.951462 109.017471,153.080093 111.920029,151.511871 
	C121.437386,146.369827 121.443687,146.381500 129.592957,153.815033 
	C125.792313,156.083374 122.230057,158.280838 118.385918,159.731247 
	C111.348267,162.386597 104.144104,164.600662 97.009377,166.998749 
z"/>
<path fill="#AEDBFF" opacity="1.000000" stroke="none" 
	d="
M154.001831,124.000343 
	C151.309235,119.937859 147.307999,120.228516 143.109283,120.371307 
	C139.260345,120.502190 135.378510,119.964859 131.532257,119.533829 
	C130.992981,119.473404 130.573914,118.340584 130.042023,117.313164 
	C134.332001,114.272789 138.568756,111.406929 143.091156,109.101318 
	C144.512939,108.376457 146.989441,108.590179 148.486465,109.351326 
	C153.320068,111.808884 157.922440,114.721191 162.578201,117.895409 
	C162.359818,118.889023 162.177155,119.445473 161.647675,120.041016 
	C158.867844,121.386856 156.434830,122.693596 154.001831,124.000343 
z"/>
<path fill="#6AD7CB" opacity="1.000000" stroke="none" 
	d="
M63.220165,37.872581 
	C67.046509,38.791332 65.633209,41.803299 65.223488,44.601078 
	C50.170017,44.995781 35.642658,44.993568 21.115303,44.991356 
	C21.041212,43.611210 20.967121,42.231068 21.011751,40.172997 
	C21.797560,39.005524 22.464649,38.515972 23.502075,38.202187 
	C36.385525,38.479473 48.898590,38.592415 61.411903,38.647495 
	C62.013512,38.650139 62.617359,38.142559 63.220165,37.872581 
z"/>
<path fill="#68CFD4" opacity="1.000000" stroke="none" 
	d="
M21.052299,45.417595 
	C35.642658,44.993568 50.170017,44.995781 65.124191,44.993385 
	C65.523026,46.755573 65.495049,48.522377 64.839249,50.642555 
	C49.839016,50.996746 35.466595,50.997555 21.094170,50.998363 
	C21.059212,49.280186 21.024254,47.562012 21.052299,45.417595 
z"/>
<path fill="#9CEAFF" opacity="1.000000" stroke="none" 
	d="
M113.095665,143.144073 
	C107.223320,146.523026 101.406975,150.007721 95.423065,153.175949 
	C94.434494,153.699387 92.534477,153.173264 91.362137,152.552979 
	C87.698433,150.614517 84.181526,148.398605 80.366745,145.782471 
	C83.153275,143.851013 86.079987,141.558212 89.230263,141.192810 
	C94.974213,140.526566 100.860085,140.812866 106.666985,141.100647 
	C108.838303,141.208252 110.954399,142.430206 113.095665,143.144073 
z"/>
<path fill="#67D1D0" opacity="1.000000" stroke="none" 
	d="
M116.822601,48.580986 
	C102.184456,49.003052 87.614990,49.001682 72.589264,48.999855 
	C72.097618,47.283104 72.062225,45.566803 72.543350,43.425674 
	C85.146049,43.326439 97.231613,43.682667 109.319389,43.930645 
	C110.539291,43.955669 111.772606,43.326633 113.378899,43.001114 
	C114.764114,43.009556 115.770126,43.018017 116.776138,43.026478 
	C116.814514,44.736835 116.852890,46.447193 116.822601,48.580986 
z"/>
<path fill="#56C2FF" opacity="1.000000" stroke="none" 
	d="
M21.484884,123.269768 
	C32.169838,122.950768 42.682671,122.976967 53.559536,123.346588 
	C52.282429,126.125648 50.641293,128.561295 48.749863,130.998459 
	C48.332710,131.000992 48.165848,131.002029 47.576412,131.014252 
	C40.867287,131.350494 34.581127,131.880676 28.293978,131.892776 
	C25.998287,131.897186 23.700230,130.670212 21.403252,130.005020 
	C21.373089,127.875000 21.342928,125.744987 21.484884,123.269768 
z"/>
<path fill="#9DE3FF" opacity="1.000000" stroke="none" 
	d="
M123.062485,131.467194 
	C128.511749,131.006561 133.959564,130.691116 139.341370,131.149841 
	C141.599548,131.342300 143.718018,133.174042 145.796631,134.933228 
	C143.013412,137.457458 140.244934,139.195297 137.679718,141.194016 
	C135.328827,143.025726 133.197342,145.139053 130.969193,147.128311 
	C122.938148,144.125748 122.938148,144.125748 123.062485,131.467194 
z"/>
<path fill="#9BE4FE" opacity="1.000000" stroke="none" 
	d="
M113.457321,143.062210 
	C110.954399,142.430206 108.838303,141.208252 106.666985,141.100647 
	C100.860085,140.812866 94.974213,140.526566 89.230263,141.192810 
	C86.079987,141.558212 83.153275,143.851013 80.062347,145.618774 
	C77.153580,143.784668 74.308228,141.606522 72.088501,139.209625 
	C74.477776,138.661224 76.362915,138.622391 77.981697,137.946045 
	C82.381104,136.107910 86.667747,133.999847 91.374268,131.999390 
	C92.499840,132.001205 93.250221,132.002426 94.000809,132.434235 
	C93.563049,136.111679 95.022888,137.154007 98.204773,137.055908 
	C104.418579,136.864319 110.642570,137.003265 116.862350,137.005356 
	C117.189323,139.680283 117.228386,142.208557 113.457321,143.062210 
z"/>
<path fill="#78F0A4" opacity="1.000000" stroke="none" 
	d="
M48.004555,12.423254 
	C48.009144,11.997356 48.470520,11.870708 48.728310,12.270294 
	C48.712746,16.271820 51.193859,16.063204 53.582268,16.001026 
	C66.580894,15.662629 79.579628,15.328629 92.578323,14.993114 
	C93.535271,17.979582 92.544868,20.254227 89.242729,21.970230 
	C79.724037,21.646494 70.992233,21.220465 62.255554,21.060608 
	C59.507805,21.010332 56.746975,21.674589 53.632866,22.047668 
	C53.036488,22.124908 52.799370,22.166286 52.562248,22.207666 
	C52.562248,22.207666 52.282570,22.219145 52.032471,21.917492 
	C51.488155,21.433592 51.193932,21.251345 50.899712,21.069098 
	C50.899712,21.069098 50.980831,21.069637 50.794128,20.822865 
	C49.991562,20.414518 49.375706,20.252945 48.759846,20.091370 
	C48.506554,17.677298 48.253258,15.263225 48.004555,12.423254 
z"/>
<path fill="#63AEF6" opacity="1.000000" stroke="none" 
	d="
M97.274734,83.005585 
	C98.098198,81.247818 98.464088,78.868866 99.837265,77.857346 
	C103.018944,75.513626 106.687737,73.831169 110.744064,72.110809 
	C115.888741,73.227440 120.448402,74.113876 124.970985,75.338593 
	C124.288467,77.117310 123.643013,78.557739 122.646439,80.039375 
	C119.530312,81.387360 116.765305,82.694138 113.698639,83.714104 
	C108.022896,83.286720 102.648811,83.146156 97.274734,83.005585 
z"/>
<path fill="#BCDCFE" opacity="1.000000" stroke="none" 
	d="
M164.980774,112.025269 
	C162.849808,110.785431 160.718842,109.545601 158.292145,107.745178 
	C155.195328,100.841286 156.947250,94.821617 159.160965,88.767616 
	C160.453949,85.231644 161.594818,81.613182 162.418671,77.945251 
	C162.767639,76.391701 162.126770,74.615837 161.935776,72.941010 
	C163.066391,72.299904 164.196991,71.658806 165.661926,71.419922 
	C165.916550,73.304657 166.027176,74.826988 165.726578,76.263245 
	C163.656219,86.154724 162.546188,95.986336 165.685028,105.934875 
	C166.246307,107.713852 165.255142,109.982643 164.980774,112.025269 
z"/>
<path fill="#62BEE4" opacity="1.000000" stroke="none" 
	d="
M28.640999,65.134079 
	C26.100664,63.325241 23.560329,61.516403 21.510454,59.354164 
	C36.389038,58.999271 50.777164,58.997776 65.165283,58.996277 
	C63.099140,60.991371 61.032993,62.986469 58.194862,64.971802 
	C47.828922,65.019386 38.234959,65.076729 28.640999,65.134079 
z"/>
<path fill="#59CEFF" opacity="1.000000" stroke="none" 
	d="
M21.290730,130.450043 
	C23.700230,130.670212 25.998287,131.897186 28.293978,131.892776 
	C34.581127,131.880676 40.867287,131.350494 47.538074,131.362946 
	C47.379116,133.267715 46.835922,134.834991 46.107059,136.937958 
	C48.605305,136.116974 50.297729,135.560791 51.991745,135.252411 
	C51.993336,135.500183 51.997620,135.995728 51.887386,136.253128 
	C51.516232,137.004990 51.255310,137.499435 50.596001,137.995026 
	C48.130314,138.330978 46.063023,138.665802 43.531509,139.000214 
	C36.013985,139.683533 28.960674,140.367249 21.907364,141.050964 
	C21.907364,141.050964 21.474987,140.984650 21.237139,140.989685 
	C20.999290,140.994720 21.072191,140.962997 21.072191,140.962997 
	C21.107531,137.607025 21.142870,134.251053 21.290730,130.450043 
z"/>
<path fill="#6BD8C8" opacity="1.000000" stroke="none" 
	d="
M112.999695,43.001137 
	C111.772606,43.326633 110.539291,43.955669 109.319389,43.930645 
	C97.231613,43.682667 85.146049,43.326439 72.605225,43.000557 
	C71.040985,38.646824 74.087646,37.250191 77.657425,36.229904 
	C79.713112,37.039131 81.306580,37.910927 82.912758,37.935017 
	C91.939835,38.070408 100.969963,38.001667 110.034119,38.333466 
	C111.046021,40.109955 112.022850,41.555546 112.999695,43.001137 
z"/>
<path fill="#7BF49B" opacity="1.000000" stroke="none" 
	d="
M92.682304,14.628081 
	C79.579628,15.328629 66.580894,15.662629 53.582268,16.001026 
	C51.193859,16.063204 48.712746,16.271820 48.964462,12.232096 
	C49.392952,11.476427 49.843086,11.158544 50.569984,10.779026 
	C51.217426,11.028399 51.592846,11.616267 51.958092,11.610010 
	C61.660126,11.443784 71.361107,11.216314 81.823135,11.281452 
	C85.922119,11.714077 89.260239,11.864516 92.598351,12.014956 
	C92.660995,12.764319 92.723640,13.513684 92.682304,14.628081 
z"/>
<path fill="#CAEFED" opacity="1.000000" stroke="none" 
	d="
M154.583694,29.003883 
	C159.563293,35.448112 164.142242,41.892780 168.756012,48.916542 
	C168.529083,49.997997 168.267334,50.500362 168.005585,51.002724 
	C167.676773,51.776363 167.347977,52.550003 166.656006,53.616318 
	C165.498764,52.989468 164.645721,52.113865 163.921936,51.141998 
	C161.918625,48.452015 159.969223,45.721882 157.849640,42.708874 
	C154.136032,38.940002 150.571304,35.469872 146.971161,31.667997 
	C145.956161,29.883259 144.976547,28.430267 143.996948,26.977274 
	C145.579773,27.131554 147.189346,27.155684 148.738525,27.473808 
	C150.580444,27.852049 152.370514,28.482916 154.583694,29.003883 
z"/>
<path fill="#B6D9FD" opacity="1.000000" stroke="none" 
	d="
M161.625214,72.981812 
	C162.126770,74.615837 162.767639,76.391701 162.418671,77.945251 
	C161.594818,81.613182 160.453949,85.231644 159.160965,88.767616 
	C156.947250,94.821617 155.195328,100.841286 157.996750,107.584389 
	C155.823318,106.875076 153.668488,105.726723 151.471832,104.664932 
	C146.741898,102.378624 148.518707,98.433960 149.270538,94.369614 
	C152.745087,87.579521 155.862549,81.253693 158.980011,74.927856 
	C159.758224,74.292770 160.536438,73.657692 161.625214,72.981812 
z"/>
<path fill="#CBF1FD" opacity="1.000000" stroke="none" 
	d="
M167.997971,128.626022 
	C163.894623,135.609222 159.805420,142.222717 155.671158,148.807953 
	C154.897385,150.040482 153.943146,151.159729 153.034546,152.679932 
	C152.880051,153.333298 152.689438,153.581329 151.877441,153.884094 
	C150.550385,154.322403 149.771011,154.649323 148.694839,155.008194 
	C147.923080,155.360703 147.448105,155.681259 146.732910,156.002838 
	C146.492676,156.003845 146.012207,156.007324 146.012207,156.007324 
	C145.105286,155.540192 144.198364,155.073044 143.182144,153.974640 
	C145.048492,151.226685 147.024139,149.109985 149.298691,146.845825 
	C154.122192,141.023026 158.570679,135.284149 163.221542,129.714279 
	C164.482452,128.204208 166.354904,127.204773 167.946655,125.970963 
	C167.963287,126.729492 167.979919,127.488022 167.997971,128.626022 
z"/>
<path fill="#77C0FF" opacity="1.000000" stroke="none" 
	d="
M71.963577,122.996689 
	C72.794235,121.220055 73.144646,118.714050 74.540115,117.795204 
	C80.077232,114.149345 85.937996,110.994400 91.684761,107.667778 
	C95.347046,105.547798 97.515213,108.393867 99.906082,110.655678 
	C94.878685,114.078888 89.939796,117.039444 84.604263,120.000717 
	C80.126274,120.999855 76.044922,121.998268 71.963577,122.996689 
z"/>
<path fill="#64BAEA" opacity="1.000000" stroke="none" 
	d="
M78.912338,64.439728 
	C81.914062,63.779495 85.141357,63.050064 88.364136,63.069443 
	C95.410187,63.111816 102.453949,63.534447 109.909637,63.989082 
	C105.546494,67.003151 100.836479,69.950073 95.946098,72.558891 
	C94.923470,73.104424 93.015091,72.810234 91.893089,72.203560 
	C87.557640,69.859322 83.375267,67.231995 78.912338,64.439728 
z"/>
<path fill="#8EC3FE" opacity="1.000000" stroke="none" 
	d="
M140.129227,77.727890 
	C140.754913,80.520950 141.380585,83.314003 141.602127,86.552719 
	C139.496216,87.801765 137.529617,88.292473 136.142456,89.467331 
	C132.017334,92.961121 128.089035,96.690865 124.143112,100.391617 
	C120.696060,103.624519 117.329414,106.943161 113.927246,110.223923 
	C112.323166,109.402023 110.719093,108.580124 109.280930,107.388100 
	C117.621437,100.175903 125.944382,93.499680 133.885864,86.396957 
	C136.477982,84.078621 138.076370,80.649170 140.129227,77.727890 
z"/>
<path fill="#99C9FF" opacity="1.000000" stroke="none" 
	d="
M114.141510,110.470856 
	C117.329414,106.943161 120.696060,103.624519 124.143112,100.391617 
	C128.089035,96.690865 132.017334,92.961121 136.142456,89.467331 
	C137.529617,88.292473 139.496216,87.801765 141.574432,86.994919 
	C141.972153,88.706879 141.993393,90.422279 141.633133,92.574036 
	C133.820236,99.723427 126.388870,106.436485 118.957497,113.149544 
	C117.423592,112.338966 115.889679,111.528381 114.141510,110.470856 
z"/>
<path fill="#6EDCC2" opacity="1.000000" stroke="none" 
	d="
M62.998177,37.612198 
	C62.617359,38.142559 62.013512,38.650139 61.411903,38.647495 
	C48.898590,38.592415 36.385525,38.479473 23.502232,38.036400 
	C23.132050,37.694839 23.129736,37.363541 23.129736,37.363541 
	C25.804077,35.918800 28.478418,34.474056 31.888472,33.145004 
	C40.112778,33.155579 47.601376,33.050465 55.089970,32.945351 
	C57.652042,34.414169 60.214111,35.882988 62.998177,37.612198 
z"/>
<path fill="#63C3DF" opacity="1.000000" stroke="none" 
	d="
M65.202530,58.597015 
	C50.777164,58.997776 36.389038,58.999271 21.539639,59.001190 
	C21.042627,57.932819 21.006891,56.864025 21.491167,55.397820 
	C36.396206,54.997608 50.781231,54.994808 65.166260,54.992012 
	C65.190765,56.060593 65.215271,57.129173 65.202530,58.597015 
z"/>
<path fill="#65C8DA" opacity="1.000000" stroke="none" 
	d="
M65.202896,54.593178 
	C50.781231,54.994808 36.396206,54.997608 21.551104,55.000313 
	C21.051983,53.931488 21.012934,52.862751 21.034027,51.396187 
	C35.466595,50.997555 49.839016,50.996746 64.699097,50.993126 
	C65.204346,52.058323 65.221939,53.126335 65.202896,54.593178 
z"/>
<path fill="#A2F6FD" opacity="1.000000" stroke="none" 
	d="
M96.991714,167.436310 
	C104.144104,164.600662 111.348267,162.386597 118.385918,159.731247 
	C122.230057,158.280838 125.792313,156.083374 129.816864,154.070160 
	C130.692947,154.101242 131.233871,154.285004 131.638306,154.856125 
	C121.117363,163.557556 109.914085,170.365234 96.988152,174.003693 
	C96.983452,171.960419 96.978760,169.917145 96.991714,167.436310 
z"/>
<path fill="#C4E1FD" opacity="1.000000" stroke="none" 
	d="
M165.181992,112.282852 
	C165.255142,109.982643 166.246307,107.713852 165.685028,105.934875 
	C162.546188,95.986336 163.656219,86.154724 165.726578,76.263245 
	C166.027176,74.826988 165.916550,73.304657 165.993103,71.379303 
	C166.783218,70.304321 167.576447,69.672188 168.685577,69.470886 
	C168.684662,77.295135 168.122894,84.688469 168.120316,92.081985 
	C168.117767,99.400810 168.679428,106.719826 168.993591,114.038757 
	C167.790131,113.539314 166.586670,113.039871 165.181992,112.282852 
z"/>
<path fill="#65BAEB" opacity="1.000000" stroke="none" 
	d="
M28.869373,65.406822 
	C38.234959,65.076729 47.828922,65.019386 57.864677,65.044312 
	C53.792175,67.892570 49.322891,70.738075 44.718655,73.345245 
	C43.963360,73.772934 42.448097,73.452187 41.567936,72.964767 
	C37.357624,70.633133 33.245056,68.124977 28.869373,65.406822 
z"/>
<path fill="#62AAFD" opacity="1.000000" stroke="none" 
	d="
M97.186676,83.463058 
	C102.648811,83.146156 108.022896,83.286720 113.660141,84.057892 
	C109.833321,90.805687 104.480843,95.205711 97.200394,96.983414 
	C97.166466,92.629120 97.132545,88.274818 97.186676,83.463058 
z"/>
<path fill="#6FDEC1" opacity="1.000000" stroke="none" 
	d="
M109.999054,38.002571 
	C100.969963,38.001667 91.939835,38.070408 82.912758,37.935017 
	C81.306580,37.910927 79.713112,37.039131 78.011490,36.138992 
	C79.963326,34.469360 82.017456,33.219505 84.807831,32.092014 
	C91.793953,32.083679 98.043831,31.952976 104.293701,31.822273 
	C106.887955,33.269913 109.482208,34.717548 111.982361,36.577129 
	C111.258522,37.326904 110.628784,37.664734 109.999054,38.002571 
z"/>
<path fill="#76ECAD" opacity="1.000000" stroke="none" 
	d="
M53.992134,22.011806 
	C56.746975,21.674589 59.507805,21.010332 62.255554,21.060608 
	C70.992233,21.220465 79.724037,21.646494 88.904907,22.054588 
	C86.836739,23.734831 84.321388,25.330151 81.032951,26.959564 
	C76.199532,26.663536 72.138885,26.337204 68.078964,26.002150 
	C64.576324,25.713083 61.074486,25.414093 57.572292,25.119488 
	C57.125263,24.971647 56.678234,24.823807 55.974926,24.199345 
	C55.143143,23.152416 54.567638,22.582111 53.992134,22.011806 
z"/>
<path fill="#84BDFD" opacity="1.000000" stroke="none" 
	d="
M139.932953,77.519577 
	C138.076370,80.649170 136.477982,84.078621 133.885864,86.396957 
	C125.944382,93.499680 117.621437,100.175903 109.076233,107.107529 
	C107.517578,106.697388 106.329536,106.197716 105.312637,105.346252 
	C113.153351,98.995789 120.945297,93.143532 128.412018,86.902206 
	C130.443558,85.204079 131.495056,82.333504 133.307190,79.860672 
	C134.914536,78.758759 136.210999,77.797188 137.507477,76.835617 
	C138.250549,76.994171 138.993607,77.152718 139.932953,77.519577 
z"/>
<path fill="#D6EAFD" opacity="1.000000" stroke="none" 
	d="
M175.010376,68.987091 
	C178.438049,82.767746 179.164124,96.583885 174.992615,110.428741 
	C173.953613,96.267921 173.477112,82.135338 173.000610,68.002747 
	C173.444107,68.002396 173.887604,68.002037 174.666962,68.247391 
	C175.002823,68.493111 175.010376,68.987091 175.010376,68.987091 
z"/>
<path fill="#9EE1FF" opacity="1.000000" stroke="none" 
	d="
M116.902512,136.562042 
	C110.642570,137.003265 104.418579,136.864319 98.204773,137.055908 
	C95.022888,137.154007 93.563049,136.111679 94.353065,132.393906 
	C96.470093,131.281372 98.235046,130.639771 100.465973,129.998871 
	C106.244514,129.668259 111.557091,129.336975 116.869659,129.005692 
	C116.893997,131.376709 116.918335,133.747711 116.902512,136.562042 
z"/>
<path fill="#A5D1FE" opacity="1.000000" stroke="none" 
	d="
M119.194077,113.385895 
	C126.388870,106.436485 133.820236,99.723427 141.613663,93.002274 
	C143.342255,99.279495 140.772812,103.134644 134.955551,105.688690 
	C130.756958,107.532059 126.993172,110.350143 122.964546,112.606911 
	C121.923630,113.190002 120.615845,113.296722 119.194077,113.385895 
z"/>
<path fill="#8BF1FD" opacity="1.000000" stroke="none" 
	d="
M54.997337,170.001038 
	C54.999023,170.448975 55.000706,170.896927 55.004639,171.681061 
	C52.213394,170.781693 49.419895,169.546127 46.317394,168.154205 
	C44.584167,161.019958 47.673908,156.830276 54.059361,154.332306 
	C56.936764,153.206665 59.544804,151.392487 62.639935,150.260468 
	C62.336384,153.086624 61.667961,155.542999 60.677406,158.144592 
	C57.123344,160.144180 53.751980,161.798187 50.705158,163.918533 
	C48.412006,165.514374 48.498692,167.452652 51.341805,168.659515 
	C52.535110,169.166061 53.777344,169.557358 54.997337,170.001038 
z"/>
<path fill="#74B5FD" opacity="1.000000" stroke="none" 
	d="
M103.998276,104.923203 
	C102.045998,103.848274 100.093727,102.773338 98.308258,101.252785 
	C100.652733,99.666466 103.089630,98.845100 104.960487,97.326439 
	C111.085709,92.354279 117.004990,87.128418 123.315529,81.859421 
	C125.418037,81.479279 127.208458,81.239830 128.850037,81.297630 
	C123.662079,86.139389 118.558350,90.614876 113.606583,95.252625 
	C110.292114,98.356895 107.193481,101.691605 103.998276,104.923203 
z"/>
<path fill="#ACF8FD" opacity="1.000000" stroke="none" 
	d="
M96.977615,174.376984 
	C109.914085,170.365234 121.117363,163.557556 131.817429,155.088181 
	C132.665604,155.107529 133.198166,155.282181 133.742294,155.990662 
	C126.363297,161.675171 118.949295,166.792755 111.600182,172.001907 
	C109.951973,173.170181 108.530861,174.658844 106.621315,176.049408 
	C103.496017,176.731796 100.754585,177.364777 97.894089,177.782043 
	C97.569168,177.297195 97.306778,177.105408 96.987831,176.990967 
	C96.980911,176.244080 96.973991,175.497177 96.977615,174.376984 
z"/>
<path fill="#97D6FF" opacity="1.000000" stroke="none" 
	d="
M100.000000,129.998169 
	C98.235046,130.639771 96.470093,131.281372 94.352875,131.963318 
	C93.250221,132.002426 92.499840,132.001205 91.417343,131.644135 
	C91.723320,129.525818 92.361404,127.763367 93.177635,125.749832 
	C94.237488,124.665825 95.119202,123.832909 96.359848,122.959358 
	C100.920425,120.562469 105.122070,118.206215 109.323715,115.849960 
	C110.353981,116.143921 111.384254,116.437874 112.697227,117.241653 
	C110.941925,119.691315 108.910873,121.638519 106.864059,123.569023 
	C104.583519,125.719994 102.288635,127.855766 100.000000,129.998169 
z"/>
<path fill="#BDE9FE" opacity="1.000000" stroke="none" 
	d="
M167.955994,125.560715 
	C166.354904,127.204773 164.482452,128.204208 163.221542,129.714279 
	C158.570679,135.284149 154.122192,141.023026 149.303879,146.478943 
	C151.339294,141.839645 153.668411,137.419754 156.259155,132.776794 
	C158.345352,128.369797 160.169922,124.185860 161.994507,120.001923 
	C162.177155,119.445473 162.359818,118.889023 162.788391,118.160576 
	C167.438828,118.475029 168.452393,121.296143 167.955994,125.560715 
z"/>
<path fill="#87F2AF" opacity="1.000000" stroke="none" 
	d="
M108.698288,24.194038 
	C99.864372,21.030453 99.810310,20.948889 100.295227,10.449054 
	C103.139893,10.673578 105.569328,11.339062 108.037796,12.348820 
	C110.383476,15.460104 112.690125,18.227114 114.628876,21.001572 
	C112.406761,22.070694 110.552528,23.132366 108.698288,24.194038 
z"/>
<path fill="#9BF2FF" opacity="1.000000" stroke="none" 
	d="
M90.898026,159.685715 
	C83.000900,160.001877 74.969765,160.000992 66.469666,159.666824 
	C66.000870,158.888809 66.001045,158.444107 66.316177,157.858353 
	C70.460251,155.790466 74.289368,153.863632 78.118484,151.936783 
	C82.333664,154.414078 86.548843,156.891373 90.898026,159.685715 
z"/>
<path fill="#9FDAFF" opacity="1.000000" stroke="none" 
	d="
M100.465973,129.998871 
	C102.288635,127.855766 104.583519,125.719994 106.864059,123.569023 
	C108.910873,121.638519 110.941925,119.691315 112.986916,117.393051 
	C119.233429,118.968552 116.337410,124.163757 116.908234,128.556641 
	C111.557091,129.336975 106.244514,129.668259 100.465973,129.998871 
z"/>
<path fill="#78CFE1" opacity="1.000000" stroke="none" 
	d="
M123.262268,55.021709 
	C123.220703,52.973110 123.179138,50.924507 123.586807,48.441055 
	C127.690636,48.669502 131.345215,49.332806 135.321136,50.142250 
	C137.426575,50.859863 139.210648,51.431328 141.003174,52.386665 
	C141.339325,54.513550 141.667007,56.256569 141.566559,57.999886 
	C139.424988,58.001034 137.711578,58.001892 135.662552,57.853436 
	C131.305374,56.809986 127.283821,55.915848 123.262268,55.021709 
z"/>
<path fill="#59D8FF" opacity="1.000000" stroke="none" 
	d="
M22.083487,141.349823 
	C28.960674,140.367249 36.013985,139.683533 43.491829,139.344360 
	C41.262524,142.863541 38.608685,146.038177 35.954849,149.212814 
	C31.389771,146.691437 26.824690,144.170074 22.083487,141.349823 
z"/>
<path fill="#B9F8FD" opacity="1.000000" stroke="none" 
	d="
M107.005188,176.000000 
	C108.530861,174.658844 109.951973,173.170181 111.600182,172.001907 
	C118.949295,166.792755 126.363297,161.675171 133.920837,156.215637 
	C134.924454,156.099030 135.761093,156.291290 136.668106,157.040833 
	C134.368256,159.798721 132.061157,162.072571 129.612625,164.182297 
	C126.128006,167.184738 122.539497,170.066620 118.651245,173.152054 
	C114.539803,174.202744 110.772499,175.101364 107.005188,176.000000 
z"/>
<path fill="#7BB8FD" opacity="1.000000" stroke="none" 
	d="
M104.176804,105.003571 
	C107.193481,101.691605 110.292114,98.356895 113.606583,95.252625 
	C118.558350,90.614876 123.662079,86.139389 129.194366,81.261597 
	C130.790482,80.619225 131.893402,80.310120 132.996338,80.001022 
	C131.495056,82.333504 130.443558,85.204079 128.412018,86.902206 
	C120.945297,93.143532 113.153351,98.995789 105.112709,105.071243 
	C104.741623,105.148033 104.355331,105.083946 104.176804,105.003571 
z"/>
<path fill="#B1EDFE" opacity="1.000000" stroke="none" 
	d="
M155.997559,132.999863 
	C153.668411,137.419754 151.339294,141.839645 149.004974,146.626419 
	C147.024139,149.109985 145.048492,151.226685 143.035248,153.690399 
	C141.367294,153.277588 139.736938,152.517776 138.087021,151.061203 
	C141.378708,146.576706 144.689972,142.788971 148.345398,138.962128 
	C151.125549,136.948624 153.561554,134.974243 155.997559,132.999863 
z"/>
<path fill="#CBE5FD" opacity="1.000000" stroke="none" 
	d="
M169.114716,114.287231 
	C168.679428,106.719826 168.117767,99.400810 168.120316,92.081985 
	C168.122894,84.688469 168.684662,77.295135 169.004395,69.442337 
	C169.007324,68.982956 169.492950,68.968681 169.906342,69.350754 
	C170.546494,71.684631 171.008591,73.643120 170.953384,75.586922 
	C170.817978,80.355286 170.067856,85.131340 170.250214,89.877975 
	C170.559830,97.935707 171.396790,105.973190 172.012131,114.019180 
	C171.086700,114.191360 170.161285,114.363533 169.114716,114.287231 
z"/>
<path fill="#A2EAFF" opacity="1.000000" stroke="none" 
	d="
M148.001221,139.001221 
	C144.689972,142.788971 141.378708,146.576706 138.024475,150.717529 
	C135.784348,149.925125 133.587219,148.779648 131.179642,147.381241 
	C133.197342,145.139053 135.328827,143.025726 137.679718,141.194016 
	C140.244934,139.195297 143.013412,137.457458 145.846039,135.303558 
	C146.749390,135.000595 147.499985,134.999969 148.484909,135.318512 
	C148.479889,136.758850 148.240555,137.880035 148.001221,139.001221 
z"/>
<path fill="#93EFFE" opacity="1.000000" stroke="none" 
	d="
M77.909454,151.646423 
	C74.289368,153.863632 70.460251,155.790466 65.899338,157.858551 
	C63.778202,157.999664 62.388874,157.999527 60.999542,157.999390 
	C61.667961,155.542999 62.336384,153.086624 63.009022,150.219757 
	C66.293419,146.494019 69.546112,144.833252 73.393692,149.235443 
	C74.365662,150.347519 76.240479,150.670486 77.909454,151.646423 
z"/>
<path fill="#6BB8F0" opacity="1.000000" stroke="none" 
	d="
M125.008057,75.000305 
	C120.448402,74.113876 115.888741,73.227440 111.087814,72.011536 
	C111.613426,71.090828 112.326202,70.406898 113.155609,69.922798 
	C120.821716,65.448311 119.753357,64.092476 127.799477,70.622917 
	C128.277161,71.010620 129.002823,71.092796 129.787537,71.933990 
	C128.310684,73.367332 126.659370,74.183815 125.008057,75.000305 
z"/>
<path fill="#CFE7FC" opacity="1.000000" stroke="none" 
	d="
M172.342789,114.015419 
	C171.396790,105.973190 170.559830,97.935707 170.250214,89.877975 
	C170.067856,85.131340 170.817978,80.355286 170.953384,75.586922 
	C171.008591,73.643120 170.546494,71.684631 170.149216,69.346046 
	C170.798218,68.558647 171.617737,68.158035 172.718933,67.880081 
	C173.477112,82.135338 173.953613,96.267921 174.717621,110.700638 
	C174.839188,111.860596 174.673218,112.720428 174.251846,113.794098 
	C173.555435,114.009178 173.114441,114.010414 172.342789,114.015419 
z"/>
<path fill="#70C5E5" opacity="1.000000" stroke="none" 
	d="
M123.194969,55.426308 
	C127.283821,55.915848 131.305374,56.809986 135.662994,58.294834 
	C135.616119,61.631237 135.233185,64.376930 134.850250,67.122627 
	C131.871979,65.535133 128.537201,64.361290 126.043251,62.211845 
	C124.433762,60.824696 124.056923,58.007324 123.194969,55.426308 
z"/>
<path fill="#ACD4FC" opacity="1.000000" stroke="none" 
	d="
M158.623764,74.983002 
	C155.862549,81.253693 152.745087,87.579521 149.278900,93.968719 
	C148.920837,92.869606 148.985107,91.701103 148.890717,90.545563 
	C147.994003,79.566643 147.986252,79.567276 158.623764,74.983002 
z"/>
<path fill="#6BAFFC" opacity="1.000000" stroke="none" 
	d="
M123.003448,82.000107 
	C117.004990,87.128418 111.085709,92.354279 104.960487,97.326439 
	C103.089630,98.845100 100.652733,99.666466 98.133202,100.961472 
	C97.540916,99.977798 97.290504,98.839836 97.120239,97.342636 
	C104.480843,95.205711 109.833321,90.805687 113.961807,84.344696 
	C116.765305,82.694138 119.530312,81.387360 122.647858,80.373062 
	C123.001411,81.110390 123.002426,81.555244 123.003448,82.000107 
z"/>
<path fill="#71E3BB" opacity="1.000000" stroke="none" 
	d="
M54.846924,32.696301 
	C47.601376,33.050465 40.112778,33.155579 32.227379,33.079178 
	C32.635197,32.316849 33.457527,31.758898 34.241623,31.151583 
	C40.154190,26.572044 46.022358,25.294947 51.942661,31.194880 
	C52.596455,31.846424 53.705807,32.040829 54.846924,32.696301 
z"/>
<path fill="#C9F7FC" opacity="1.000000" stroke="none" 
	d="
M118.995377,173.000000 
	C122.539497,170.066620 126.128006,167.184738 129.612625,164.182297 
	C132.061157,162.072571 134.368256,159.798721 136.880981,157.289062 
	C138.578323,157.792343 140.133194,158.604721 141.787109,160.050995 
	C137.923080,163.456696 133.960022,166.228531 129.747635,169.001740 
	C129.498322,169.003113 128.999619,169.004196 128.786057,169.117477 
	C128.306107,169.429642 128.115417,169.685043 127.748474,170.000153 
	C127.328552,170.004364 127.160576,170.005341 126.753845,170.184967 
	C126.345512,170.924438 126.175919,171.485291 126.006332,172.046143 
	C126.006332,172.046143 125.563477,172.058319 124.941780,172.034454 
	C122.545181,172.340408 120.770271,172.670197 118.995377,173.000000 
z"/>
<path fill="#7DD9D6" opacity="1.000000" stroke="none" 
	d="
M134.999786,49.996109 
	C131.345215,49.332806 127.690636,48.669502 123.650459,48.005959 
	C123.882286,44.646690 124.499702,41.287666 125.653671,38.151604 
	C129.126205,39.917599 132.062180,41.460629 134.998566,43.440613 
	C134.999237,45.917080 134.999512,47.956593 134.999786,49.996109 
z"/>
<path fill="#8FDAFF" opacity="1.000000" stroke="none" 
	d="
M92.999496,126.000916 
	C92.361404,127.763367 91.723320,129.525818 91.042160,131.643524 
	C86.667747,133.999847 82.381104,136.107910 77.981697,137.946045 
	C76.362915,138.622391 74.477776,138.661224 72.290863,138.976044 
	C71.878647,138.223267 71.889679,137.485306 72.314964,136.374817 
	C76.486244,133.668381 80.243271,131.334503 84.375137,128.993805 
	C87.499817,127.991631 90.249657,126.996277 92.999496,126.000916 
z"/>
<path fill="#9FE7DC" opacity="1.000000" stroke="none" 
	d="
M135.916977,31.809711 
	C136.731400,31.212551 137.545822,30.615391 138.816559,30.280163 
	C142.514633,33.361500 145.756409,36.180901 149.134247,39.305550 
	C150.513962,41.406693 151.757599,43.202591 153.000473,45.374268 
	C152.996765,46.501591 152.993805,47.253132 152.646027,47.963875 
	C149.533615,45.948841 146.766037,43.974606 143.849640,41.703033 
	C141.106201,38.207027 138.511581,35.008369 135.916977,31.809711 
z"/>
<path fill="#78E7BA" opacity="1.000000" stroke="none" 
	d="
M57.745941,25.430222 
	C61.074486,25.414093 64.576324,25.713083 68.078964,26.002150 
	C72.138885,26.337204 76.199532,26.663536 80.693764,27.021864 
	C78.165787,28.822784 75.277962,30.743902 72.198334,32.280663 
	C71.234245,32.761753 69.544586,32.594757 68.546440,32.057144 
	C64.921707,30.104818 61.449394,27.869520 57.745941,25.430222 
z"/>
<path fill="#74E4FE" opacity="1.000000" stroke="none" 
	d="
M55.042610,147.099152 
	C52.838028,148.482269 50.586685,149.796936 48.439377,151.263885 
	C44.851357,153.715073 41.451836,153.679398 38.306023,150.390579 
	C41.969398,147.678787 45.485126,145.340012 49.376011,143.001266 
	C50.501617,143.001892 51.252064,143.002472 52.199898,143.267258 
	C53.279057,144.720688 54.160831,145.909912 55.042610,147.099152 
z"/>
<path fill="#99F6AC" opacity="1.000000" stroke="none" 
	d="
M107.998756,12.004545 
	C105.569328,11.339062 103.139893,10.673578 100.323868,9.997869 
	C100.884079,7.375068 97.473816,3.547759 102.587250,1.933478 
	C104.442909,2.183174 105.880981,2.479787 107.657455,3.302032 
	C109.995575,6.884240 111.995285,9.940815 113.611450,12.990698 
	C111.484856,12.657519 109.741806,12.331032 107.998756,12.004545 
z"/>
<path fill="#82C8FF" opacity="1.000000" stroke="none" 
	d="
M85.000916,120.000000 
	C89.939796,117.039444 94.878685,114.078888 100.154205,110.915375 
	C101.442978,111.126053 102.395103,111.539696 103.607224,112.348602 
	C101.577843,114.829140 99.288460,116.914421 96.639748,119.040459 
	C92.187859,121.055305 88.095299,123.029388 83.751709,125.002106 
	C83.333313,124.999672 83.165955,124.998611 83.036865,124.655548 
	C83.717064,122.875687 84.358994,121.437843 85.000916,120.000000 
z"/>
<path fill="#75E4BC" opacity="1.000000" stroke="none" 
	d="
M104.070297,31.555082 
	C98.043831,31.952976 91.793953,32.083679 85.139877,32.024559 
	C87.345528,30.128887 89.816788,28.113644 92.626884,26.854753 
	C93.926544,26.272520 96.040688,26.819132 97.512375,27.470860 
	C99.748749,28.461226 101.747314,29.988607 104.070297,31.555082 
z"/>
<path fill="#94D2EF" opacity="1.000000" stroke="none" 
	d="
M155.061050,68.110016 
	C152.936584,69.389793 150.812119,70.669571 148.342682,71.530380 
	C148.331207,67.741760 148.664688,64.372101 149.041626,60.637764 
	C149.390671,58.847946 149.696259,57.422813 150.250732,55.900856 
	C151.333694,55.870064 152.167755,55.936096 153.157349,56.355522 
	C153.895584,60.509281 154.478317,64.309647 155.061050,68.110016 
z"/>
<path fill="#6AB6FE" opacity="1.000000" stroke="none" 
	d="
M51.970661,111.427444 
	C46.307102,111.822937 40.478874,111.934708 34.219727,111.969910 
	C34.875721,111.179291 35.963791,110.466972 37.049362,109.750877 
	C44.009819,105.159470 45.560909,105.305595 51.970661,111.427444 
z"/>
<path fill="#5FC2FF" opacity="1.000000" stroke="none" 
	d="
M49.000153,130.996948 
	C50.641293,128.561295 52.282429,126.125648 53.962646,123.346222 
	C57.388054,122.668564 60.774384,122.334679 64.594849,122.001556 
	C65.057747,123.392776 65.086517,124.783234 64.676086,126.588913 
	C60.825306,128.003784 57.413723,129.003418 53.633270,130.007782 
	C51.842991,130.340668 50.421574,130.668808 49.000153,130.996948 
z"/>
<path fill="#83F89A" opacity="1.000000" stroke="none" 
	d="
M92.708679,11.575500 
	C89.260239,11.864516 85.922119,11.714077 82.291702,11.281109 
	C83.809357,6.891082 85.427307,2.562841 91.591187,3.002360 
	C91.990074,3.002614 92.441437,3.027840 92.666367,3.040048 
	C92.867210,5.746852 92.843109,8.441448 92.708679,11.575500 
z"/>
<path fill="#86C9EF" opacity="1.000000" stroke="none" 
	d="
M148.998169,61.002441 
	C148.664688,64.372101 148.331207,67.741760 147.995789,71.539474 
	C145.427750,73.720589 143.230453,73.151436 141.129227,70.186401 
	C141.640488,66.313210 142.322113,63.158092 143.381866,60.048920 
	C145.506058,60.397388 147.252106,60.699913 148.998169,61.002441 
z"/>
<path fill="#55A0FB" opacity="1.000000" stroke="none" 
	d="
M17.088470,65.496445 
	C15.016331,67.065834 12.810849,68.348190 9.979447,69.805634 
	C8.916077,69.993225 8.478625,70.005722 7.805695,69.756241 
	C6.420418,69.331703 5.270621,69.169128 4.120826,69.006546 
	C5.116625,65.925896 6.112423,62.845242 7.710251,59.791889 
	C8.540403,59.881962 8.768526,59.944740 9.192446,60.255383 
	C10.508582,61.071762 11.628923,61.640278 12.749265,62.208794 
	C14.151220,63.209000 15.553175,64.209206 17.088470,65.496445 
z"/>
<path fill="#65DCFF" opacity="1.000000" stroke="none" 
	d="
M49.000854,143.001221 
	C45.485126,145.340012 41.969398,147.678787 38.080536,150.101624 
	C37.225639,150.002014 36.743881,149.818375 36.108482,149.423767 
	C38.608685,146.038177 41.262524,142.863541 43.956047,139.344757 
	C46.063023,138.665802 48.130314,138.330978 50.560265,138.338135 
	C50.282227,140.120468 49.641541,141.560837 49.000854,143.001221 
z"/>
<path fill="#B9E6F0" opacity="1.000000" stroke="none" 
	d="
M157.998535,43.007618 
	C159.969223,45.721882 161.918625,48.452015 163.921936,51.141998 
	C164.645721,52.113865 165.498764,52.989468 166.648727,53.951492 
	C166.150055,56.624546 169.082718,60.230762 164.200882,61.858452 
	C161.976105,57.801563 160.488983,53.900063 158.992645,49.604332 
	C158.655121,47.142601 158.326828,45.075108 157.998535,43.007618 
z"/>
<path fill="#73B8F5" opacity="1.000000" stroke="none" 
	d="
M123.315521,81.859413 
	C123.002426,81.555244 123.001411,81.110390 122.998978,80.331848 
	C123.643013,78.557739 124.288467,77.117310 124.970985,75.338593 
	C126.659370,74.183815 128.310684,73.367332 130.032715,72.167053 
	C132.468887,73.251320 134.834335,74.719368 137.353638,76.511520 
	C136.210999,77.797188 134.914536,78.758759 133.307190,79.860672 
	C131.893402,80.310120 130.790482,80.619225 129.343216,80.964355 
	C127.208458,81.239830 125.418037,81.479279 123.315521,81.859413 
z"/>
<path fill="#84D5FF" opacity="1.000000" stroke="none" 
	d="
M82.998604,124.997559 
	C83.165955,124.998611 83.333313,124.999672 83.750809,125.401703 
	C84.000740,126.868652 84.000526,127.934631 84.000305,129.000610 
	C80.243271,131.334503 76.486244,133.668381 72.339012,136.006088 
	C71.932266,134.293274 71.915718,132.576660 72.304382,130.424591 
	C76.139259,128.325287 79.568932,126.661423 82.998604,124.997559 
z"/>
<path fill="#A9DFED" opacity="1.000000" stroke="none" 
	d="
M159.001862,49.998566 
	C160.488983,53.900063 161.976105,57.801563 163.802338,61.880291 
	C163.014404,63.027233 161.887314,63.996941 160.131836,64.744080 
	C158.144974,59.011368 157.923294,53.025223 153.002167,48.755112 
	C152.995773,48.338173 152.993301,48.171425 152.990845,48.004677 
	C152.993805,47.253132 152.996765,46.501591 153.292694,45.520420 
	C155.391068,46.860050 157.196472,48.429306 159.001862,49.998566 
z"/>
<path fill="#7ADEFF" opacity="1.000000" stroke="none" 
	d="
M55.389084,147.034607 
	C54.160831,145.909912 53.279057,144.720688 52.403683,142.998199 
	C56.617924,140.312576 60.825760,138.160202 65.033600,136.007843 
	C66.552132,143.578751 59.492527,143.873764 55.389084,147.034607 
z"/>
<path fill="#92E3D6" opacity="1.000000" stroke="none" 
	d="
M135.588913,31.891735 
	C138.511581,35.008369 141.106201,38.207027 143.720001,41.976189 
	C143.158600,43.365387 142.578033,44.184082 141.659210,44.967560 
	C139.881256,44.286861 138.441544,43.641388 136.996277,42.632805 
	C134.917419,39.784885 132.844116,37.300076 130.770828,34.815266 
	C132.267502,33.868095 133.764175,32.920929 135.588913,31.891735 
z"/>
<path fill="#9FDAED" opacity="1.000000" stroke="none" 
	d="
M153.006104,49.005299 
	C157.923294,53.025223 158.144974,59.011368 159.791351,64.784958 
	C158.628693,66.030151 157.178070,67.011894 155.394257,68.051826 
	C154.478317,64.309647 153.895584,60.509281 153.156677,55.917946 
	C153.002380,53.086418 153.004242,51.045856 153.006104,49.005299 
z"/>
<path fill="#86EDBA" opacity="1.000000" stroke="none" 
	d="
M108.929413,24.450525 
	C110.552528,23.132366 112.406761,22.070694 115.004158,21.003420 
	C116.497612,20.998215 117.247902,20.998611 118.214294,21.113338 
	C118.699669,21.429298 118.891464,21.688297 119.054321,22.391590 
	C119.036392,25.213694 118.969940,27.648872 118.903488,30.084049 
	C115.655838,28.291702 112.408180,26.499357 108.929413,24.450525 
z"/>
<path fill="#6ED7FF" opacity="1.000000" stroke="none" 
	d="
M65.063469,135.632416 
	C60.825760,138.160202 56.617924,140.312576 52.206299,142.733994 
	C51.252064,143.002472 50.501617,143.001892 49.376007,143.001266 
	C49.641541,141.560837 50.282227,140.120468 50.958652,138.336990 
	C51.255310,137.499435 51.516232,137.004990 52.276558,136.246857 
	C56.854080,134.989594 60.932198,133.996002 65.010315,133.002411 
	C65.037987,133.753937 65.065666,134.505463 65.063469,135.632416 
z"/>
<path fill="#78C6EA" opacity="1.000000" stroke="none" 
	d="
M143.003754,60.002975 
	C142.322113,63.158092 141.640488,66.313210 140.928162,69.914764 
	C139.038177,69.445724 137.178909,68.530266 135.084930,67.368713 
	C135.233185,64.376930 135.616119,61.631237 135.998627,58.444145 
	C137.711578,58.001892 139.424988,58.001034 141.806412,58.173336 
	C142.650864,58.898655 142.827316,59.450813 143.003754,60.002975 
z"/>
<path fill="#78C9FF" opacity="1.000000" stroke="none" 
	d="
M83.036865,124.655540 
	C79.568932,126.661423 76.139259,128.325287 72.336998,129.996857 
	C71.941261,127.959991 71.918121,125.915436 71.929276,123.433784 
	C76.044922,121.998268 80.126274,120.999855 84.604263,120.000717 
	C84.358994,121.437843 83.717064,122.875687 83.036865,124.655540 
z"/>
<path fill="#68CDFF" opacity="1.000000" stroke="none" 
	d="
M65.051003,132.575256 
	C60.932198,133.996002 56.854080,134.989594 52.386791,135.989456 
	C51.997620,135.995728 51.993336,135.500183 52.150826,134.944977 
	C52.872921,132.927536 53.437527,131.465302 54.002136,130.003052 
	C57.413723,129.003418 60.825306,128.003784 64.633591,127.004547 
	C65.050751,128.719330 65.071220,130.433731 65.051003,132.575256 
z"/>
<path fill="#99F1C2" opacity="1.000000" stroke="none" 
	d="
M119.005798,22.004665 
	C118.891464,21.688297 118.699669,21.429298 118.214851,20.742575 
	C117.335144,18.505140 116.670990,16.752798 116.375137,15.006195 
	C118.163139,15.340099 119.582840,15.668264 121.214600,16.251379 
	C122.283424,16.672628 123.140182,16.838928 124.002815,17.369678 
	C126.037712,20.873487 128.066727,24.012848 130.095764,27.152205 
	C129.962738,27.448549 129.754028,27.675215 128.947510,27.771252 
	C125.285500,25.808424 122.145645,23.906546 119.005798,22.004665 
z"/>
<path fill="#B5F4D1" opacity="1.000000" stroke="none" 
	d="
M122.410690,8.822830 
	C123.683395,8.871322 124.956093,8.919814 126.612122,9.400726 
	C127.324333,16.359991 132.226700,19.124943 137.222321,22.116516 
	C137.645737,22.504665 137.846848,22.772362 138.047958,23.040054 
	C137.307480,23.380468 136.567001,23.720882 135.141327,24.006268 
	C131.638885,21.633522 128.821655,19.315807 125.964569,16.654438 
	C124.738403,14.823592 123.381012,13.434967 122.442085,11.805259 
	C122.009460,11.054338 122.395729,9.831622 122.410690,8.822830 
z"/>
<path fill="#8FCDFF" opacity="1.000000" stroke="none" 
	d="
M96.999084,118.999695 
	C99.288460,116.914421 101.577843,114.829140 103.921463,112.416443 
	C105.610260,113.172295 107.244812,114.255577 109.101547,115.594406 
	C105.122070,118.206215 100.920425,120.562469 96.395294,122.614899 
	C96.380898,121.207283 96.689987,120.103485 96.999084,118.999695 
z"/>
<path fill="#BEF0F3" opacity="1.000000" stroke="none" 
	d="
M118.651245,173.152054 
	C120.770271,172.670197 122.545181,172.340408 124.720673,172.021027 
	C118.651527,174.333115 112.226089,176.773178 105.689339,178.865479 
	C103.219269,179.656128 100.492027,179.643372 97.457825,179.980957 
	C97.006477,179.535645 96.979340,179.106201 97.218216,178.345734 
	C97.660538,178.009064 97.836845,178.003418 98.013161,177.997757 
	C100.754585,177.364777 103.496017,176.731796 106.621315,176.049408 
	C110.772499,175.101364 114.539803,174.202744 118.651245,173.152054 
z"/>
<path fill="#D5EEF4" opacity="1.000000" stroke="none" 
	d="
M23.112623,36.983883 
	C23.129736,37.363541 23.132050,37.694839 23.131893,37.860630 
	C22.464649,38.515972 21.797560,39.005524 20.954609,39.762173 
	C18.721865,42.247330 16.664980,44.465389 14.301702,46.583607 
	C13.985477,46.313728 13.975645,46.143684 13.965813,45.973640 
	C16.112303,38.071217 21.957302,32.829617 28.030479,27.152767 
	C29.104715,27.011734 29.549278,27.017101 29.993843,27.022469 
	C27.694399,30.216389 25.394955,33.410309 23.112623,36.983883 
z"/>
<path fill="#70BEEF" opacity="1.000000" stroke="none" 
	d="
M75.990341,70.578934 
	C71.340363,70.909241 66.472618,70.972321 61.171581,70.943970 
	C68.674507,64.556076 69.202911,64.537064 75.990341,70.578934 
z"/>
<path fill="#8FEBC5" opacity="1.000000" stroke="none" 
	d="
M119.054321,22.391592 
	C122.145645,23.906546 125.285500,25.808424 128.731689,27.862589 
	C126.197266,30.301228 123.638779,33.640301 119.137512,30.345505 
	C118.969940,27.648872 119.036392,25.213694 119.054321,22.391592 
z"/>
<path fill="#AFEDDE" opacity="1.000000" stroke="none" 
	d="
M148.998169,39.000305 
	C145.756409,36.180901 142.514633,33.361500 139.125931,30.235123 
	C140.450653,29.034876 141.922318,28.141603 143.695465,27.112803 
	C144.976547,28.430267 145.956161,29.883259 147.010803,32.031502 
	C147.723297,34.817932 148.360733,36.909119 148.998169,39.000305 
z"/>
<path fill="#55D4F3" opacity="1.000000" stroke="none" 
	d="
M6.982272,122.064667 
	C6.032290,119.294243 5.082309,116.523827 4.069939,113.380051 
	C7.236365,114.740608 10.465181,116.474518 13.455803,118.660080 
	C11.790290,120.033897 10.362971,120.956062 8.609697,121.903587 
	C7.849918,121.974182 7.416095,122.019424 6.982272,122.064667 
z"/>
<path fill="#87E0D1" opacity="1.000000" stroke="none" 
	d="
M130.455170,34.885509 
	C132.844116,37.300076 134.917419,39.784885 136.662323,42.634491 
	C135.888672,43.000748 135.443420,43.002205 134.998169,43.003662 
	C132.062180,41.460629 129.126205,39.917599 126.030411,38.036171 
	C127.293571,36.783768 128.716537,35.869762 130.455170,34.885509 
z"/>
<path fill="#FAFDFE" opacity="1.000000" stroke="none" 
	d="
M8.935654,121.878235 
	C10.362971,120.956062 11.790290,120.033897 13.509739,118.978859 
	C14.202909,122.926506 14.603950,127.007034 14.660053,131.488770 
	C12.521962,128.552750 10.728808,125.215492 8.935654,121.878235 
z"/>
<path fill="#F3F3F4" opacity="1.000000" stroke="none" 
	d="
M39.994568,163.632904 
	C35.348183,159.915970 30.704590,155.811600 26.010387,151.366745 
	C30.188025,153.748932 34.511971,156.339996 38.572773,159.292953 
	C39.510071,159.974548 39.546417,161.895096 39.994568,163.632904 
z"/>
<path fill="#C5F2E0" opacity="1.000000" stroke="none" 
	d="
M138.380737,22.993586 
	C137.846848,22.772362 137.645737,22.504665 137.182159,21.767864 
	C136.143356,18.869421 132.427063,17.173141 135.072495,13.890608 
	C137.645309,15.708061 140.218124,17.525513 142.956757,19.644657 
	C141.652878,20.946604 140.183212,21.946859 138.380737,22.993586 
z"/>
<path fill="#E3EFF3" opacity="1.000000" stroke="none" 
	d="
M175.342743,68.990219 
	C175.010376,68.987091 175.002823,68.493111 174.999573,68.246094 
	C172.847916,62.475655 170.699493,56.952225 168.278320,51.215759 
	C168.267334,50.500362 168.529083,49.997997 168.909698,49.237045 
	C171.685760,55.382912 174.342972,61.787361 177.002716,68.594788 
	C176.561874,68.996292 176.118500,68.994820 175.342743,68.990219 
z"/>
<path fill="#A6F2CD" opacity="1.000000" stroke="none" 
	d="
M126.004433,16.998093 
	C128.821655,19.315807 131.638885,21.633522 134.819901,24.004269 
	C133.717133,25.063925 132.250580,26.070547 130.439896,27.114687 
	C128.066727,24.012848 126.037712,20.873487 124.337402,17.367805 
	C125.112228,17.000353 125.558334,16.999222 126.004433,16.998093 
z"/>
<path fill="#F4F5F6" opacity="1.000000" stroke="none" 
	d="
M30.295694,26.863968 
	C29.549278,27.017101 29.104715,27.011734 28.326572,27.000126 
	C32.076447,23.661833 36.159901,20.329782 40.606140,16.981054 
	C39.820904,18.719467 38.962543,20.797684 37.453709,22.150290 
	C35.431927,23.962730 32.906647,25.213526 30.295694,26.863968 
z"/>
<path fill="#FBFDFE" opacity="1.000000" stroke="none" 
	d="
M13.072245,61.912895 
	C11.628923,61.640278 10.508582,61.071762 9.236908,59.887619 
	C10.721593,55.851406 12.357613,52.430817 13.993633,49.010227 
	C13.794165,53.212482 13.594695,57.414742 13.072245,61.912895 
z"/>
<path fill="#F1F4F4" opacity="1.000000" stroke="none" 
	d="
M8.609698,121.903587 
	C10.728808,125.215492 12.521962,128.552750 14.659007,131.951447 
	C15.003773,133.396805 15.004645,134.780731 15.004151,136.833984 
	C14.998968,137.672501 14.995151,137.841660 14.991334,138.010834 
	C12.328103,132.942810 9.664871,127.874802 6.991956,122.435730 
	C7.416095,122.019424 7.849918,121.974182 8.609698,121.903587 
z"/>
<path fill="#DBF0F6" opacity="1.000000" stroke="none" 
	d="
M15.036791,138.355728 
	C14.995151,137.841660 14.998968,137.672501 15.007120,137.249512 
	C16.797995,138.300537 18.584536,139.605377 20.721634,140.936615 
	C21.072191,140.962997 20.999290,140.994720 21.020435,140.960068 
	C22.356749,143.714355 23.671919,146.503281 24.987526,149.665192 
	C21.686062,146.258987 18.384155,142.479813 15.036791,138.355728 
z"/>
<path fill="#D8EAF2" opacity="1.000000" stroke="none" 
	d="
M129.996948,169.000351 
	C133.960022,166.228531 137.923080,163.456696 141.942429,160.347931 
	C142.750885,160.007629 143.503082,160.004288 144.631516,160.002090 
	C140.559433,163.246078 136.111115,166.488907 131.317673,169.855835 
	C130.972549,169.979919 130.934952,169.949936 130.835571,169.742340 
	C130.545227,169.279953 130.298813,169.101822 129.996948,169.000351 
z"/>
<path fill="#74DACC" opacity="1.000000" stroke="none" 
	d="
M110.034119,38.333466 
	C110.628784,37.664734 111.258522,37.326904 112.222145,36.829239 
	C115.760300,37.150673 117.586800,38.712360 116.846817,42.628845 
	C115.770126,43.018017 114.764114,43.009556 113.378891,43.001114 
	C112.022850,41.555546 111.046021,40.109955 110.034119,38.333466 
z"/>
<path fill="#F0F2F4" opacity="1.000000" stroke="none" 
	d="
M13.996496,48.674217 
	C12.357613,52.430817 10.721593,55.851406 9.041111,59.639763 
	C8.768526,59.944740 8.540403,59.881962 8.029751,59.598969 
	C7.016608,53.881973 10.603591,50.187336 13.624786,46.043922 
	C13.975645,46.143684 13.985477,46.313728 14.003967,46.739052 
	C14.008204,47.442295 14.003782,47.890247 13.996496,48.674217 
z"/>
<path fill="#D8EAF2" opacity="1.000000" stroke="none" 
	d="
M145.974258,156.351624 
	C146.012207,156.007324 146.492676,156.003845 147.070892,156.004410 
	C148.098999,156.002899 148.548889,156.000839 149.001419,156.001404 
	C149.004059,156.004013 149.017609,156.017365 149.017609,156.017365 
	C147.906998,157.321686 146.796387,158.626007 145.344421,159.969498 
	C145.314117,158.904419 145.625214,157.800171 145.974258,156.351624 
z"/>
<path fill="#78E7BA" opacity="1.000000" stroke="none" 
	d="
M53.632866,22.047668 
	C54.567638,22.582111 55.143143,23.152416 55.817932,24.018059 
	C54.919617,23.807760 53.922009,23.302128 52.743324,22.502079 
	C52.799370,22.166286 53.036488,22.124908 53.632866,22.047668 
z"/>
<path fill="#76ECAD" opacity="1.000000" stroke="none" 
	d="
M48.964180,20.336817 
	C49.375706,20.252945 49.991562,20.414518 50.774384,20.858297 
	C50.350403,20.954422 49.759460,20.768343 48.964180,20.336817 
z"/>
<path fill="#76ECAD" opacity="1.000000" stroke="none" 
	d="
M50.996380,21.324226 
	C51.193932,21.251345 51.488155,21.433592 51.911110,21.847782 
	C51.724247,21.912931 51.408649,21.746143 50.996380,21.324226 
z"/>
<path fill="#A2F6FD" opacity="1.000000" stroke="none" 
	d="
M97.894089,177.782043 
	C97.836845,178.003418 97.660538,178.009064 97.219254,178.022705 
	C96.957863,177.857376 96.961449,177.684067 96.976433,177.250854 
	C97.306778,177.105408 97.569168,177.297195 97.894089,177.782043 
z"/>
<path fill="#D8EAF2" opacity="1.000000" stroke="none" 
	d="
M148.991638,154.976242 
	C149.771011,154.649323 150.550385,154.322403 151.666199,153.992722 
	C151.220490,154.646896 150.438339,155.303833 149.336899,155.989075 
	C149.017609,156.017365 149.004059,156.004013 149.001251,155.745758 
	C148.996170,155.317078 148.993912,155.146667 148.991638,154.976242 
z"/>
<path fill="#D8EAF2" opacity="1.000000" stroke="none" 
	d="
M128.000427,169.996948 
	C128.115417,169.685043 128.306107,169.429642 128.953690,169.349823 
	C129.868240,169.629257 130.401596,169.789597 130.934952,169.949936 
	C130.934952,169.949936 130.972549,169.979919 130.990982,169.995605 
	C130.523178,170.323318 130.036942,170.635345 129.043304,170.855194 
	C128.284439,170.558701 128.105942,170.303345 128.000427,169.996948 
z"/>
<path fill="#BEF0F3" opacity="1.000000" stroke="none" 
	d="
M127.748474,170.000153 
	C128.105942,170.303345 128.284439,170.558701 128.742432,170.875427 
	C128.495514,171.294418 128.042099,171.600998 127.297592,171.610901 
	C127.001877,170.878265 126.997231,170.442307 126.992592,170.006332 
	C127.160576,170.005341 127.328552,170.004364 127.748474,170.000153 
z"/>
<path fill="#D8EAF2" opacity="1.000000" stroke="none" 
	d="
M126.753845,170.184967 
	C126.997231,170.442307 127.001877,170.878265 127.012810,171.640610 
	C126.850731,171.985611 126.682350,172.004257 126.260147,172.034515 
	C126.175919,171.485291 126.345512,170.924438 126.753845,170.184967 
z"/>
<path fill="#A3F6B9" opacity="1.000000" stroke="none" 
	d="
M121.002533,15.996430 
	C119.582840,15.668264 118.163139,15.340099 116.110092,14.882240 
	C114.982819,14.167495 114.488907,13.582443 113.994995,12.997391 
	C111.995285,9.940815 109.995575,6.884240 107.991089,3.455030 
	C110.076424,3.705860 112.166542,4.329325 114.628937,5.357735 
	C115.798431,7.472420 116.470825,9.255949 117.426262,10.872145 
	C118.483253,12.660110 119.799301,14.294921 121.002533,15.996430 
z"/>
<path fill="#AEF5C5" opacity="1.000000" stroke="none" 
	d="
M121.214600,16.251379 
	C119.799301,14.294921 118.483253,12.660110 117.426262,10.872145 
	C116.470825,9.255949 115.798431,7.472420 115.000916,5.380905 
	C117.377487,6.049889 119.754372,7.100647 122.270981,8.487118 
	C122.395729,9.831622 122.009460,11.054338 122.442085,11.805259 
	C123.381012,13.434967 124.738403,14.823592 125.964569,16.654438 
	C125.558334,16.999222 125.112228,17.000353 124.331543,17.003353 
	C123.140182,16.838928 122.283424,16.672628 121.214600,16.251379 
z"/>
<path fill="#BEF3D6" opacity="1.000000" stroke="none" 
	d="
M134.856796,13.636610 
	C132.427063,17.173141 136.143356,18.869421 136.959839,21.647411 
	C132.226700,19.124943 127.324333,16.359991 126.992668,9.439771 
	C129.540298,10.491801 132.090698,11.937207 134.856796,13.636610 
z"/>
<path fill="#4BD2F5" opacity="1.000000" stroke="none" 
	d="
M8.041175,70.018219 
	C8.478625,70.005722 8.916077,69.993225 9.681973,69.977509 
	C8.241110,72.956161 6.471800,75.938042 4.351776,78.962402 
	C3.818598,78.127998 3.636133,77.251114 3.186983,76.161224 
	C2.920813,75.208275 2.921328,74.468315 3.335962,73.324234 
	C5.180446,71.952812 6.610810,70.985512 8.041175,70.018219 
z"/>
<path fill="#68A9F9" opacity="1.000000" stroke="none" 
	d="
M7.805695,69.756248 
	C6.610810,70.985512 5.180446,71.952812 3.418478,72.962486 
	C3.263954,71.844467 3.441032,70.684067 3.869468,69.265106 
	C5.270621,69.169128 6.420418,69.331703 7.805695,69.756248 
z"/>
<path fill="#92F6FF" opacity="1.000000" stroke="none" 
	d="
M60.677406,158.144592 
	C62.388874,157.999527 63.778202,157.999664 65.584373,157.999603 
	C66.001045,158.444107 66.000870,158.888809 66.001114,159.667068 
	C62.433990,163.135086 58.866455,166.269577 55.148129,169.702545 
	C53.777344,169.557358 52.535110,169.166061 51.341805,168.659515 
	C48.498692,167.452652 48.412006,165.514374 50.705158,163.918533 
	C53.751980,161.798187 57.123344,160.144180 60.677406,158.144592 
z"/>
<path fill="#AEE2FF" opacity="1.000000" stroke="none" 
	d="
M148.345398,138.962128 
	C148.240555,137.880035 148.479889,136.758850 148.860199,135.317917 
	C150.662628,131.586823 152.324097,128.175491 153.993698,124.382248 
	C156.434830,122.693596 158.867844,121.386856 161.647675,120.041016 
	C160.169922,124.185860 158.345352,128.369797 156.259155,132.776794 
	C153.561554,134.974243 151.125549,136.948624 148.345398,138.962128 
z"/>
<path fill="#5FCEFF" opacity="1.000000" stroke="none" 
	d="
M53.633270,130.007782 
	C53.437527,131.465302 52.872921,132.927536 52.149235,134.697205 
	C50.297729,135.560791 48.605305,136.116974 46.107059,136.937958 
	C46.835922,134.834991 47.379116,133.267715 47.960651,131.351746 
	C48.165848,131.002029 48.332710,131.000992 48.749863,130.998459 
	C50.421574,130.668808 51.842991,130.340668 53.633270,130.007782 
z"/>
<path fill="#B2EAE6" opacity="1.000000" stroke="none" 
	d="
M149.134247,39.305550 
	C148.360733,36.909119 147.723297,34.817932 147.046204,32.363247 
	C150.571304,35.469872 154.136032,38.940002 157.849655,42.708874 
	C158.326828,45.075108 158.655121,47.142601 158.992645,49.604328 
	C157.196472,48.429306 155.391068,46.860050 153.293442,45.144638 
	C151.757599,43.202591 150.513962,41.406693 149.134247,39.305550 
z"/>
<path fill="#E3F6FD" opacity="1.000000" stroke="none" 
	d="
M148.694839,155.008194 
	C148.993912,155.146667 148.996170,155.317078 148.998611,155.743134 
	C148.548889,156.000839 148.098999,156.002899 147.311127,156.003403 
	C147.448105,155.681259 147.923080,155.360703 148.694839,155.008194 
z"/>
<path fill="#8AD0FF" opacity="1.000000" stroke="none" 
	d="
M96.639748,119.040459 
	C96.689987,120.103485 96.380898,121.207283 96.036362,122.655533 
	C95.119202,123.832909 94.237488,124.665825 93.177635,125.749832 
	C90.249657,126.996277 87.499817,127.991631 84.375137,128.993805 
	C84.000526,127.934631 84.000740,126.868652 84.001846,125.403076 
	C88.095299,123.029388 92.187859,121.055305 96.639748,119.040459 
z"/>
<path fill="#91F4B3" opacity="1.000000" stroke="none" 
	d="
M113.611450,12.990699 
	C114.488907,13.582443 114.982819,14.167495 115.741783,14.876501 
	C116.670990,16.752798 117.335144,18.505140 117.998749,20.628246 
	C117.247902,20.998611 116.497612,20.998215 115.372040,20.995972 
	C112.690125,18.227114 110.383476,15.460104 108.037796,12.348820 
	C109.741806,12.331032 111.484856,12.657519 113.611450,12.990699 
z"/>
<path fill="#87D2E6" opacity="1.000000" stroke="none" 
	d="
M143.381866,60.048920 
	C142.827316,59.450813 142.650864,58.898655 142.234558,58.173042 
	C141.667007,56.256569 141.339325,54.513550 141.268127,52.262367 
	C142.017441,51.168663 142.510239,50.583126 143.354889,50.036736 
	C145.805099,52.049809 147.903458,54.023743 150.001831,55.997677 
	C149.696259,57.422813 149.390671,58.847946 149.041626,60.637764 
	C147.252106,60.699913 145.506058,60.397388 143.381866,60.048920 
z"/>
<path fill="#84D8DB" opacity="1.000000" stroke="none" 
	d="
M143.003052,49.997593 
	C142.510239,50.583126 142.017441,51.168663 141.259674,51.878498 
	C139.210648,51.431328 137.426575,50.859863 135.321136,50.142250 
	C134.999512,47.956593 134.999237,45.917080 134.998566,43.440613 
	C135.443420,43.002205 135.888672,43.000748 136.667877,42.997601 
	C138.441544,43.641388 139.881256,44.286861 141.665405,45.335835 
	C142.340927,47.158749 142.671997,48.578171 143.003052,49.997593 
z"/>
<path fill="#BEF0F3" opacity="1.000000" stroke="none" 
	d="
M130.835571,169.742340 
	C130.401596,169.789597 129.868240,169.629257 129.167252,169.236542 
	C128.999619,169.004196 129.498322,169.003113 129.747635,169.001740 
	C130.298813,169.101822 130.545227,169.279953 130.835571,169.742340 
z"/>
<path fill="#94DDE2" opacity="1.000000" stroke="none" 
	d="
M143.354889,50.036736 
	C142.671997,48.578171 142.340927,47.158749 142.003662,45.371056 
	C142.578033,44.184082 143.158600,43.365387 143.868820,42.273533 
	C146.766037,43.974606 149.533615,45.948841 152.646027,47.963875 
	C152.993301,48.171425 152.995773,48.338173 153.002167,48.755112 
	C153.004242,51.045856 153.002380,53.086418 153.001175,55.564552 
	C152.167755,55.936096 151.333694,55.870064 150.250732,55.900856 
	C147.903458,54.023743 145.805099,52.049809 143.354889,50.036736 
z"/>
</svg>