<svg width="60" height="60" viewBox="0 0 60 60" fill="none" xmlns="http://www.w3.org/2000/svg">
<path d="M30 5C25.0555 5 20.222 6.46622 16.1108 9.21326C11.9995 11.9603 8.79521 15.8648 6.90302 20.4329C5.01083 25.0011 4.51575 30.0277 5.48038 34.8773C6.44501 39.7268 8.82603 44.1814 12.3223 47.6777C15.8187 51.174 20.2732 53.555 25.1228 54.5196C29.9723 55.4843 34.9989 54.9892 39.5671 53.097C44.1353 51.2048 48.0397 48.0005 50.7867 43.8893C53.5338 39.778 55 34.9445 55 30C55 26.717 54.3534 23.4661 53.097 20.4329C51.8406 17.3998 49.9991 14.6438 47.6777 12.3223C45.3562 10.0009 42.6002 8.15938 39.5671 6.90301C36.534 5.64664 33.2831 5 30 5ZM44.19 25.5925L29.19 39.3425C28.7151 39.778 28.0904 40.0133 27.4462 39.9993C26.802 39.9853 26.1881 39.7232 25.7325 39.2675L18.2325 31.7675C17.9937 31.5369 17.8033 31.261 17.6723 30.956C17.5412 30.651 17.4723 30.323 17.4694 29.991C17.4665 29.6591 17.5298 29.3299 17.6555 29.0226C17.7812 28.7154 17.9668 28.4362 18.2015 28.2015C18.4363 27.9668 18.7154 27.7811 19.0226 27.6554C19.3299 27.5297 19.6591 27.4665 19.991 27.4694C20.323 27.4723 20.651 27.5412 20.956 27.6722C21.261 27.8033 21.5369 27.9937 21.7675 28.2325L27.575 34.04L40.81 21.9075C41.2987 21.4593 41.9454 21.2235 42.6078 21.2521C43.2703 21.2807 43.8943 21.5713 44.3425 22.06C44.7907 22.5487 45.0265 23.1954 44.9979 23.8578C44.9693 24.5203 44.6787 25.1443 44.19 25.5925Z" fill="#22C55E"/>
</svg>
